
<svg viewBox="0 0 512 512"  version="1.1" xmlns="http://www.w3.org/2000/svg" width="512" height="512">
<path d="M0 0 C1.34664645 -0.00462123 2.69328785 -0.01098227 4.0399189 -0.01890898 C7.70250286 -0.0354582 11.36466476 -0.02742259 15.02724934 -0.0149641 C18.99188774 -0.00585618 22.95645717 -0.01991159 26.92108154 -0.03088379 C34.672817 -0.04861275 42.424397 -0.04485422 50.1761384 -0.03323323 C56.47960078 -0.02417694 62.78301979 -0.02298437 69.08648682 -0.02732849 C69.98573981 -0.02794142 70.88499281 -0.02855436 71.8114959 -0.02918586 C73.63866346 -0.03046484 75.46583101 -0.0317617 77.29299855 -0.03307623 C94.40154286 -0.04446555 111.51000125 -0.03139423 128.61853147 -0.00987476 C143.27877101 0.00799472 157.93888383 0.00489015 172.59912109 -0.0135498 C189.64902518 -0.03498568 206.69885408 -0.04336707 223.74876976 -0.03110075 C225.5689837 -0.02982664 227.38919766 -0.02856915 229.20941162 -0.02732849 C230.5525654 -0.02640284 230.5525654 -0.02640284 231.92285359 -0.02545848 C238.21423286 -0.02201373 244.50556419 -0.02781502 250.79693604 -0.0372467 C258.470503 -0.04849831 266.14390643 -0.04536046 273.81745481 -0.02412373 C277.7280117 -0.01365565 281.63829652 -0.00941837 285.54885101 -0.02272034 C289.1365551 -0.03473899 292.72373786 -0.02792825 296.31139541 -0.00681013 C298.20695245 -0.00030523 300.10254639 -0.01319499 301.99806404 -0.02703905 C316.58438779 0.10486899 329.14192656 4.7906869 339.89794922 14.75793457 C351.01715609 26.75707868 354.77320763 40.29609742 354.65588379 56.35998535 C354.66050501 57.70663181 354.66686606 59.0532732 354.67479277 60.39990425 C354.69134199 64.06248821 354.68330638 67.72465011 354.67084789 71.38723469 C354.66173997 75.35187309 354.67579538 79.31644252 354.68676758 83.28106689 C354.70449654 91.03280236 354.70073801 98.78438235 354.68911701 106.53612375 C354.68006073 112.83958613 354.67886816 119.14300514 354.68321228 125.44647217 C354.68382521 126.34572517 354.68443814 127.24497816 354.68506965 128.17148125 C354.68634863 129.99864881 354.68764549 131.82581637 354.68896002 133.6529839 C354.70034934 150.76152821 354.68727802 167.8699866 354.66575855 184.97851682 C354.64788907 199.63875636 354.65099364 214.29886919 354.66943359 228.95910645 C354.69086947 246.00901053 354.69925086 263.05883943 354.68698454 280.10875511 C354.68571043 281.92896905 354.68445294 283.74918301 354.68321228 285.56939697 C354.68228663 286.91255075 354.68228663 286.91255075 354.68134227 288.28283894 C354.67789752 294.57421821 354.68369881 300.86554954 354.69313049 307.15692139 C354.7043821 314.83048836 354.70124425 322.50389178 354.68000752 330.17744017 C354.66953944 334.08799705 354.66530216 337.99828187 354.67860413 341.90883636 C354.69062277 345.49654045 354.68381204 349.08372322 354.66269392 352.67138076 C354.65618902 354.5669378 354.66907878 356.46253174 354.68292284 358.35804939 C354.55075256 372.9733717 349.86405152 385.62058828 339.77294922 396.32043457 C330.69205975 404.75557189 319.15856953 410.61927756 306.60080814 410.64215565 C304.89750704 410.64884241 304.89750704 410.64884241 303.15979582 410.65566427 C301.9118656 410.6554799 300.66393538 410.65529554 299.37818909 410.65510559 C298.03931587 410.65840557 296.70044364 410.66213142 295.36157268 410.66624707 C291.67879348 410.67626037 287.99603058 410.6799828 284.31323969 410.68263638 C280.34232874 410.68654153 276.37143068 410.69611987 272.40052795 410.70484924 C262.80768673 410.72460983 253.21484446 410.73468029 243.62198797 410.74357703 C239.10242688 410.74796144 234.58286697 410.75332793 230.06330681 410.7585659 C215.03474578 410.77557935 200.00618549 410.79007221 184.97761631 410.79731464 C181.07776959 410.79922449 177.17792287 410.80114483 173.27807617 410.80310059 C172.3088078 410.80358433 171.33953942 410.80406807 170.34089928 410.80456647 C154.64917314 410.81286179 138.95752335 410.83818978 123.26583052 410.87068126 C107.14827272 410.90378182 91.03075366 410.9217662 74.9131617 410.92495888 C65.8667429 410.92712143 56.82043538 410.93583241 47.77404976 410.96142006 C40.06735027 410.98316818 32.36078909 410.99115738 24.6540624 410.98145328 C20.72532399 410.97692017 16.79687068 410.97873658 12.86817169 410.99821472 C9.26348216 411.01593117 5.65928391 411.01478095 2.05458855 410.99931743 C0.14963439 410.99584417 -1.75532543 411.01190431 -3.66020674 411.0289219 C-18.26727788 410.92077583 -30.83080932 406.23928499 -41.60205078 396.25793457 C-52.72125765 384.25879046 -56.47730919 370.71977172 -56.35998535 354.65588379 C-56.36460658 353.30923733 -56.37096762 351.96259594 -56.37889433 350.61596489 C-56.39544355 346.95338093 -56.38740794 343.29121903 -56.37494946 339.62863445 C-56.36584154 335.66399605 -56.37989694 331.69942662 -56.39086914 327.73480225 C-56.4085981 319.98306678 -56.40483957 312.23148679 -56.39321858 304.47974539 C-56.3841623 298.17628301 -56.38296972 291.872864 -56.38731384 285.56939697 C-56.38792677 284.67014398 -56.38853971 283.77089098 -56.38917121 282.84438789 C-56.39045019 281.01722033 -56.39174705 279.19005277 -56.39306158 277.36288524 C-56.4044509 260.25434093 -56.39137958 243.14588254 -56.36986011 226.03735232 C-56.35199063 211.37711278 -56.3550952 196.71699995 -56.37353516 182.0567627 C-56.39497103 165.00685861 -56.40335242 147.95702971 -56.3910861 130.90711403 C-56.38981199 129.08690009 -56.3885545 127.26668613 -56.38731384 125.44647217 C-56.38638819 124.10331839 -56.38638819 124.10331839 -56.38544384 122.7330302 C-56.38199908 116.44165093 -56.38780037 110.1503196 -56.39723206 103.85894775 C-56.40848366 96.18538078 -56.40534581 88.51197736 -56.38410908 80.83842897 C-56.373641 76.92787209 -56.36940372 73.01758727 -56.38270569 69.10703278 C-56.39472434 65.51932869 -56.3879136 61.93214593 -56.36679548 58.34448838 C-56.36029058 56.44893134 -56.37318034 54.5533374 -56.3870244 52.65781975 C-56.25511637 38.071496 -51.56929845 25.51395723 -41.60205078 14.75793457 C-29.60290668 3.6387277 -16.06388793 -0.11732384 0 0 Z M-28.85205078 33.50793457 C-33.05794944 40.11864132 -34.97316698 46.16892502 -34.98347855 53.99909496 C-34.98731969 55.09666943 -34.99116084 56.19424389 -34.99511838 57.32507819 C-34.9942519 58.52545055 -34.99338542 59.72582291 -34.99249268 60.96257019 C-34.9954638 62.2420221 -34.99843492 63.521474 -35.00149608 64.83969718 C-35.00955412 68.38919251 -35.01135498 71.93866759 -35.01209354 75.48817098 C-35.01394619 79.31721816 -35.0214946 83.14625489 -35.02822876 86.97529602 C-35.0418042 95.34730376 -35.0478356 103.7193067 -35.05223942 112.09132361 C-35.05500322 117.32024534 -35.05924084 122.54916523 -35.06374359 127.77808571 C-35.07593532 142.25939537 -35.08623476 156.74070356 -35.08961868 171.22201824 C-35.08983825 172.14865695 -35.09005782 173.07529566 -35.09028403 174.03001432 C-35.09050231 174.9588529 -35.09072059 175.88769147 -35.09094548 176.84467667 C-35.09138895 178.72681407 -35.09183551 180.60895147 -35.09228516 182.49108887 C-35.09250659 183.42469129 -35.09272802 184.35829372 -35.09295616 185.32018713 C-35.09690341 200.44480778 -35.11435564 215.56938023 -35.13764468 230.69398227 C-35.16136978 246.22734122 -35.17382106 261.76067601 -35.1749866 277.29405338 C-35.17590272 286.0133758 -35.1816391 294.73263543 -35.19980621 303.45194054 C-35.21522285 310.87725052 -35.22031845 318.30247828 -35.21206811 325.72780123 C-35.20816711 329.51436004 -35.20906417 333.30075337 -35.22312546 337.08729172 C-35.23824972 341.19777365 -35.22998163 345.30788429 -35.21954346 349.41838074 C-35.22759986 350.60759949 -35.23565627 351.79681824 -35.2439568 353.02207392 C-35.18052091 363.7131835 -33.38508404 372.58291089 -25.85205078 380.50793457 C-16.93834467 388.8010662 -7.6881066 389.95512555 4.15280151 389.89561462 C5.44313266 389.90100016 6.7334638 389.9063857 8.06289589 389.91193444 C11.62429564 389.92633359 15.18546287 389.92216179 18.74687505 389.91476762 C22.59565581 389.91002446 26.44438711 389.92255595 30.29315186 389.93278503 C37.82549269 389.94995611 45.35775003 389.95081654 52.89010535 389.94557213 C59.01442377 389.94152593 65.13871757 389.94297934 71.26303482 389.94832039 C72.13565361 389.94906881 73.0082724 389.94981723 73.90733419 389.95058833 C75.68022934 389.95211986 77.45312449 389.95365821 79.22601964 389.9552033 C95.84136104 389.96892231 112.45665531 389.96349494 129.07199563 389.95201809 C144.26037629 389.94208706 159.4486351 389.95502518 174.63699697 389.97895228 C190.24620898 390.0033564 205.85536426 390.01294788 221.46459496 390.00629956 C230.22246413 390.00281016 238.98023962 390.00502088 247.73809433 390.02255058 C255.19368609 390.03728902 262.64911819 390.03788664 270.10470687 390.02047967 C273.90563228 390.01198062 277.70627269 390.009793 281.50718307 390.02513123 C285.63472845 390.0415808 289.76158931 390.02680086 293.88912964 390.00914001 C295.67616863 390.02354752 295.67616863 390.02354752 297.49930942 390.0382461 C308.36521104 389.942784 317.26600769 387.40258281 325.20263672 379.79309082 C330.91386253 373.08412075 333.26790839 365.72554413 333.27937698 357.01677418 C333.28321813 355.91919971 333.28705927 354.82162525 333.29101682 353.69079095 C333.28971709 351.89023241 333.28971709 351.89023241 333.28839111 350.05329895 C333.29136224 348.77384704 333.29433336 347.49439514 333.29739451 346.17617196 C333.30545256 342.62667663 333.30725342 339.07720155 333.30799198 335.52769816 C333.30984462 331.69865098 333.31739303 327.86961425 333.3241272 324.04057312 C333.33770264 315.66856538 333.34373403 307.29656244 333.34813786 298.92454553 C333.35090166 293.6956238 333.35513927 288.46670391 333.35964203 283.23778343 C333.37183376 268.75647377 333.3821332 254.27516558 333.38551712 239.7938509 C333.38573669 238.86721219 333.38595625 237.94057348 333.38618247 236.98585482 C333.38640075 236.05701624 333.38661903 235.12817767 333.38684392 234.17119247 C333.38728738 232.28905507 333.38773395 230.40691767 333.38818359 228.52478027 C333.38840502 227.59117785 333.38862645 226.65757542 333.38885459 225.69568201 C333.39280185 210.57106136 333.41025408 195.44648891 333.43354312 180.32188687 C333.45726822 164.78852792 333.4697195 149.25519313 333.47088504 133.72181576 C333.47180116 125.00249334 333.47753754 116.28323371 333.49570465 107.5639286 C333.51112129 100.13861862 333.51621689 92.71339086 333.50796655 85.28806791 C333.50406555 81.5015091 333.50496261 77.71511577 333.5190239 73.92857742 C333.53414816 69.81809549 333.52588007 65.70798485 333.51544189 61.5974884 C333.5234983 60.40826965 333.5315547 59.2190509 333.53985524 57.99379522 C333.47641934 47.30268564 331.68098248 38.43295825 324.14794922 30.50793457 C315.23424311 22.21480294 305.98400504 21.0607436 294.14309692 21.12025452 C292.85276578 21.11486898 291.56243463 21.10948344 290.23300254 21.10393471 C286.6716028 21.08953555 283.11043556 21.09370735 279.54902339 21.10110152 C275.70024262 21.10584468 271.85151133 21.09331319 268.00274658 21.08308411 C260.47040575 21.06591303 252.9381484 21.0650526 245.40579309 21.07029701 C239.28147467 21.07434321 233.15718087 21.0728898 227.03286362 21.06754875 C226.16024483 21.06680033 225.28762604 21.06605191 224.38856425 21.06528081 C222.6156691 21.06374928 220.84277395 21.06221093 219.0698788 21.06066584 C202.4545374 21.04694683 185.83924312 21.0523742 169.22390281 21.06385105 C154.03552215 21.07378208 138.84726333 21.06084396 123.65890147 21.03691686 C108.04968946 21.01251274 92.44053417 21.00292126 76.83130348 21.00956959 C68.07343431 21.01305898 59.31565882 21.01084826 50.55780411 20.99331856 C43.10221235 20.97858012 35.64678025 20.97798251 28.19119157 20.99538947 C24.39026616 21.00388852 20.58962574 21.00607614 16.78871536 20.99073792 C12.66116999 20.97428834 8.53430913 20.98906828 4.4067688 21.00672913 C3.21540947 20.99712412 2.02405014 20.98751911 0.79658902 20.97762305 C-11.15008744 21.08258026 -20.9609695 24.2382909 -28.85205078 33.50793457 Z " fill="currentColor" transform="translate(106.85205078125,50.4920654296875)"/>
<path d="M0 0 C3.1255562 2.46754437 4.28371662 4.14903011 5 8 C5.1128341 9.83211501 5.17585564 11.66757995 5.20532227 13.50292969 C5.22526749 14.60376892 5.24521271 15.70460815 5.26576233 16.83880615 C5.28247482 18.02121887 5.29918732 19.20363159 5.31640625 20.421875 C5.33718735 21.63699768 5.35796844 22.85212036 5.37937927 24.10406494 C5.44476828 27.98598573 5.50371051 31.8679742 5.5625 35.75 C5.60569532 38.38151742 5.64930994 41.01302799 5.69335938 43.64453125 C5.80043883 50.0962826 5.90222514 56.54810129 6 63 C7.16058678 61.82275864 7.16058678 61.82275864 8.34461975 60.62173462 C15.64318871 53.22174168 22.95497439 45.83503661 30.27985477 38.46108437 C34.04510186 34.66976068 37.80556356 30.87393445 41.55541992 27.06738281 C45.17543014 23.39298652 48.8075716 19.73099329 52.44839287 16.07722092 C53.83422927 14.68215671 55.21566237 13.28270384 56.59254646 11.87880325 C58.52420844 9.91076596 60.47104089 7.95901769 62.42211914 6.01025391 C62.98604874 5.42834793 63.54997833 4.84644196 64.1309967 4.24690247 C67.80376667 0.62090563 70.77237817 -1.06946007 76 -2 C80.46874714 -1.12377507 83.25510519 0.34014025 86 4 C87.44972014 8.34916041 86.90895655 11.0203865 85.04016685 15.15306282 C83.19841953 18.42329932 80.63921879 20.88240039 77.96801758 23.48608398 C77.36285812 24.09182755 76.75769867 24.69757111 76.13420105 25.32167053 C74.14698439 27.30611769 72.14601543 29.27604646 70.14453125 31.24609375 C68.75789101 32.62526762 67.37213577 34.0053318 65.98722839 35.38624573 C62.35132122 39.00692803 58.70356054 42.61543328 55.05316162 46.22149658 C51.32570356 49.90793443 47.60963463 53.60581403 43.89257812 57.30273438 C36.60612565 64.54637146 29.30709374 71.77718967 22 79 C22.67349991 79.00586624 23.34699982 79.01173248 24.04090881 79.01777649 C31.06555081 79.08182625 38.0897396 79.16627637 45.11401367 79.26245117 C47.73374447 79.29565743 50.35354606 79.32370266 52.97338867 79.34643555 C56.74428411 79.38005954 60.51453322 79.43238196 64.28515625 79.48828125 C65.45208511 79.49467117 66.61901398 79.5010611 67.82130432 79.50764465 C73.92798197 79.61747126 78.67874254 79.86976767 84 83 C86.48962727 86.84760578 87.36305303 89.71774558 86.5625 94.1875 C85.8761963 97.22331185 84.92608723 98.061019 82.47193909 100.08705139 C78.15664271 102.46466805 75.1503702 102.56056576 70.32006836 102.50170898 C69.04333 102.50981346 69.04333 102.50981346 67.74079895 102.51808167 C64.94012189 102.53054258 62.14047802 102.51409708 59.33984375 102.49609375 C57.38741502 102.49624879 55.43498598 102.49773851 53.4825592 102.50050354 C49.39635567 102.5018863 45.31050367 102.48934878 41.22436523 102.46655273 C35.98976675 102.43814975 30.75575134 102.44091223 25.52110958 102.45364285 C21.49161305 102.46060084 17.46225104 102.45280965 13.43277168 102.44038582 C11.50268635 102.43587383 9.57258656 102.43553232 7.64249992 102.43945122 C4.9448782 102.44236508 2.24805754 102.42584884 -0.44946289 102.40405273 C-1.6426564 102.41080521 -1.6426564 102.41080521 -2.85995483 102.41769409 C-7.41493597 102.35661572 -10.45508603 101.9425763 -14 99 C-17.46836328 94.82167183 -17.4335271 90.65772207 -17.40405273 85.44946289 C-17.41091599 84.6000563 -17.41777924 83.75064972 -17.42485046 82.87550354 C-17.44311589 80.07438325 -17.43928132 77.27382319 -17.43359375 74.47265625 C-17.43815572 72.52119261 -17.44346134 70.56973057 -17.44947815 68.61827087 C-17.45840878 64.53035959 -17.45598669 60.44264367 -17.44604492 56.35473633 C-17.43455617 51.12125411 -17.45476563 45.88844671 -17.48396206 40.65505314 C-17.50232588 36.62552114 -17.50203121 32.5961508 -17.49632454 28.56658745 C-17.49617134 26.63731375 -17.50221431 24.70802908 -17.51461601 22.77879524 C-17.52952738 20.07874594 -17.51884811 17.37994249 -17.50170898 14.67993164 C-17.51137695 13.88649353 -17.52104492 13.09305542 -17.53100586 12.27557373 C-17.46220691 7.08831619 -16.44855663 4.10280012 -13 0 C-8.16993602 -2.57603412 -4.9883756 -2.03230117 0 0 Z " fill="currentColor" transform="translate(129,298)"/>
<path d="M0 0 C0.85115891 -0.00540298 1.70231781 -0.01080597 2.57926941 -0.01637268 C5.37994647 -0.02883359 8.17959034 -0.01238809 10.98022461 0.00561523 C12.93265334 0.0054602 14.88508238 0.00397047 16.83750916 0.00120544 C20.92371268 -0.00017732 25.00956468 0.01236021 29.09570312 0.03515625 C34.33030161 0.06355923 39.56431702 0.06079676 44.79895878 0.04806614 C48.82845531 0.04110815 52.85781732 0.04889933 56.88729668 0.06132317 C58.81738201 0.06583516 60.7474818 0.06617667 62.67756844 0.06225777 C65.37519016 0.05934391 68.07201082 0.07586014 70.76953125 0.09765625 C71.56499359 0.0931546 72.36045593 0.08865295 73.18002319 0.08401489 C77.73500433 0.14509327 80.77515439 0.55913269 84.32006836 3.50170898 C87.78843164 7.68003716 87.75359546 11.84398691 87.72412109 17.05224609 C87.73098434 17.90165268 87.7378476 18.75105927 87.74491882 19.62620544 C87.76318425 22.42732574 87.75934968 25.2278858 87.75366211 28.02905273 C87.75822408 29.98051638 87.7635297 31.93197841 87.76954651 33.88343811 C87.77847714 37.97134939 87.77605505 42.05906531 87.76611328 46.14697266 C87.75462453 51.38045487 87.77483399 56.61326227 87.80403042 61.84665585 C87.82239424 65.87618784 87.82209957 69.90555819 87.8163929 73.93512154 C87.8162397 75.86439523 87.82228267 77.7936799 87.83468437 79.72291374 C87.84959574 82.42296304 87.83891647 85.12176649 87.82177734 87.82177734 C87.83144531 88.61521545 87.84111328 89.40865356 87.85107422 90.22613525 C87.78239212 95.40458253 86.7992837 98.42919952 83.32006836 102.50170898 C79.48351862 104.2068422 77.25814491 104.68564556 73.13256836 103.87670898 C70.13572898 102.41158751 68.39032812 101.10870276 66.32006836 98.50170898 C65.26908256 95.32929541 65.16815796 92.3255757 65.11474609 88.9987793 C65.08482826 87.34752045 65.08482826 87.34752045 65.05430603 85.66290283 C65.03759354 84.48049011 65.02088104 83.29807739 65.00366211 82.07983398 C64.98288101 80.8647113 64.96209991 79.64958862 64.94068909 78.39764404 C64.87530008 74.51572326 64.81635785 70.63373479 64.75756836 66.75170898 C64.71437303 64.12019157 64.67075842 61.48868099 64.62670898 58.85717773 C64.51962953 52.40542638 64.41784322 45.95360769 64.32006836 39.50170898 C63.54634384 40.28653656 62.77261932 41.07136414 61.97544861 41.87997437 C54.67687965 49.27996731 47.36509397 56.66667238 40.04021358 64.04062462 C36.2749665 67.83194831 32.5145048 71.62777453 28.76464844 75.43432617 C25.14463822 79.10872246 21.51249675 82.77071569 17.87167549 86.42448807 C16.48583909 87.81955227 15.10440599 89.21900514 13.7275219 90.62290573 C11.79585992 92.59094302 9.84902747 94.54269129 7.89794922 96.49145508 C7.33401962 97.07336105 6.77009003 97.65526703 6.18907166 98.25480652 C2.51630169 101.88080336 -0.45230981 103.57116906 -5.67993164 104.50170898 C-10.14867878 103.62548406 -12.93503683 102.16156874 -15.67993164 98.50170898 C-17.12965178 94.15254857 -16.58888819 91.48132249 -14.7200985 87.34864616 C-12.87835117 84.07840966 -10.31915043 81.6193086 -7.64794922 79.015625 C-6.74021004 78.10700966 -6.74021004 78.10700966 -5.81413269 77.18003845 C-3.82691603 75.1955913 -1.82594707 73.22566252 0.17553711 71.25561523 C1.56217735 69.87644137 2.94793259 68.49637718 4.33283997 67.11546326 C7.96874714 63.49478096 11.61650782 59.8862757 15.26690674 56.2802124 C18.9943648 52.59377455 22.71043373 48.89589495 26.42749023 45.19897461 C33.71394271 37.95533753 41.01297462 30.72451932 48.32006836 23.50170898 C47.64656845 23.49584274 46.97306854 23.4899765 46.27915955 23.4839325 C39.25451755 23.41988273 32.23032876 23.33543262 25.20605469 23.23925781 C22.58632389 23.20605155 19.9665223 23.17800632 17.34667969 23.15527344 C13.57578425 23.12164944 9.80553514 23.06932703 6.03491211 23.01342773 C4.86798325 23.00703781 3.70105438 23.00064789 2.49876404 22.99406433 C-3.60791361 22.88423773 -8.35867418 22.63194132 -13.67993164 19.50170898 C-16.16955891 15.6541032 -17.04298467 12.7839634 -16.24243164 8.31420898 C-15.55612794 5.27839714 -14.60601887 4.44068998 -12.15187073 2.41465759 C-7.83657435 0.03704094 -4.83030184 -0.05885677 0 0 Z " fill="currentColor" transform="translate(312.679931640625,111.498291015625)"/>
</svg>
