<svg width="23" height="23" viewBox="0 0 23 23" fill="none" xmlns="http://www.w3.org/2000/svg">
<path d="M1.41501 0.0629203C0.700752 0.233623 0.166182 0.8221 0.0359083 1.5678C-0.0314745 1.96312 0.0448927 3.5803 0.179658 4.57308C0.73669 8.66995 2.31345 12.2457 4.99079 15.4756C5.47146 16.0551 6.94489 17.5285 7.52438 18.0092C10.7543 20.6866 14.33 22.2633 18.4269 22.8203C19.4287 22.9551 21.0369 23.0315 21.4367 22.9641C22.1959 22.8338 22.7933 22.2678 22.9506 21.5266C22.982 21.3694 23 20.5338 23 19.0334C23 16.6256 22.991 16.5043 22.7709 16.0776C22.6496 15.835 22.3531 15.516 22.124 15.3858C21.7826 15.1836 21.5625 15.1342 20.8213 15.0938C19.4242 15.0129 18.5302 14.8692 17.4072 14.5457C16.8367 14.3795 16.7468 14.366 16.3695 14.384C16.0101 14.3975 15.9248 14.42 15.6642 14.5547C15.498 14.6401 14.7613 15.1701 14.0201 15.7362C13.2789 16.2977 12.6545 16.7559 12.6365 16.7559C12.5781 16.7559 11.7111 16.2483 11.1855 15.9114C9.24489 14.6491 7.76247 13.0633 6.55856 10.943C6.28454 10.4668 6.23513 10.3545 6.28005 10.2871C6.307 10.2422 6.77868 9.61331 7.32673 8.89007C7.87478 8.16233 8.37341 7.48851 8.42731 7.38968C8.48571 7.28636 8.56657 7.07972 8.607 6.92249C8.69685 6.55862 8.66989 6.32503 8.44528 5.52542C8.13532 4.42034 7.98259 3.44554 7.92868 2.24612C7.89724 1.55433 7.82985 1.21741 7.65466 0.916436C7.4031 0.489678 6.90446 0.134795 6.4238 0.0449515C6.06892 -0.0224313 1.70251 -0.00895472 1.41501 0.0629203Z" fill="white"/>
</svg>
