
<svg viewBox="0 0 512 512" version="1.1" xmlns="http://www.w3.org/2000/svg" width="512" height="512">
<path d="M0 0 C0.9175708 0.00757324 1.8351416 0.01514648 2.78051758 0.02294922 C16.94231154 0.36588616 29.6694653 6.30989433 39.625 16.4375 C50.9134515 29.06236768 53.94801219 42.89177499 53.83618164 59.34002686 C53.83402076 60.74096039 53.83277294 62.14189557 53.83235359 63.54283071 C53.82951211 66.57627809 53.82032374 69.60961639 53.80620384 72.64303207 C53.78326356 77.57991767 53.77424955 82.51677478 53.766922 87.45370483 C53.75663454 93.6940527 53.74261248 99.93437368 53.72420257 106.17470291 C53.68807485 118.44015064 53.6767222 130.70551192 53.67431641 142.9710083 C53.67381173 144.90436133 53.67329287 146.83771436 53.67276001 148.77106738 C53.67197264 151.70073842 53.67120103 154.63040946 53.67048883 157.56008051 C53.66771327 168.59539419 53.66225755 179.63070481 53.65380859 190.66601562 C53.6530451 191.6743251 53.65228161 192.68263457 53.65149498 193.72149888 C53.6381813 210.05961313 53.59540329 226.39754056 53.54354846 242.73557195 C53.49112904 259.52683592 53.47695256 276.31784286 53.49642277 293.10917783 C53.50708924 303.456905 53.48718392 313.8036518 53.42763776 324.15121725 C53.38952982 331.24609894 53.38810972 338.34039997 53.41518241 345.43532988 C53.42966756 349.52462261 53.42814133 353.61221216 53.38248634 357.70131302 C52.29042655 376.84843931 52.29042655 376.84843931 59.54956055 393.71343994 C61.20648897 395.32479282 62.89293834 396.90719536 64.625 398.4375 C67.67490259 403.03689974 69.61663632 408.31617262 71.625 413.4375 C71.9859375 414.35273438 72.346875 415.26796875 72.71875 416.2109375 C78.51354006 434.50745057 75.36673535 456.01416359 66.81933594 472.75512695 C63.95136787 478.11587 60.6061829 482.84018165 56.625 487.4375 C55.71427734 488.64212891 55.71427734 488.64212891 54.78515625 489.87109375 C44.49669353 502.09445724 27.36243612 510.6731428 11.625 512.4375 C-12.6901232 514.04216441 -32.46620962 509.63039366 -51.375 493.4375 C-66.21957418 479.4965086 -74.13378365 461.61854734 -75.59765625 441.35546875 C-76.11857812 422.98731074 -70.83868308 405.89709162 -59.375 391.4375 C-58.1002821 390.30280478 -58.1002821 390.30280478 -56.79981232 389.14518642 C-52.74663716 384.22669544 -53.70408837 377.87654932 -53.76940918 371.83326721 C-53.76667738 370.42809174 -53.76173616 369.02291912 -53.75477934 367.61775821 C-53.7419788 363.76068656 -53.76020402 359.90428946 -53.78342414 356.04728949 C-53.80297566 351.88550543 -53.79357425 347.72377732 -53.78749084 343.56196594 C-53.78069515 336.34942952 -53.79160579 329.13709522 -53.8139801 321.92459297 C-53.84591429 311.48021616 -53.84553187 301.03602796 -53.83633965 290.59161531 C-53.82181969 273.62461152 -53.8259155 256.65767148 -53.84521484 239.69067383 C-53.84636329 238.67521124 -53.84751173 237.65974866 -53.84869498 236.61351448 C-53.85814697 228.37939252 -53.8684979 220.14527173 -53.87890339 211.91115093 C-53.88794754 204.72665642 -53.8966379 197.5421616 -53.90478516 190.35766602 C-53.90593879 189.34617092 -53.90709243 188.33467582 -53.90828103 187.29252935 C-53.92693879 170.39969418 -53.92596839 153.50691419 -53.91112375 136.61407608 C-53.90292282 126.20309705 -53.91232175 115.79241866 -53.94471943 105.38148528 C-53.96582424 98.2385781 -53.96915034 91.09580317 -53.95877111 83.95287288 C-53.9534257 79.83749174 -53.95615589 75.72254175 -53.98111153 71.60722351 C-54.00388821 67.82973009 -54.00309305 64.05295752 -53.98462588 60.27544736 C-53.98077993 58.28257776 -54.00139277 56.28970555 -54.02326918 54.29695231 C-53.89135681 38.78759968 -48.74271655 26.20237495 -37.98828125 14.9375 C-27.35260064 4.78601835 -14.66498841 -0.17101236 0 0 Z M-25.375 34.4375 C-29.12359935 40.47641304 -31.49822439 46.03617074 -31.50528526 53.17787647 C-31.50890961 54.3819209 -31.51253396 55.58596532 -31.51626813 56.82649595 C-31.51527146 58.16947169 -31.51418933 59.51244736 -31.51303101 60.85542297 C-31.51544828 62.27679291 -31.5183103 63.69816215 -31.52158034 65.11953038 C-31.52934703 69.03471519 -31.53095348 72.94988248 -31.53163147 76.86507404 C-31.53346877 81.08399483 -31.54107426 85.30290531 -31.54811096 89.52182007 C-31.55964501 96.83584273 -31.56788491 104.14986309 -31.57423019 111.46389198 C-31.58454719 123.02169443 -31.60510824 134.57946804 -31.62734985 146.13725281 C-31.63482983 150.08977594 -31.64224352 154.0422992 -31.64963722 157.9948225 C-31.65148779 158.98264439 -31.65333835 159.97046627 -31.655245 160.98822216 C-31.67617892 172.23685558 -31.6950041 183.4854922 -31.71289062 194.73413086 C-31.71452881 195.76262259 -31.71616699 196.79111432 -31.71785481 197.85077246 C-31.74414381 214.52046209 -31.76278473 231.19015393 -31.77948253 247.85985551 C-31.79689468 264.96613329 -31.82573055 282.07236751 -31.8643719 299.1786105 C-31.88778877 309.7344182 -31.90176798 320.29015489 -31.90369953 330.84598877 C-31.90580667 338.07856308 -31.91871715 345.31106671 -31.94017886 352.5436093 C-31.95222297 356.71848907 -31.95934919 360.89322853 -31.95346642 365.06812477 C-31.94817802 368.88955377 -31.95662344 372.71069632 -31.97602279 376.53207745 C-31.98060431 377.91498508 -31.98011966 379.29792064 -31.97407441 380.68082265 C-31.9665909 382.56041086 -31.97932225 384.440047 -31.99303246 386.31960011 C-31.99438898 387.36372368 -31.99574551 388.40784725 -31.99714315 389.48361093 C-32.73944497 395.28654195 -35.66809422 399.02226828 -39.6875 403.0625 C-50.39358433 414.6404153 -53.00248899 427.5203664 -52.69140625 442.7265625 C-52.4031782 448.76849768 -50.91804272 453.95953584 -48.375 459.4375 C-47.83166016 460.63052734 -47.83166016 460.63052734 -47.27734375 461.84765625 C-40.45059122 475.33917057 -28.4892655 484.3684089 -14.33984375 489.12109375 C-0.48511355 492.87611408 13.74260469 490.54691076 26.22265625 483.86328125 C39.28283183 476.11212014 47.26259473 464.94639253 51.625 450.4375 C55.10893158 436.52410657 51.95229258 422.90838613 45.515625 410.44140625 C42.73318412 406.02054461 39.35095852 402.43208558 35.69921875 398.71484375 C32.48047134 395.18088944 32.49929734 392.33798483 32.49471474 387.73953152 C32.49109039 386.54492068 32.48746604 385.35030984 32.48373187 384.11949867 C32.48480012 382.80046313 32.48586837 381.48142758 32.48696899 380.12242126 C32.48455168 378.71215169 32.48168965 377.30188283 32.47841966 375.89161497 C32.470653 372.00695574 32.46904652 368.12231417 32.46836853 364.23764813 C32.46653116 360.05137093 32.45892548 355.86510413 32.45188904 351.67883301 C32.44035419 344.42047696 32.43211455 337.16212324 32.42576981 329.90376091 C32.41544947 318.42887208 32.39488666 306.95401227 32.37265015 295.47914124 C32.36517003 291.55399618 32.35775632 287.628851 32.35036278 283.70370579 C32.34851221 282.72269071 32.34666165 281.74167562 32.344755 280.73093281 C32.32381988 269.55898733 32.30499628 258.38703864 32.28710938 247.21508789 C32.28547119 246.19362663 32.28383301 245.17216537 32.28214519 244.11975075 C32.25587397 227.57562741 32.23722354 211.03150184 32.22051747 194.48736649 C32.20309 177.50311061 32.17423632 160.51889849 32.1356281 143.53467757 C32.1122404 133.05872603 32.09823463 122.58284583 32.09630047 112.10686798 C32.09418928 104.92378967 32.08124481 97.74078226 32.05982114 90.55773579 C32.04780679 86.41476455 32.04063099 82.27193403 32.04653358 78.1289463 C32.05184623 74.33198027 32.04329473 70.5353008 32.02397721 66.73838253 C32.0172691 64.72283193 32.0252041 62.70724878 32.03375494 60.69170517 C31.95320389 49.63974792 30.13845452 39.90778275 22.625 31.4375 C14.57813353 24.58130808 7.50068742 21.9167473 -3.0625 22.1328125 C-12.28099989 22.98074056 -19.37606754 27.49199043 -25.375 34.4375 Z " fill="#000000" transform="translate(181.375,-0.4375)"/>
<path d="M0 0 C0.80367004 -0.00428513 1.60734009 -0.00857025 2.43536377 -0.01298523 C4.1261705 -0.01869284 5.81700177 -0.01925534 7.5078125 -0.01489258 C10.05773143 -0.01174393 12.60647491 -0.03519679 15.15625 -0.06054688 C32.88083871 -0.13060197 46.83705862 3.37234216 60.0390625 15.8828125 C69.69101179 26.07830159 75.02633739 38.50229078 75.640625 52.55078125 C75.29866788 56.65426668 74.68172183 58.92729246 72.328125 62.30078125 C68.98161712 64.71337996 66.33012755 65.56267194 62.265625 65.36328125 C58.79462341 64.69425232 56.48491494 63.50454295 54.3359375 60.55859375 C52.69739676 56.88775441 52.21932074 53.00193445 51.5546875 49.05664062 C50.21455062 41.66403773 47.06413986 35.54274496 41.515625 30.42578125 C31.60146884 23.81634381 22.75783826 23.11952709 11.078125 23.11328125 C9.88832031 23.10103516 8.69851563 23.08878906 7.47265625 23.07617188 C-3.91881068 23.05729099 -13.12488989 24.05556099 -21.62109375 32.16015625 C-29.38003234 40.55347347 -30.81767691 49.02381396 -30.83300781 60.16088867 C-30.83797272 61.03167053 -30.84293762 61.90245239 -30.84805298 62.79962158 C-30.86260711 65.6685059 -30.86946589 68.53733489 -30.875 71.40625 C-30.87782738 72.39098108 -30.88065475 73.37571217 -30.88356781 74.39028358 C-30.89853455 79.60304659 -30.90777944 84.8157821 -30.91210938 90.02856445 C-30.91758529 95.39029761 -30.94160207 100.75177571 -30.97008133 106.11342907 C-30.98878637 110.25636 -30.99391752 114.39923051 -30.99544525 118.54220009 C-30.99845537 120.51758529 -31.00642784 122.49296984 -31.01963043 124.46831322 C-31.4493473 143.12818176 -31.4493473 143.12818176 -23.48046875 159.515625 C-13.58689456 169.28098873 -2.54880542 170.4786784 10.703125 170.48828125 C12.02570313 170.50665039 12.02570313 170.50665039 13.375 170.52539062 C24.77395696 170.55046164 35.88453601 168.51616513 44.328125 160.30078125 C48.18984593 155.06949651 50.84030609 149.94946758 51.7109375 143.4375 C52.98294827 133.9668016 52.98294827 133.9668016 55.828125 131.11328125 C59.89069086 128.167921 62.27079301 127.87933692 67.328125 128.30078125 C70.68546844 130.01112602 72.73101605 131.32369388 74.703125 134.55078125 C77.07602821 144.99155538 73.92985214 156.59344816 68.890625 165.83203125 C60.08165447 179.75020468 49.18167815 187.8769754 33.328125 192.30078125 C26.79758732 193.58730123 20.28363273 193.55984349 13.65527344 193.59594727 C12.20497806 193.60736312 10.75472112 193.62764615 9.3046875 193.6574707 C-9.10884905 194.03476272 -24.71737965 190.34945185 -38.5703125 177.5 C-49.58719067 165.97118511 -53.97816968 152.79585618 -53.96240234 137.12207031 C-53.96911957 136.14677368 -53.97583679 135.17147705 -53.98275757 134.16662598 C-54.00163774 130.96649982 -54.00565678 127.76658452 -54.0078125 124.56640625 C-54.01424755 122.32354652 -54.02097643 120.08068761 -54.02798462 117.83782959 C-54.03993261 113.14414526 -54.04366801 108.45053439 -54.04248047 103.75683594 C-54.04227747 97.77090298 -54.0695713 91.78544578 -54.10402489 85.7996254 C-54.12636807 81.16849647 -54.13031573 76.53748069 -54.12926102 71.90630341 C-54.13160613 69.70090853 -54.14036748 67.49551001 -54.15592575 65.29016876 C-54.28168158 45.62329041 -51.93043337 30.42778488 -37.98828125 15.58984375 C-27.5858364 5.31019336 -14.59254387 -0.01767953 0 0 Z " fill="#000000" transform="translate(330.671875,148.69921875)"/>
<path d="M0 0 C3.5386994 1.65139305 4.81070153 2.71605229 7 6 C7.18885666 8.53645579 7.26095093 10.96185905 7.24050903 13.49797058 C7.24221788 14.2682417 7.24392673 15.03851282 7.24568737 15.83212548 C7.24898956 18.42097362 7.23796665 21.0095643 7.22705078 23.59838867 C7.22648682 25.45102431 7.22680292 27.3036604 7.22793579 29.15629578 C7.22851091 34.19318652 7.21673085 39.22998251 7.20278788 44.26685119 C7.19030703 49.52793765 7.18911211 54.78902614 7.18673706 60.05012512 C7.1805145 70.01609942 7.16409319 79.98202998 7.14403808 89.94798499 C7.12170321 101.29245171 7.11069173 112.63692049 7.10064721 123.98140371 C7.07972763 147.32096008 7.04453659 170.66047759 7 194 C7.94472168 194.29801514 8.88944336 194.59603027 9.86279297 194.90307617 C17.35476021 197.52264106 23.31491746 204.50501399 26.6875 211.5 C30.21648933 220.91063821 29.6162235 229.68754475 26 239 C21.65428877 246.65108553 15.33971599 252.59947482 6.9921875 255.45703125 C-2.67965157 258.09308151 -12.12002866 257.34260522 -20.9140625 252.390625 C-23.68368538 250.54420974 -25.8455694 248.53462423 -28 246 C-28.680625 245.278125 -29.36125 244.55625 -30.0625 243.8125 C-36.13127274 235.00299119 -37.3897319 225.97855011 -35.5625 215.48828125 C-33.05271319 206.50010724 -26.79733749 199.79836153 -19 195 C-18.01 194.67 -17.02 194.34 -16 194 C-15.99761165 193.05209028 -15.99522329 192.10418056 -15.99276257 191.12754631 C-15.9339797 168.06757721 -15.85810437 145.0077127 -15.76428509 121.94785881 C-15.71931096 110.7963035 -15.67989999 99.64478025 -15.65356445 88.49316406 C-15.63059751 78.77392473 -15.59721402 69.05478669 -15.55129844 59.33562768 C-15.5273487 54.18894515 -15.50863137 49.04236306 -15.50238609 43.89562607 C-15.4963432 39.05127105 -15.47637202 34.20717305 -15.44572449 29.36291313 C-15.43693152 27.58518826 -15.43322428 25.80742981 -15.43499184 24.02968407 C-15.43664408 21.60110637 -15.41995009 19.17331266 -15.39872742 16.74484253 C-15.40357499 16.04249414 -15.40842257 15.34014576 -15.41341704 14.61651409 C-15.34736967 10.03219422 -14.39392681 6.90141387 -12 3 C-8.12403267 -0.22997278 -4.95608442 -0.53100905 0 0 Z M-11 217 C-13.21495196 220.21525285 -14 222.15544281 -14 226.0625 C-12.68360676 229.92940514 -11.31541064 231.60161784 -8 234 C-5.19465676 234.65174641 -2.80814702 234.6297057 0 234 C2.8100346 232.20636089 4.50940468 230.98119065 6 228 C6.63056242 222.10237265 6.63056242 222.10237265 3.875 217.0625 C-1.54695752 213.17283482 -5.49494303 213.20762742 -11 217 Z " fill="#000000" transform="translate(185,213)"/>
<path d="M0 0 C0.66644531 0.41378906 1.33289063 0.82757813 2.01953125 1.25390625 C2.71691406 1.67800781 3.41429687 2.10210937 4.1328125 2.5390625 C11.26493591 7.36096891 15.73852504 13.97622759 18.01953125 22.25390625 C19.24826131 32.9373908 17.43648751 42.09748886 11.125 50.89453125 C9.07033458 53.19697635 7.16449847 54.7719777 4.58203125 56.44140625 C3.47021484 57.17423828 3.47021484 57.17423828 2.3359375 57.921875 C-5.64387558 62.51060394 -14.87166426 63.30663883 -23.79296875 61.19140625 C-31.81400873 58.61488033 -38.2922185 53.2276785 -42.98046875 46.25390625 C-47.1325226 37.75517103 -47.55277691 29.52621668 -45.98046875 20.25390625 C-43.86782417 14.1861945 -40.90591018 9.44053146 -35.98046875 5.25390625 C-35.25859375 4.57328125 -34.53671875 3.89265625 -33.79296875 3.19140625 C-23.87272673 -3.64253825 -10.97553377 -5.84411538 0 0 Z M-21.98046875 22.25390625 C-24.43712072 25.93888421 -24.68133366 28.97362411 -23.98046875 33.25390625 C-22.18682964 36.06394085 -20.9616594 37.76331093 -17.98046875 39.25390625 C-12.0828414 39.88446867 -12.0828414 39.88446867 -7.04296875 37.12890625 C-4.72788537 33.90182032 -3.98046875 32.21630471 -3.98046875 28.25390625 C-5.32634889 24.21626584 -6.35083003 22.64743045 -9.98046875 20.37890625 C-15.01188827 18.49212393 -17.45203458 19.65246534 -21.98046875 22.25390625 Z " fill="#000000" transform="translate(472.98046875,151.74609375)"/>
<path d="M0 0 C0.69291138 -0.00817749 1.38582275 -0.01635498 2.09973145 -0.02478027 C4.39753353 -0.04963287 6.69527376 -0.06615143 8.99316406 -0.08056641 C9.7781855 -0.08589008 10.56320694 -0.09121376 11.37201691 -0.09669876 C15.5286003 -0.1234321 19.68515366 -0.14280478 23.84179688 -0.15722656 C28.1304593 -0.17385872 32.4183509 -0.21862295 36.70672226 -0.26959801 C40.00792294 -0.30329653 43.30894142 -0.31480686 46.61029816 -0.32045364 C48.19073617 -0.32716094 49.77116241 -0.34236967 51.3514328 -0.36634445 C53.56825515 -0.39805261 55.78300937 -0.3980256 58 -0.390625 C59.25971619 -0.39871185 60.51943237 -0.40679871 61.81732178 -0.41513062 C66.37844102 0.39067925 67.99756726 1.9570185 71.25878906 5.19287109 C72.8730883 8.42146956 72.85449563 11.70280763 72.25878906 15.19287109 C70.52276801 18.21795255 68.42298769 20.61077178 65.25878906 22.19287109 C63.01388644 22.31064406 60.76545022 22.36273559 58.51757812 22.38574219 C57.82466675 22.39391968 57.13175537 22.40209717 56.41784668 22.41052246 C54.1200446 22.43537506 51.82230437 22.45189361 49.52441406 22.46630859 C48.73939262 22.47163227 47.95437119 22.47695595 47.14556122 22.48244095 C42.98897783 22.50917428 38.83242446 22.52854697 34.67578125 22.54296875 C30.38711883 22.55960091 26.09922723 22.60436514 21.81085587 22.65534019 C18.50965518 22.68903872 15.2086367 22.70054904 11.90727997 22.70619583 C10.32684196 22.71290313 8.74641572 22.72811185 7.16614532 22.75208664 C4.94932298 22.7837948 2.73456876 22.78376779 0.51757812 22.77636719 C-1.37199615 22.78849747 -1.37199615 22.78849747 -3.29974365 22.8008728 C-7.86086289 21.99506294 -9.47998914 20.42872368 -12.74121094 17.19287109 C-14.35551017 13.96427263 -14.3369175 10.68293456 -13.74121094 7.19287109 C-10.20955618 1.03883089 -6.76708717 0.06926 0 0 Z " fill="#000000" transform="translate(34.7412109375,340.80712890625)"/>
<path d="M0 0 C0.69291138 -0.00817749 1.38582275 -0.01635498 2.09973145 -0.02478027 C4.39753353 -0.04963287 6.69527376 -0.06615143 8.99316406 -0.08056641 C9.7781855 -0.08589008 10.56320694 -0.09121376 11.37201691 -0.09669876 C15.5286003 -0.1234321 19.68515366 -0.14280478 23.84179688 -0.15722656 C28.1304593 -0.17385872 32.4183509 -0.21862295 36.70672226 -0.26959801 C40.00792294 -0.30329653 43.30894142 -0.31480686 46.61029816 -0.32045364 C48.19073617 -0.32716094 49.77116241 -0.34236967 51.3514328 -0.36634445 C53.56825515 -0.39805261 55.78300937 -0.3980256 58 -0.390625 C59.25971619 -0.39871185 60.51943237 -0.40679871 61.81732178 -0.41513062 C66.37844102 0.39067925 67.99756726 1.9570185 71.25878906 5.19287109 C72.8730883 8.42146956 72.85449563 11.70280763 72.25878906 15.19287109 C70.52276801 18.21795255 68.42298769 20.61077178 65.25878906 22.19287109 C63.01388644 22.31064406 60.76545022 22.36273559 58.51757812 22.38574219 C57.82466675 22.39391968 57.13175537 22.40209717 56.41784668 22.41052246 C54.1200446 22.43537506 51.82230437 22.45189361 49.52441406 22.46630859 C48.73939262 22.47163227 47.95437119 22.47695595 47.14556122 22.48244095 C42.98897783 22.50917428 38.83242446 22.52854697 34.67578125 22.54296875 C30.38711883 22.55960091 26.09922723 22.60436514 21.81085587 22.65534019 C18.50965518 22.68903872 15.2086367 22.70054904 11.90727997 22.70619583 C10.32684196 22.71290313 8.74641572 22.72811185 7.16614532 22.75208664 C4.94932298 22.7837948 2.73456876 22.78376779 0.51757812 22.77636719 C-1.37199615 22.78849747 -1.37199615 22.78849747 -3.29974365 22.8008728 C-7.86086289 21.99506294 -9.47998914 20.42872368 -12.74121094 17.19287109 C-14.35551017 13.96427263 -14.3369175 10.68293456 -13.74121094 7.19287109 C-10.20955618 1.03883089 -6.76708717 0.06926 0 0 Z " fill="#000000" transform="translate(34.7412109375,212.80712890625)"/>
<path d="M0 0 C0.69291138 -0.00817749 1.38582275 -0.01635498 2.09973145 -0.02478027 C4.39753353 -0.04963287 6.69527376 -0.06615143 8.99316406 -0.08056641 C9.7781855 -0.08589008 10.56320694 -0.09121376 11.37201691 -0.09669876 C15.5286003 -0.1234321 19.68515366 -0.14280478 23.84179688 -0.15722656 C28.1304593 -0.17385872 32.4183509 -0.21862295 36.70672226 -0.26959801 C40.00792294 -0.30329653 43.30894142 -0.31480686 46.61029816 -0.32045364 C48.19073617 -0.32716094 49.77116241 -0.34236967 51.3514328 -0.36634445 C53.56825515 -0.39805261 55.78300937 -0.3980256 58 -0.390625 C59.25971619 -0.39871185 60.51943237 -0.40679871 61.81732178 -0.41513062 C66.37844102 0.39067925 67.99756726 1.9570185 71.25878906 5.19287109 C72.8730883 8.42146956 72.85449563 11.70280763 72.25878906 15.19287109 C70.52276801 18.21795255 68.42298769 20.61077178 65.25878906 22.19287109 C63.01388644 22.31064406 60.76545022 22.36273559 58.51757812 22.38574219 C57.82466675 22.39391968 57.13175537 22.40209717 56.41784668 22.41052246 C54.1200446 22.43537506 51.82230437 22.45189361 49.52441406 22.46630859 C48.73939262 22.47163227 47.95437119 22.47695595 47.14556122 22.48244095 C42.98897783 22.50917428 38.83242446 22.52854697 34.67578125 22.54296875 C30.38711883 22.55960091 26.09922723 22.60436514 21.81085587 22.65534019 C18.50965518 22.68903872 15.2086367 22.70054904 11.90727997 22.70619583 C10.32684196 22.71290313 8.74641572 22.72811185 7.16614532 22.75208664 C4.94932298 22.7837948 2.73456876 22.78376779 0.51757812 22.77636719 C-1.37199615 22.78849747 -1.37199615 22.78849747 -3.29974365 22.8008728 C-7.86086289 21.99506294 -9.47998914 20.42872368 -12.74121094 17.19287109 C-14.35551017 13.96427263 -14.3369175 10.68293456 -13.74121094 7.19287109 C-10.20955618 1.03883089 -6.76708717 0.06926 0 0 Z " fill="#000000" transform="translate(34.7412109375,84.80712890625)"/>
<path d="M0 0 C1.1240625 -0.020625 2.248125 -0.04125 3.40625 -0.0625 C13.80874069 -0.11168435 13.80874069 -0.11168435 18.625 3.25 C21.06840191 6.18208229 21.59159534 7.93822321 22 11.75 C21.60041536 15.47945665 20.89730196 17.30442338 18.625 20.25 C13.77192904 23.48538064 8.1081081 22.62189098 2.42871094 22.62060547 C0.26416922 22.62497142 -1.89832001 22.66127661 -4.0625 22.69921875 C-5.44530556 22.70508888 -6.82812076 22.70905696 -8.2109375 22.7109375 C-10.09111572 22.72326416 -10.09111572 22.72326416 -12.00927734 22.73583984 C-15.95029873 22.16695601 -17.57643722 21.02400831 -20.375 18.25 C-22.11976571 14.76046858 -21.94989133 11.05705813 -21.375 7.25 C-19.81546953 4.230749 -17.86507584 1.77722683 -14.55615234 0.60644531 C-9.75299892 -0.1784891 -4.85453717 0.02211634 0 0 Z " fill="#000000" transform="translate(85.375,297.75)"/>
<path d="M0 0 C1.45589197 -0.01654238 2.91170329 -0.0438107 4.3671875 -0.08203125 C6.47186162 -0.13698358 8.57463546 -0.1586985 10.67993164 -0.17333984 C11.93974854 -0.19315918 13.19956543 -0.21297852 14.49755859 -0.23339844 C18.761879 0.50241311 20.18648848 2.04596219 22.87915039 5.35009766 C24.43391729 8.45963145 24.16559476 10.91276526 23.87915039 14.35009766 C22.1676875 17.70963593 20.99711843 19.78633191 17.59594727 21.50146484 C14.62319303 22.43004983 12.2083455 22.60863044 9.09790039 22.61572266 C7.46401367 22.61958984 7.46401367 22.61958984 5.79711914 22.62353516 C4.10522461 22.61193359 4.10522461 22.61193359 2.37915039 22.60009766 C1.2512207 22.60783203 0.12329102 22.61556641 -1.03881836 22.62353516 C-2.12807617 22.62095703 -3.21733398 22.61837891 -4.33959961 22.61572266 C-5.32895508 22.6134668 -6.31831055 22.61121094 -7.33764648 22.60888672 C-11.54827407 22.21737222 -14.28305405 21.09732072 -17.43334961 18.28759766 C-19.74709269 14.25997082 -19.96083177 10.89588349 -19.12084961 6.35009766 C-14.37484055 -1.24351684 -8.10002679 0.06744706 0 0 Z " fill="#000000" transform="translate(83.120849609375,255.64990234375)"/>
<path d="M0 0 C1.1240625 -0.020625 2.248125 -0.04125 3.40625 -0.0625 C13.80874069 -0.11168435 13.80874069 -0.11168435 18.625 3.25 C21.06840191 6.18208229 21.59159534 7.93822321 22 11.75 C21.60041536 15.47945665 20.89730196 17.30442338 18.625 20.25 C13.77192904 23.48538064 8.1081081 22.62189098 2.42871094 22.62060547 C0.26416922 22.62497142 -1.89832001 22.66127661 -4.0625 22.69921875 C-5.44530556 22.70508888 -6.82812076 22.70905696 -8.2109375 22.7109375 C-10.09111572 22.72326416 -10.09111572 22.72326416 -12.00927734 22.73583984 C-15.95029873 22.16695601 -17.57643722 21.02400831 -20.375 18.25 C-22.11976571 14.76046858 -21.94989133 11.05705813 -21.375 7.25 C-19.81546953 4.230749 -17.86507584 1.77722683 -14.55615234 0.60644531 C-9.75299892 -0.1784891 -4.85453717 0.02211634 0 0 Z " fill="#000000" transform="translate(85.375,169.75)"/>
<path d="M0 0 C1.45589197 -0.01654238 2.91170329 -0.0438107 4.3671875 -0.08203125 C6.47186162 -0.13698358 8.57463546 -0.1586985 10.67993164 -0.17333984 C11.93974854 -0.19315918 13.19956543 -0.21297852 14.49755859 -0.23339844 C18.761879 0.50241311 20.18648848 2.04596219 22.87915039 5.35009766 C24.43391729 8.45963145 24.16559476 10.91276526 23.87915039 14.35009766 C22.1676875 17.70963593 20.99711843 19.78633191 17.59594727 21.50146484 C14.62319303 22.43004983 12.2083455 22.60863044 9.09790039 22.61572266 C7.46401367 22.61958984 7.46401367 22.61958984 5.79711914 22.62353516 C4.10522461 22.61193359 4.10522461 22.61193359 2.37915039 22.60009766 C1.2512207 22.60783203 0.12329102 22.61556641 -1.03881836 22.62353516 C-2.12807617 22.62095703 -3.21733398 22.61837891 -4.33959961 22.61572266 C-5.32895508 22.6134668 -6.31831055 22.61121094 -7.33764648 22.60888672 C-11.54827407 22.21737222 -14.28305405 21.09732072 -17.43334961 18.28759766 C-19.74709269 14.25997082 -19.96083177 10.89588349 -19.12084961 6.35009766 C-14.37484055 -1.24351684 -8.10002679 0.06744706 0 0 Z " fill="#000000" transform="translate(83.120849609375,127.64990234375)"/>
</svg>
