
<svg viewBox="0 0 512 512"  version="1.1" xmlns="http://www.w3.org/2000/svg" width="512" height="512">
<path d="M0 0 C1.45108658 0.00273422 1.45108658 0.00273422 2.93148804 0.00552368 C17.26440977 0.05095174 31.21023917 0.55983928 45.3125 3.3125 C46.65803955 3.55395752 46.65803955 3.55395752 48.03076172 3.80029297 C96.71843124 12.61028149 141.74255908 36.05356547 177.3125 70.3125 C178.3015332 71.26068604 178.3015332 71.26068604 179.31054688 72.22802734 C188.79880305 81.37247479 197.5387044 90.66984009 205.3125 101.3125 C206.17056152 102.46355017 207.02863451 103.61459177 207.88671875 104.765625 C213.92427396 112.95525981 219.30707302 121.45788276 224.3125 130.3125 C224.7146875 131.01971191 225.116875 131.72692383 225.53125 132.45556641 C238.54775099 155.57510937 247.281052 180.72419753 252.625 206.6875 C252.77235596 207.39801514 252.91971191 208.10853027 253.0715332 208.84057617 C256.05794017 224.48291051 256.68730954 240.11926093 256.625 256 C256.62226578 257.45108658 256.62226578 257.45108658 256.61947632 258.93148804 C256.57404826 273.26440977 256.06516072 287.21023917 253.3125 301.3125 C253.15152832 302.20952637 252.99055664 303.10655273 252.82470703 304.03076172 C244.01471851 352.71843124 220.57143453 397.74255908 186.3125 433.3125 C185.68037598 433.97185547 185.04825195 434.63121094 184.39697266 435.31054688 C175.25252521 444.79880305 165.95515991 453.5387044 155.3125 461.3125 C154.16144983 462.17056152 153.01040823 463.02863451 151.859375 463.88671875 C143.66974019 469.92427396 135.16711724 475.30707302 126.3125 480.3125 C125.60528809 480.7146875 124.89807617 481.116875 124.16943359 481.53125 C101.04989063 494.54775099 75.90080247 503.281052 49.9375 508.625 C49.22698486 508.77235596 48.51646973 508.91971191 47.78442383 509.0715332 C32.14208949 512.05794017 16.50573907 512.68730954 0.625 512.625 C-0.34239105 512.62317719 -1.3097821 512.62135437 -2.30648804 512.61947632 C-16.63940977 512.57404826 -30.58523917 512.06516072 -44.6875 509.3125 C-45.58452637 509.15152832 -46.48155273 508.99055664 -47.40576172 508.82470703 C-96.09343124 500.01471851 -141.11755908 476.57143453 -176.6875 442.3125 C-177.34685547 441.68037598 -178.00621094 441.04825195 -178.68554688 440.39697266 C-188.17380305 431.25252521 -196.9137044 421.95515991 -204.6875 411.3125 C-205.54556152 410.16144983 -206.40363451 409.01040823 -207.26171875 407.859375 C-213.29927396 399.66974019 -218.68207302 391.16711724 -223.6875 382.3125 C-224.0896875 381.60528809 -224.491875 380.89807617 -224.90625 380.16943359 C-237.92275099 357.04989063 -246.656052 331.90080247 -252 305.9375 C-252.22103394 304.87172729 -252.22103394 304.87172729 -252.4465332 303.78442383 C-255.43294017 288.14208949 -256.06230954 272.50573907 -256 256.625 C-255.99817719 255.65760895 -255.99635437 254.6902179 -255.99447632 253.69351196 C-255.94904826 239.36059023 -255.44016072 225.41476083 -252.6875 211.3125 C-252.44604248 209.96696045 -252.44604248 209.96696045 -252.19970703 208.59423828 C-243.38971851 159.90656876 -219.94643453 114.88244092 -185.6875 79.3125 C-185.05537598 78.65314453 -184.42325195 77.99378906 -183.77197266 77.31445312 C-174.62752521 67.82619695 -165.33015991 59.0862956 -154.6875 51.3125 C-153.53644983 50.45443848 -152.38540823 49.59636549 -151.234375 48.73828125 C-143.04474019 42.70072604 -134.54211724 37.31792698 -125.6875 32.3125 C-124.98028809 31.9103125 -124.27307617 31.508125 -123.54443359 31.09375 C-100.42489063 18.07724901 -75.27580247 9.343948 -49.3125 4 C-48.24672729 3.77896606 -48.24672729 3.77896606 -47.15942383 3.5534668 C-31.51708949 0.56705983 -15.88073907 -0.06230954 0 0 Z M-48.6875 20.3125 C-49.67363281 20.52680664 -50.65976563 20.74111328 -51.67578125 20.96191406 C-87.23883348 28.96709653 -120.27050171 44.45469061 -148.6875 67.3125 C-149.26628906 67.7755957 -149.84507812 68.23869141 -150.44140625 68.71582031 C-164.80090416 80.31953759 -178.62100646 93.50438341 -189.6875 108.3125 C-190.15397949 108.91900391 -190.62045898 109.52550781 -191.10107422 110.15039062 C-212.14533677 137.57350897 -226.47815928 168.60278873 -234.375 202.1875 C-234.56553955 202.98744385 -234.7560791 203.7873877 -234.95239258 204.61157227 C-238.75055495 221.62621233 -240.24387933 238.53543923 -240.125 255.9375 C-240.12195862 256.89095306 -240.11891724 257.84440613 -240.11578369 258.82675171 C-240.04167988 274.61530992 -239.07124723 289.8409982 -235.6875 305.3125 C-235.47319336 306.29863281 -235.25888672 307.28476562 -235.03808594 308.30078125 C-227.03290347 343.86383348 -211.54530939 376.89550171 -188.6875 405.3125 C-188.2244043 405.89128906 -187.76130859 406.47007812 -187.28417969 407.06640625 C-175.68046241 421.42590416 -162.49561659 435.24600646 -147.6875 446.3125 C-147.08099609 446.77897949 -146.47449219 447.24545898 -145.84960938 447.72607422 C-118.42649103 468.77033677 -87.39721127 483.10315928 -53.8125 491 C-52.61258423 491.28580933 -52.61258423 491.28580933 -51.38842773 491.57739258 C-34.37378767 495.37555495 -17.46456077 496.86887933 -0.0625 496.75 C0.89095306 496.74695862 1.84440613 496.74391724 2.82675171 496.74078369 C18.61530992 496.66667988 33.8409982 495.69624723 49.3125 492.3125 C50.29863281 492.09819336 51.28476562 491.88388672 52.30078125 491.66308594 C87.86383348 483.65790347 120.89550171 468.17030939 149.3125 445.3125 C149.89128906 444.8494043 150.47007812 444.38630859 151.06640625 443.90917969 C165.42590416 432.30546241 179.24600646 419.12061659 190.3125 404.3125 C190.77897949 403.70599609 191.24545898 403.09949219 191.72607422 402.47460938 C212.77033677 375.05149103 227.10315928 344.02221127 235 310.4375 C235.19053955 309.63755615 235.3810791 308.8376123 235.57739258 308.01342773 C239.37555495 290.99878767 240.86887933 274.08956077 240.75 256.6875 C240.74695862 255.73404694 240.74391724 254.78059387 240.74078369 253.79824829 C240.66667988 238.00969008 239.69624723 222.7840018 236.3125 207.3125 C236.09819336 206.32636719 235.88388672 205.34023437 235.66308594 204.32421875 C227.65790347 168.76116652 212.17030939 135.72949829 189.3125 107.3125 C188.8494043 106.73371094 188.38630859 106.15492187 187.90917969 105.55859375 C176.30546241 91.19909584 163.12061659 77.37899354 148.3125 66.3125 C147.70599609 65.84602051 147.09949219 65.37954102 146.47460938 64.89892578 C119.05149103 43.85466323 88.02221127 29.52184072 54.4375 21.625 C53.63755615 21.43446045 52.8376123 21.2439209 52.01342773 21.04760742 C34.99878767 17.24944505 18.08956077 15.75612067 0.6875 15.875 C-0.26595306 15.87804138 -1.21940613 15.88108276 -2.20175171 15.88421631 C-17.99030992 15.95832012 -33.2159982 16.92875277 -48.6875 20.3125 Z " fill="#000000" transform="translate(255.6875,-0.3125)"/>
<path d="M0 0 C15.62011114 5.55970058 28.48763085 34.34376106 35.375 48.6875 C48.53602625 76.81641004 54.92041204 106.89011367 54.875 137.875 C54.87439575 138.63394562 54.8737915 139.39289124 54.87316895 140.17483521 C54.84969515 151.017295 54.63908509 161.61737265 52.6875 172.3125 C52.55327637 173.05918945 52.41905273 173.80587891 52.28076172 174.57519531 C44.57589463 216.53813698 25.12221176 253.62172545 -4.3125 284.3125 C-5.20839844 285.26125 -6.10429687 286.21 -7.02734375 287.1875 C-13.92125443 294.31424466 -21.37733288 300.40579921 -29.3125 306.3125 C-30.59253906 307.26769531 -30.59253906 307.26769531 -31.8984375 308.2421875 C-74.87273258 339.22365605 -130.3237814 352.57746396 -182.79785156 345.13427734 C-187.66845413 344.32817793 -192.49379318 343.38487876 -197.3125 342.3125 C-198.16537598 342.12526367 -199.01825195 341.93802734 -199.89697266 341.74511719 C-228.77477464 335.20738606 -255.23483064 322.58818651 -279 305.0625 C-279.98939575 304.33776489 -279.98939575 304.33776489 -280.9987793 303.59838867 C-285.05350107 300.53466964 -288.35610363 297.46728266 -291.3125 293.3125 C-291.3125 289.7655632 -290.95349902 287.48138056 -289.25 284.375 C-286.09055235 282.64239967 -282.79103799 282.80821611 -279.3125 283.3125 C-276.28515625 285.11328125 -276.28515625 285.11328125 -273.375 287.625 C-272.25327715 288.55114725 -271.12672893 289.4714729 -269.99609375 290.38671875 C-269.40296387 290.86802246 -268.80983398 291.34932617 -268.19873047 291.84521484 C-235.69706095 317.12803051 -194.85568388 329.52177428 -154 329.5625 C-153.29551727 329.56350708 -152.59103455 329.56451416 -151.86520386 329.56555176 C-139.80340787 329.55394452 -128.15347337 328.68376096 -116.3125 326.3125 C-115.22340332 326.10367188 -115.22340332 326.10367188 -114.11230469 325.890625 C-77.22428168 318.65702267 -45.32285107 300.02390915 -18.3125 274.3125 C-17.55582031 273.62027344 -16.79914063 272.92804688 -16.01953125 272.21484375 C10.54178598 247.10496462 27.86914903 210.87209431 34.6875 175.3125 C34.91179687 174.19246582 34.91179687 174.19246582 35.140625 173.04980469 C39.65321301 149.75745924 39.38482717 124.54589727 34.6875 101.3125 C34.53764648 100.55984863 34.38779297 99.80719727 34.23339844 99.03173828 C28.59946819 71.51399616 16.94114484 43.79812898 -1.03515625 21.96484375 C-1.49607666 21.39725342 -1.95699707 20.82966309 -2.43188477 20.24487305 C-3.32454395 19.15710745 -4.23431726 18.08306867 -5.16381836 17.02661133 C-7.59145133 14.07423946 -8.6174156 11.83533048 -8.72265625 8.08203125 C-8.3125 4.3125 -8.3125 4.3125 -6.25 1.75 C-3.3125 0.3125 -3.3125 0.3125 0 0 Z " fill="#000000" transform="translate(409.3125,117.6875)"/>
<path d="M0 0 C0.74905609 -0.00067474 1.49811218 -0.00134949 2.26986694 -0.00204468 C49.72466577 0.06552327 100.53005098 16.28573778 135.6875 49.25 C138.30222925 52.20652392 138.70644707 52.71000857 138.5625 56.8125 C137.6875 60.25 137.6875 60.25 136.625 62.1875 C133.46555235 63.92010033 130.16603799 63.75428389 126.6875 63.25 C123.66015625 61.44921875 123.66015625 61.44921875 120.75 58.9375 C119.62827715 58.01135275 118.50172893 57.0910271 117.37109375 56.17578125 C116.77796387 55.69447754 116.18483398 55.21317383 115.57373047 54.71728516 C83.07206095 29.43446949 42.23068388 17.04072572 1.375 17 C0.67051727 16.99899292 -0.03396545 16.99798584 -0.75979614 16.99694824 C-12.82159213 17.00855548 -24.47152663 17.87873904 -36.3125 20.25 C-37.03856445 20.38921875 -37.76462891 20.5284375 -38.51269531 20.671875 C-75.40071832 27.90547733 -107.30214893 46.53859085 -134.3125 72.25 C-135.44751953 73.28833984 -135.44751953 73.28833984 -136.60546875 74.34765625 C-163.16678598 99.45753538 -180.49414903 135.69040569 -187.3125 171.25 C-187.46203125 171.99668945 -187.6115625 172.74337891 -187.765625 173.51269531 C-192.27821301 196.80504076 -192.00982717 222.01660273 -187.3125 245.25 C-187.16264648 246.00265137 -187.01279297 246.75530273 -186.85839844 247.53076172 C-181.22446819 275.04850384 -169.56614484 302.76437102 -151.58984375 324.59765625 C-151.12892334 325.16524658 -150.66800293 325.73283691 -150.19311523 326.31762695 C-149.30045605 327.40539255 -148.39068274 328.47943133 -147.46118164 329.53588867 C-145.03354867 332.48826054 -144.0075844 334.72716952 -143.90234375 338.48046875 C-144.3125 342.25 -144.3125 342.25 -146.375 344.8125 C-149.3125 346.25 -149.3125 346.25 -152.625 346.5625 C-168.24511114 341.00279942 -181.11263085 312.21873894 -188 297.875 C-201.16102625 269.74608996 -207.54541204 239.67238633 -207.5 208.6875 C-207.49939575 207.92855438 -207.4987915 207.16960876 -207.49816895 206.38766479 C-207.47469515 195.545205 -207.26408509 184.94512735 -205.3125 174.25 C-205.17827637 173.50331055 -205.04405273 172.75662109 -204.90576172 171.98730469 C-197.20089463 130.02436302 -177.74721176 92.94077455 -148.3125 62.25 C-147.41660156 61.30125 -146.52070313 60.3525 -145.59765625 59.375 C-138.70374557 52.24825534 -131.24766712 46.15670079 -123.3125 40.25 C-122.45914063 39.61320312 -121.60578125 38.97640625 -120.7265625 38.3203125 C-85.49242958 12.91896086 -43.26304602 0.03525434 0 0 Z " fill="#000000" transform="translate(255.3125,47.75)"/>
<path d="M0 0 C1.84881401 1.33107758 1.84881401 1.33107758 3.75900269 3.06774902 C4.80951624 4.0227253 4.80951624 4.0227253 5.88125229 4.99699402 C9.19559288 8.13028072 12.41685226 11.34322745 15.60595703 14.60351562 C17.08224978 16.10277775 18.55857999 17.60200299 20.03494263 19.10119629 C21.18928488 20.27631523 21.18928488 20.27631523 22.36694717 21.47517395 C26.4726082 25.64988596 30.595179 29.8078648 34.71484375 33.96875 C39.94305067 39.25102905 45.16597077 44.53823336 50.37060547 49.84375 C54.59221274 54.14629833 58.83055693 58.43169912 63.08077621 62.70597839 C64.69543594 64.33609613 66.30377616 65.97249843 67.90564346 67.6151886 C70.13885434 69.90370207 72.39275357 72.16970228 74.65283203 74.43164062 C75.31064667 75.11619324 75.9684613 75.80074585 76.64620972 76.50604248 C78.37142007 78.20847371 79.94789559 79.71046829 82 81 C85.27032614 81.09563404 85.27032614 81.09563404 88 80 C95.03748095 79.23885401 100.77574161 80.62080543 107 84 C109.42928671 86.119165 111.35055273 88.05402865 113.16705322 90.6999054 C115.61226553 92.43427508 117.36849169 92.04017269 120.2454834 91.61172485 C120.95305786 91.48873016 121.66063232 91.36573547 122.38964844 91.23901367 C123.13962097 91.12240891 123.88959351 91.00580414 124.66229248 90.88566589 C127.14742233 90.49542106 129.62803726 90.08158356 132.109375 89.66796875 C133.83683906 89.39301151 135.56456635 89.11970341 137.2925415 88.84797668 C141.84938378 88.12757888 146.40287464 87.38788949 150.95581055 86.64324951 C158.22824406 85.45707081 165.50533116 84.29983783 172.78247833 83.14299965 C175.31983733 82.73679827 177.85573867 82.32233801 180.39154053 81.90653992 C181.95859082 81.65391355 183.52566712 81.40144848 185.09277344 81.14916992 C185.79225098 81.03224792 186.49172852 80.91532593 187.21240234 80.79486084 C198.59440874 78.9831893 198.59440874 78.9831893 202.9375 82.125 C205 85 205 85 205.625 88 C204.77238621 92.0925462 203.22679398 93.37028871 200 96 C197.16253283 96.82788931 194.70720903 97.36558518 191.81323242 97.76098633 C191.00295593 97.88851288 190.19267944 98.01603943 189.35784912 98.14743042 C186.69297701 98.5618946 184.02474731 98.94706307 181.35546875 99.33203125 C179.50145935 99.61454905 177.64772725 99.89889209 175.79426575 100.1849823 C170.92580307 100.93144649 166.05397723 101.65310711 161.18103027 102.36962891 C156.20500216 103.10579618 151.23256177 103.86541028 146.25976562 104.62304688 C136.50987516 106.10497376 126.75626999 107.5607163 117 109 C116.80954102 109.53979492 116.61908203 110.07958984 116.42285156 110.63574219 C116.1647168 111.34891602 115.90658203 112.06208984 115.640625 112.796875 C115.38829102 113.50166992 115.13595703 114.20646484 114.87597656 114.93261719 C112.26168854 121.10257009 107.75602266 124.17431615 102 127 C94.71151491 129.22209911 87.75239049 128.59091977 80.97265625 125.20703125 C78.17508719 123.49525137 76.11779583 121.4915245 74 119 C73.443125 118.360625 72.88625 117.72125 72.3125 117.0625 C68.67246341 111.3424425 68.56912599 105.57333368 69 99 C69.31726044 98.12200745 69.63452087 97.24401489 69.96139526 96.3394165 C70.00612714 92.4699858 69.57197049 92.02859607 67.08987427 89.25482178 C65.6731421 87.82080616 64.23667213 86.40613923 62.78564453 85.00683594 C62.00711121 84.22888672 61.22857788 83.4509375 60.42645264 82.64941406 C57.84465744 80.07760727 55.23906497 77.53137403 52.6328125 74.984375 C50.83856881 73.2057247 49.04593491 71.42544914 47.25485229 69.64361572 C43.01509221 65.43296259 38.76048476 61.23791664 34.4979533 57.05036187 C28.23882785 50.89969132 22.00679586 44.72167142 15.77338982 38.54495621 C11.30067886 34.11345492 6.82423083 29.68596126 2.33621216 25.2699585 C1.10205063 24.05315399 1.10205063 24.05315399 -0.15704346 22.81176758 C-1.69852995 21.29215656 -3.24193754 19.77449101 -4.78756714 18.25909424 C-5.46351929 17.59188354 -6.13947144 16.92467285 -6.83590698 16.23724365 C-7.42623152 15.65693264 -8.01655605 15.07662163 -8.62476921 14.47872543 C-10.82138319 12.11680263 -11.00670037 10.92763596 -11.3125 7.625 C-11 4 -11 4 -9.4375 1.5625 C-5.90550465 -0.70159958 -4.13858566 -0.7587407 0 0 Z M87 98 C85.07800886 100.56265486 84.98971364 101.83198949 85.1875 105.0625 C86.03570635 108.12909218 86.36816516 109.27569441 89 111 C92.09970844 111.85736616 94.15305467 112.25878885 97.25 111.3125 C99.44657038 109.66507222 100.19470612 108.63550724 101 106 C100.81145593 102.92044678 100.51332877 100.78350181 98.8125 98.1875 C94.91221231 95.6321391 90.79535562 95.15348329 87 98 Z " fill="#000000" transform="translate(163,152)"/>
<path d="M0 0 C2.74207731 3.62204818 2.32342811 7.96390016 2.3359375 12.30859375 C2.3425943 13.11232925 2.3492511 13.91606476 2.35610962 14.74415588 C2.36621769 16.44114906 2.37092721 18.13818183 2.37060547 19.83520508 C2.37497942 22.42531031 2.41131798 25.01371162 2.44921875 27.60351562 C2.45508727 29.25520253 2.45905643 30.90689749 2.4609375 32.55859375 C2.47530853 33.32956894 2.48967957 34.10054413 2.50448608 34.8948822 C2.47274022 38.64809021 2.13327197 40.7909657 0.09619141 43.98608398 C-2.15072182 46.144806 -2.94007143 46.68476423 -6 46.625 C-6.99 46.64433594 -6.99 46.64433594 -8 46.6640625 C-11.19655542 45.60270621 -12.20763979 43.81127952 -14 41 C-14.36698499 38.05360844 -14.51568399 35.49562617 -14.4609375 32.55859375 C-14.46002106 31.75390152 -14.45910461 30.94920929 -14.4581604 30.12013245 C-14.45213694 28.42483596 -14.4364286 26.7295495 -14.41162109 25.03442383 C-14.37507011 22.44247156 -14.37060229 19.85194899 -14.37109375 17.25976562 C-14.36126319 15.60936267 -14.34960645 13.95896938 -14.3359375 12.30859375 C-14.33371185 11.53559433 -14.33148621 10.76259491 -14.32919312 9.96617126 C-14.20825198 3.10073369 -14.20825198 3.10073369 -12 0 C-7.66689293 -2.7236673 -4.58907322 -1.90489832 0 0 Z " fill="#000000" transform="translate(262,386)"/>
<path d="M0 0 C1.20560326 -0.0099852 1.20560326 -0.0099852 2.43556213 -0.02017212 C4.13255531 -0.03028019 5.82958808 -0.03498971 7.52661133 -0.03466797 C10.11671656 -0.03904192 12.70511787 -0.07538048 15.29492188 -0.11328125 C16.94660878 -0.11914977 18.59830374 -0.12311893 20.25 -0.125 C21.40646278 -0.14655655 21.40646278 -0.14655655 22.58628845 -0.16854858 C26.33949646 -0.13680272 28.48237195 0.20266553 31.67749023 2.23974609 C33.83621225 4.48665932 34.37617048 5.27600893 34.31640625 8.3359375 C34.32929688 8.9959375 34.3421875 9.6559375 34.35546875 10.3359375 C33.29411246 13.53249292 31.50268577 14.54357729 28.69140625 16.3359375 C25.74501469 16.70292249 23.18703242 16.85162149 20.25 16.796875 C19.44530777 16.79595856 18.64061554 16.79504211 17.8115387 16.7940979 C16.11624221 16.78807444 14.42095575 16.7723661 12.72583008 16.74755859 C10.13387781 16.71100761 7.54335524 16.70653979 4.95117188 16.70703125 C3.30076892 16.69720069 1.65037563 16.68554395 0 16.671875 C-0.77299942 16.66964935 -1.54599884 16.66742371 -2.34242249 16.66513062 C-9.39606219 16.54087413 -9.39606219 16.54087413 -12.30859375 14.3359375 C-13.81015087 10.7185499 -14.54068202 8.38033473 -13.68359375 4.5234375 C-10.5017988 -0.53850901 -5.4635835 0.01573094 0 0 Z " fill="#000000" transform="translate(398.30859375,247.6640625)"/>
<path d="M0 0 C0.80469223 0.00091644 1.60938446 0.00183289 2.4384613 0.0027771 C4.13375779 0.00880056 5.82904425 0.0245089 7.52416992 0.04931641 C10.11612219 0.08586739 12.70664476 0.09033521 15.29882812 0.08984375 C16.94923108 0.09967431 18.59962437 0.11133105 20.25 0.125 C21.02299942 0.12722565 21.79599884 0.12945129 22.59242249 0.13174438 C29.64606219 0.25600087 29.64606219 0.25600087 32.55859375 2.4609375 C34.06015087 6.0783251 34.79068202 8.41654027 33.93359375 12.2734375 C32.26274689 14.93160296 31.50072574 15.39176904 28.55859375 16.4609375 C25.7553741 16.67689085 23.05388424 16.78880196 20.25 16.796875 C19.4462645 16.8035318 18.64252899 16.8101886 17.81443787 16.81704712 C16.11744469 16.82715519 14.42041192 16.83186471 12.72338867 16.83154297 C10.13328344 16.83591692 7.54488213 16.87225548 4.95507812 16.91015625 C3.30339122 16.91602477 1.65169626 16.91999393 0 16.921875 C-0.77097519 16.93624603 -1.54195038 16.95061707 -2.33628845 16.96542358 C-6.08949646 16.93367772 -8.23237195 16.59420947 -11.42749023 14.55712891 C-13.58621225 12.31021568 -14.12617048 11.52086607 -14.06640625 8.4609375 C-14.07929687 7.8009375 -14.0921875 7.1409375 -14.10546875 6.4609375 C-11.96656584 0.01906521 -5.80581438 -0.1082208 0 0 Z " fill="#000000" transform="translate(93.44140625,247.5390625)"/>
<path d="M0 0 C0.66 -0.01289062 1.32 -0.02578125 2 -0.0390625 C5.19655542 1.02229379 6.20763979 2.81372048 8 5.625 C8.36698499 8.57139156 8.51568399 11.12937383 8.4609375 14.06640625 C8.45956284 15.2734446 8.45956284 15.2734446 8.4581604 16.50486755 C8.45213694 18.20016404 8.4364286 19.8954505 8.41162109 21.59057617 C8.37507011 24.18252844 8.37060229 26.77305101 8.37109375 29.36523438 C8.36126319 31.01563733 8.34960645 32.66603062 8.3359375 34.31640625 C8.33371185 35.08940567 8.33148621 35.86240509 8.32919312 36.65882874 C8.20493663 43.71246844 8.20493663 43.71246844 6 46.625 C2.3826124 48.12655712 0.04439723 48.85708827 -3.8125 48 C-6.47066546 46.32915314 -6.93083154 45.56713199 -8 42.625 C-8.21595335 39.82178035 -8.32786446 37.12029049 -8.3359375 34.31640625 C-8.3425943 33.51267075 -8.3492511 32.70893524 -8.35610962 31.88084412 C-8.36621769 30.18385094 -8.37092721 28.48681817 -8.37060547 26.78979492 C-8.37497942 24.19968969 -8.41131798 21.61128838 -8.44921875 19.02148438 C-8.45508727 17.36979747 -8.45905643 15.71810251 -8.4609375 14.06640625 C-8.47530853 13.29543106 -8.48967957 12.52445587 -8.50448608 11.7301178 C-8.47274022 7.97690979 -8.13327197 5.8340343 -6.09619141 2.63891602 C-3.84927818 0.480194 -3.05992857 -0.05976423 0 0 Z " fill="#000000" transform="translate(256,79.375)"/>
<path d="M0 0 C4.6517495 3.02852189 6.8252181 6.57978481 9.3125 11.375 C9.67150391 12.02210938 10.03050781 12.66921875 10.40039062 13.3359375 C12.52200765 17.34478338 13.61608248 20.35929172 13 25 C10.9375 27.9375 10.9375 27.9375 8 30 C4.14679868 30.06760002 1.97143321 29.83566203 -0.984375 27.29296875 C-5.55368556 22.09493523 -9.90092312 15.43886276 -11.25 8.5625 C-11 5 -11 5 -8.9375 2 C-5.49101258 -0.34654463 -4.0786507 -0.76474701 0 0 Z " fill="#000000" transform="translate(335,380)"/>
<path d="M0 0 C2.9375 2 2.9375 2 5 5 C4.81915801 11.33616748 3.06493107 15.55394559 -0.25 20.875 C-0.82427734 21.86886719 -0.82427734 21.86886719 -1.41015625 22.8828125 C-3.2522837 25.9140055 -4.45899654 27.69781789 -7.6015625 29.453125 C-10.77543691 30.17680972 -12.88890583 29.94685475 -16 29 C-18.3889312 26.84996192 -18.92992293 25.54920866 -19.3359375 22.3671875 C-18.88143063 17.81154892 -17.0434962 14.71288148 -14.75 10.8125 C-14.15638672 9.74612305 -14.15638672 9.74612305 -13.55078125 8.65820312 C-10.19453352 2.8095288 -7.36092258 -1.20178328 0 0 Z " fill="#000000" transform="translate(183,380)"/>
<path d="M0 0 C7.23639448 1.42242105 14.9262138 6.57890355 19.890625 11.8515625 C21.5 14.3125 21.5 14.3125 21.5 17.9375 C20.5 21.3125 20.5 21.3125 18.875 23.25 C15.51439475 24.75342866 13.17399658 24.63051396 9.5 24.3125 C6.72349313 23.18324644 4.27081813 21.67400498 1.75 20.0625 C1.09128906 19.66675781 0.43257813 19.27101563 -0.24609375 18.86328125 C-3.66550452 16.74782429 -6.45909625 14.88408156 -8.5 11.3125 C-9.18857448 7.26712494 -8.82640639 5.79190938 -6.5 2.375 C-3.5 0.3125 -3.5 0.3125 0 0 Z " fill="#000000" transform="translate(388.5,323.6875)"/>
<path d="M0 0 C2.562964 2.23225897 2.93752331 3.58051369 3.4375 6.9375 C2.88189915 10.82670598 1.66878787 12.13127036 -1 15 C-3.26432662 16.58034002 -5.42291087 17.96564067 -7.8125 19.3125 C-8.40353516 19.67150391 -8.99457031 20.03050781 -9.60351562 20.40039062 C-13.89092524 22.85501445 -17.10490681 23.45424552 -22 23 C-24.375 21.9375 -24.375 21.9375 -26 20 C-27.0625 16.6875 -27.0625 16.6875 -27 13 C-22.01659814 4.14061892 -9.87368556 -2.29210558 0 0 Z " fill="#000000" transform="translate(129,325)"/>
<path d="M0 0 C3.375 1 3.375 1 5.3125 2.6875 C6.73228354 5.77761713 6.71096438 7.59292596 6.375 11 C5.20993159 13.88162915 3.69853181 16.51150939 2.125 19.1875 C1.72925781 19.89841797 1.33351563 20.60933594 0.92578125 21.34179688 C-1.14360045 24.94794892 -2.88303879 27.93146244 -6.625 30 C-10.67037506 30.68857448 -12.14559062 30.32640639 -15.5625 28 C-17.625 25 -17.625 25 -17.9375 21.5 C-16.51507895 14.26360552 -11.35859645 6.5737862 -6.0859375 1.609375 C-3.625 0 -3.625 0 0 0 Z " fill="#000000" transform="translate(341.625,102)"/>
<path d="M0 0 C2.05219502 2.00089015 3.42834943 3.65672581 5 6 C5.53109375 6.77214844 6.0621875 7.54429688 6.609375 8.33984375 C9.98822375 13.56096955 12.32061918 17.69448944 12 24 C9.60220738 27.48769835 8.17642926 28.77941951 4 29.5625 C-0.16633189 28.78131277 -2.69481927 26.85698921 -5.15087891 23.36254883 C-6.27344192 21.48010088 -7.30338 19.57047613 -8.3125 17.625 C-8.67150391 16.97789063 -9.03050781 16.33078125 -9.40039062 15.6640625 C-11.53037045 11.63941491 -12.54584328 8.66013697 -12 4 C-9.06069867 -1.17876901 -5.5190538 -1.65571614 0 0 Z " fill="#000000" transform="translate(176,103)"/>
<path d="M0 0 C2.57424474 2.95561433 2.75327694 5.05666068 2.6875 8.9375 C-1.19070343 15.83208388 -9.17153288 20.10608857 -16.47265625 22.70703125 C-19.57575255 23.32765051 -21.31375344 22.93692778 -24.1875 21.625 C-26.3125 19.9375 -26.3125 19.9375 -27.3125 17.9375 C-27.70594372 14.3965065 -27.6999432 12.54148413 -25.75390625 9.5078125 C-22.77716435 6.37389863 -19.74355848 4.59920553 -15.9375 2.625 C-15.29039062 2.26599609 -14.64328125 1.90699219 -13.9765625 1.53710938 C-9.24714858 -0.96585666 -5.15542223 -2.36870751 0 0 Z " fill="#000000" transform="translate(407.3125,165.0625)"/>
<path d="M0 0 C2.88162915 1.16506841 5.51150939 2.67646819 8.1875 4.25 C8.89841797 4.64574219 9.60933594 5.04148438 10.34179688 5.44921875 C13.94196503 7.51516661 16.94894649 9.25392491 19 13 C19.4112874 16.29029921 19.32431433 18.2941394 17.9375 21.3125 C15.78261454 23.18933572 14.02407109 24.02715881 11.16015625 24.30078125 C6.2739959 23.62042981 2.11032414 20.57282733 -2 18 C-2.63808594 17.61972656 -3.27617188 17.23945313 -3.93359375 16.84765625 C-6.95833175 14.96945236 -9.43018791 13.23196607 -11 10 C-10.93416738 6.24754049 -10.81598805 3.93687517 -8.3125 1.0625 C-5.22238287 -0.35728354 -3.40707404 -0.33596438 0 0 Z " fill="#000000" transform="translate(113,164)"/>
</svg>
