<svg width="348" height="424" viewBox="0 0 348 424" fill="none" xmlns="http://www.w3.org/2000/svg">
<g clip-path="url(#clip0_189_37)">
<path d="M335.431 423.999H0.41688C0.186694 423.999 0 423.734 0 423.405C0 423.075 0.186694 422.81 0.41688 422.81H335.431C335.661 422.81 335.847 423.075 335.847 423.405C335.847 423.734 335.661 423.999 335.431 423.999Z" fill="#CBCBCB"/>
<path d="M244.53 100.673H242.201V36.9066C242.201 32.06 241.246 27.2609 239.39 22.7832C237.534 18.3055 234.814 14.237 231.385 10.8099C227.956 7.38281 223.885 4.66427 219.404 2.80951C214.924 0.954741 210.122 6.96061e-05 205.272 0L70.0876 0C60.2934 0.000140573 50.9003 3.88849 43.9747 10.8097C37.0492 17.7309 33.1583 27.118 33.1582 36.906V386.736C33.1582 396.524 37.049 405.912 43.9746 412.833C50.9001 419.754 60.2933 423.643 70.0876 423.643H205.272C215.066 423.643 224.46 419.754 231.385 412.833C238.311 405.912 242.202 396.524 242.202 386.736V146.063H244.531L244.53 100.673Z" fill="black"/>
<path d="M234.342 37.1652V386.479C234.345 390.095 233.636 393.676 232.254 397.019C230.872 400.361 228.845 403.399 226.289 405.958C223.732 408.517 220.696 410.549 217.354 411.935C214.013 413.322 210.43 414.038 206.811 414.041H70.9275C67.3083 414.044 63.7239 413.334 60.3792 411.952C57.0344 410.57 53.9948 408.543 51.4337 405.988C48.8727 403.432 46.8405 400.397 45.4531 397.056C44.0657 393.716 43.3502 390.135 43.3477 386.518V37.1652C43.3451 33.5482 44.0554 29.9662 45.438 26.6235C46.8207 23.2809 48.8486 20.2432 51.406 17.6838C53.9634 15.1244 57.0001 13.0934 60.3429 11.7069C63.6857 10.3204 67.269 9.6054 70.8883 9.60283H87.4049C86.5933 11.591 86.2835 13.7482 86.5027 15.8842C86.722 18.0203 87.4636 20.0696 88.6623 21.8517C89.8609 23.6338 91.4797 25.0939 93.3761 26.1034C95.2725 27.1128 97.3882 27.6406 99.5369 27.6403H176.986C179.134 27.6406 181.25 27.1128 183.147 26.1034C185.043 25.0939 186.662 23.6338 187.86 21.8517C189.059 20.0696 189.801 18.0203 190.02 15.8842C190.239 13.7482 189.929 11.591 189.118 9.60283H206.762C210.381 9.59955 213.964 10.3086 217.309 11.6895C220.653 13.0703 223.693 15.096 226.254 17.6507C228.815 20.2055 230.847 23.2394 232.235 26.5791C233.623 29.9189 234.339 33.4991 234.342 37.1154V37.1652Z" fill="white"/>
<path d="M343.968 252.528C341.644 249.762 338.861 247.882 336.361 247.159L306.969 213.953C306.969 213.953 304.514 183.043 302.55 172.248C300.586 161.454 287.328 164.398 287.328 164.398L288.801 195.308L297.151 228.672L331.545 257.854C332.177 259.003 332.92 260.087 333.764 261.09C337.948 266.073 343.625 268.193 346.443 265.827C349.261 263.462 348.153 257.508 343.969 252.528H343.968Z" fill="#9F616A"/>
<path d="M202.779 252.528C205.103 249.762 207.886 247.882 210.385 247.159L239.777 213.953C239.777 213.953 242.232 183.043 244.196 172.248C246.16 161.454 259.418 164.398 259.418 164.398L257.945 195.308L249.598 228.672L215.204 257.854C214.573 259.003 213.829 260.087 212.986 261.09C208.802 266.073 203.125 268.193 200.307 265.827C197.489 263.462 198.596 257.508 202.781 252.528H202.779Z" fill="#9F616A"/>
<path d="M270.008 160.228L272.404 147.129L281.738 146.492L284.531 164.55L270.008 160.228Z" fill="#9F616A"/>
<path d="M233.53 374.832L221.09 374.122L222.722 412.278L231.152 412.76L233.53 374.832Z" fill="#9F616A"/>
<path d="M221.145 400.214L226.13 402.183L226.124 404.8C226.124 404.8 227.326 401.771 233.78 401.11L234.551 403.647C234.551 403.647 237.054 406.139 236.624 410.638L234.98 422.692L230.113 422.595L229.327 414.207C229.327 414.207 227.986 412.303 221.81 421.348C221.81 421.348 215.007 422.832 204.472 419.773C203.802 419.621 203.202 419.253 202.762 418.726C202.322 418.2 202.067 417.543 202.037 416.858C202.019 416.458 202.154 416.067 202.412 415.762C202.671 415.456 203.036 415.26 203.433 415.211C206.123 414.595 208.75 415.376 210.487 413.515C212.225 411.654 221.145 400.214 221.145 400.214Z" fill="#2F2E41"/>
<path d="M300.298 374.832L287.857 374.122L289.489 412.278L297.919 412.76L300.298 374.832Z" fill="#9F616A"/>
<path d="M288.079 401.52L293.061 403.489L293.054 406.106C293.054 406.106 294.256 403.077 300.707 402.417L301.477 404.954C301.477 404.954 303.978 407.445 303.549 411.944L301.905 423.999L297.041 423.902L296.255 415.513C296.255 415.513 294.915 413.61 288.742 422.655C288.742 422.655 281.942 424.139 271.412 421.08C270.743 420.927 270.143 420.559 269.703 420.033C269.263 419.506 269.009 418.85 268.978 418.165C268.961 417.765 269.095 417.374 269.354 417.068C269.612 416.763 269.977 416.567 270.374 416.518C273.063 415.902 275.688 416.683 277.424 414.822C279.161 412.961 288.079 401.52 288.079 401.52Z" fill="#2F2E41"/>
<path d="M277.662 154.843C285.797 154.843 292.391 148.253 292.391 140.124C292.391 131.995 285.797 125.405 277.662 125.405C269.528 125.405 262.934 131.995 262.934 140.124C262.934 148.253 269.528 154.843 277.662 154.843Z" fill="#9F616A"/>
<path d="M286.013 142.571C286.013 142.571 279.538 131.982 273.055 133.151C269.73 133.709 266.437 134.452 263.194 135.377C263.194 135.377 260.554 126.934 269.417 122.884C269.417 122.884 259.87 119.538 273.235 112.803C286.601 106.069 294.919 112.596 294.919 112.596C294.919 112.596 302.99 114.822 290.724 123.501C290.724 123.501 301.34 135.586 290.618 147.131C290.618 147.131 292.511 138.341 289.936 140.143C288.693 141.053 287.382 141.865 286.014 142.573L286.013 142.571Z" fill="#2F2E41"/>
<path d="M287.577 161.209L267.448 158.756L251.983 171.265C251.983 171.265 244.293 192.682 250.021 205.612C250.158 205.922 250.267 227.446 250.267 227.446H293.032C293.032 227.446 292.99 212.795 294.623 207.49C294.767 206.892 295.043 206.334 295.431 205.858C297.885 203.405 303.777 187.704 300.831 180.835C297.885 173.966 287.577 161.209 287.577 161.209Z" fill="#6C63FF"/>
<path d="M250.019 226.464L223.016 312.326L217.125 380.035H233.572L247.564 317.235L266.836 280.879L285.861 384.941H302.462L302.062 244.127L292.999 226.464H250.019Z" fill="#2F2E41"/>
<path d="M272.936 332.043C309.402 332.043 338.964 302.5 338.964 266.057C338.964 229.614 309.402 200.071 272.936 200.071C236.47 200.071 206.908 229.614 206.908 266.057C206.908 302.5 236.47 332.043 272.936 332.043Z" fill="#090814"/>
<path d="M272.936 330.081C308.318 330.081 337.001 301.416 337.001 266.056C337.001 230.697 308.318 202.032 272.936 202.032C237.554 202.032 208.871 230.697 208.871 266.056C208.871 301.416 237.554 330.081 272.936 330.081Z" fill="#F2F2F2"/>
<path d="M291.198 303.536H254.675C252.714 303.51 250.845 302.708 249.475 301.306C248.106 299.904 247.348 298.017 247.37 296.058V288.58C247.37 274.148 258.839 262.407 272.934 262.407C287.029 262.407 298.498 274.148 298.498 288.58V296.058C298.519 298.016 297.763 299.903 296.394 301.305C295.026 302.707 293.157 303.509 291.198 303.536ZM272.934 269.885C262.864 269.885 254.672 278.271 254.672 288.58V296.058H291.202L291.198 288.58C291.198 278.271 283.005 269.885 272.934 269.885Z" fill="#006A10"/>
<path d="M254.675 228.577H291.198C293.158 228.603 295.028 229.405 296.397 230.807C297.767 232.209 298.524 234.097 298.503 236.056V243.534C298.503 257.966 287.034 269.707 272.938 269.707C258.843 269.707 247.37 257.966 247.37 243.534V236.056C247.348 234.097 248.105 232.209 249.475 230.807C250.844 229.405 252.714 228.603 254.675 228.577ZM272.934 262.229C283.004 262.229 291.196 253.842 291.196 243.534V236.056H254.67L254.675 243.534C254.675 253.843 262.866 262.229 272.934 262.229Z" fill="#006A10"/>
<path d="M252.562 249.492H292.329L289.482 260.736L272.611 263.603L254.943 260.547L252.562 249.492Z" fill="#006A10"/>
<path d="M252.562 299.889H292.329L291.451 292.252L272.898 287.155L253.788 292.252L252.562 299.889Z" fill="#006A10"/>
<path d="M138.846 200.592C175.312 200.592 204.874 171.049 204.874 134.606C204.874 98.1626 175.312 68.6197 138.846 68.6197C102.38 68.6197 72.8184 98.1626 72.8184 134.606C72.8184 171.049 102.38 200.592 138.846 200.592Z" fill="#006A10"/>
<path d="M187.756 232.69H90.1658C85.479 232.69 81.6797 236.487 81.6797 241.171V247.531C81.6797 252.215 85.479 256.012 90.1658 256.012H187.756C192.443 256.012 196.242 252.215 196.242 247.531V241.171C196.242 236.487 192.443 232.69 187.756 232.69Z" fill="#F2F2F2"/>
<path d="M189.612 271.383H88.3095C84.6479 271.383 81.6797 274.35 81.6797 278.009C81.6797 281.668 84.6479 284.635 88.3095 284.635H189.612C193.274 284.635 196.242 281.668 196.242 278.009C196.242 274.35 193.274 271.383 189.612 271.383Z" fill="#F2F2F2"/>
<path d="M189.612 290.995H88.3095C84.6479 290.995 81.6797 293.961 81.6797 297.621C81.6797 301.28 84.6479 304.246 88.3095 304.246H189.612C193.274 304.246 196.242 301.28 196.242 297.621C196.242 293.961 193.274 290.995 189.612 290.995Z" fill="#F2F2F2"/>
</g>
<defs>
<clipPath id="clip0_189_37">
<rect width="348" height="424" fill="white"/>
</clipPath>
</defs>
</svg>
