
<svg viewBox="0 0 512 512"  version="1.1" xmlns="http://www.w3.org/2000/svg" width="512" height="512">
<path d="M0 0 C4.16347012 3.4964018 8.08707008 7.22822917 12 11 C12.71800781 11.65484375 13.43601563 12.3096875 14.17578125 12.984375 C20.46536293 18.88322115 25.23469978 25.86116307 30 33 C30.63035156 33.93457031 31.26070312 34.86914062 31.91015625 35.83203125 C49.23044184 63.41034475 53.95913247 99.78984875 46.83911133 131.37744141 C40.84333447 155.12223889 28.91829939 175.44853072 12 193 C11.34515625 193.71800781 10.6903125 194.43601563 10.015625 195.17578125 C4.11677885 201.46536293 -2.86116307 206.23469978 -10 211 C-10.93457031 211.63035156 -11.86914062 212.26070312 -12.83203125 212.91015625 C-40.41034475 230.23044184 -76.78984875 234.95913247 -108.37744141 227.83911133 C-132.12223889 221.84333447 -152.44853072 209.91829939 -170 193 C-171.07701172 192.01773438 -171.07701172 192.01773438 -172.17578125 191.015625 C-178.46536293 185.11677885 -183.23469978 178.13883693 -188 171 C-188.63035156 170.06542969 -189.26070312 169.13085938 -189.91015625 168.16796875 C-207.23044184 140.58965525 -211.95913247 104.21015125 -204.83911133 72.62255859 C-198.84333447 48.87776111 -186.91829939 28.55146928 -170 11 C-169.34515625 10.28199219 -168.6903125 9.56398437 -168.015625 8.82421875 C-162.11677885 2.53463707 -155.13883693 -2.23469978 -148 -7 C-147.06542969 -7.63035156 -146.13085938 -8.26070312 -145.16796875 -8.91015625 C-101.47012457 -36.35415281 -40.12596623 -31.83598863 0 0 Z M-111 -4 C-111.6791748 -3.79101074 -112.35834961 -3.58202148 -113.05810547 -3.36669922 C-142.28740085 5.8690663 -164.68354042 27.1988238 -178.8125 53.9375 C-190.59228129 78.49723269 -193.27312082 107.93808453 -185 134 C-184.68651611 135.01876221 -184.68651611 135.01876221 -184.36669922 136.05810547 C-176.85933133 159.81737837 -160.26836569 181.86561743 -139 195 C-137.70449219 195.85464844 -137.70449219 195.85464844 -136.3828125 196.7265625 C-112.84043677 211.53021705 -82.38307514 216.49674492 -55.25 210.375 C-52.46819003 209.67272779 -49.7342529 208.86796401 -47 208 C-46.3208252 207.79101074 -45.64165039 207.58202148 -44.94189453 207.36669922 C-21.18262163 199.85933133 0.86561743 183.26836569 14 162 C14.85464844 160.70449219 14.85464844 160.70449219 15.7265625 159.3828125 C30.53021705 135.84043677 35.49674492 105.38307514 29.375 78.25 C28.67272779 75.46819003 27.86796401 72.7342529 27 70 C26.68651611 68.98123779 26.68651611 68.98123779 26.36669922 67.94189453 C17.1309337 38.71259915 -4.1988238 16.31645958 -30.9375 2.1875 C-55.49723269 -9.59228129 -84.93808453 -12.27312082 -111 -4 Z " fill="#000000" transform="translate(207,26)"/>
<path d="M0 0 C3.45521463 2.88338388 6.75001871 5.88843359 10 9 C10.74636719 9.68320312 11.49273437 10.36640625 12.26171875 11.0703125 C18.88236958 17.33277804 23.97963336 24.44348262 29 32 C29.6290625 32.93328125 30.258125 33.8665625 30.90625 34.828125 C48.23601593 62.39820716 52.95805078 98.79464759 45.83911133 130.37744141 C39.84333447 154.12223889 27.91829939 174.44853072 11 192 C10.34515625 192.71800781 9.6903125 193.43601562 9.015625 194.17578125 C3.11677885 200.46536293 -3.86116307 205.23469978 -11 210 C-11.93457031 210.63035156 -12.86914062 211.26070312 -13.83203125 211.91015625 C-41.41034475 229.23044184 -77.78984875 233.95913247 -109.37744141 226.83911133 C-133.12223889 220.84333447 -153.44853072 208.91829939 -171 192 C-172.07701172 191.01773438 -172.07701172 191.01773438 -173.17578125 190.015625 C-179.46536293 184.11677885 -184.23469978 177.13883693 -189 170 C-189.63035156 169.06542969 -190.26070313 168.13085938 -190.91015625 167.16796875 C-208.23044184 139.58965525 -212.95913247 103.21015125 -205.83911133 71.62255859 C-199.84333447 47.87776111 -187.91829939 27.55146928 -171 10 C-170.34515625 9.28199219 -169.6903125 8.56398438 -169.015625 7.82421875 C-163.11677885 1.53463707 -156.13883693 -3.23469978 -149 -8 C-148.06542969 -8.63035156 -147.13085938 -9.26070313 -146.16796875 -9.91015625 C-101.51354417 -37.95492362 -40.6570982 -32.25220595 0 0 Z M-112 -5 C-112.6791748 -4.79101074 -113.35834961 -4.58202148 -114.05810547 -4.36669922 C-143.28740085 4.8690663 -165.68354042 26.1988238 -179.8125 52.9375 C-191.59228129 77.49723269 -194.27312082 106.93808453 -186 133 C-185.68651611 134.01876221 -185.68651611 134.01876221 -185.36669922 135.05810547 C-177.85933133 158.81737837 -161.26836569 180.86561743 -140 194 C-138.70449219 194.85464844 -138.70449219 194.85464844 -137.3828125 195.7265625 C-113.84043677 210.53021705 -83.38307514 215.49674492 -56.25 209.375 C-53.46819003 208.67272779 -50.7342529 207.86796401 -48 207 C-47.3208252 206.79101074 -46.64165039 206.58202148 -45.94189453 206.36669922 C-22.18262163 198.85933133 -0.13438257 182.26836569 13 161 C13.85464844 159.70449219 13.85464844 159.70449219 14.7265625 158.3828125 C29.53021705 134.84043677 34.49674492 104.38307514 28.375 77.25 C27.67272779 74.46819003 26.86796401 71.7342529 26 69 C25.68651611 67.98123779 25.68651611 67.98123779 25.36669922 66.94189453 C16.1309337 37.71259915 -5.1988238 15.31645958 -31.9375 1.1875 C-56.49723269 -10.59228129 -85.93808453 -13.27312082 -112 -5 Z " fill="#000000" transform="translate(464,283)"/>
<path d="M0 0 C3.47786712 2.98102896 5.41569329 5.49077336 5.96557617 10.11254883 C5.94986572 11.13372803 5.93415527 12.15490723 5.91796875 13.20703125 C5.90830078 14.31884766 5.89863281 15.43066406 5.88867188 16.57617188 C5.86353516 17.72666016 5.83839844 18.87714844 5.8125 20.0625 C5.79219727 21.81723633 5.79219727 21.81723633 5.77148438 23.60742188 C5.73620278 26.488752 5.6869028 29.36913904 5.625 32.25 C6.92308594 32.21648437 8.22117187 32.18296875 9.55859375 32.1484375 C14.43160221 32.15414917 18.93703358 32.83726708 23.6875 33.875 C24.50895508 34.05321289 25.33041016 34.23142578 26.17675781 34.41503906 C56.98242267 41.4417268 83.9302707 60.00514741 100.875 86.75 C111.74110563 105.06100177 116.99384085 124.29946194 116.9375 145.5625 C116.95361328 146.79806641 116.96972656 148.03363281 116.98632812 149.30664062 C116.98697266 150.50095703 116.98761719 151.69527344 116.98828125 152.92578125 C116.99126221 153.99739502 116.99424316 155.06900879 116.99731445 156.1730957 C116.47510081 160.48880622 114.90111512 163.82664083 112 167.0625 C108.31528698 168.90485651 104.72767993 169.36416153 100.625 169.25 C95.31091956 167.44521796 92.35928266 164.43589479 89.68432617 159.52197266 C88.72535139 157.56630631 87.79744229 155.59814485 86.875 153.625 C83.46725304 146.58194771 79.53008239 140.37104819 74.625 134.25 C74.13515625 133.60804688 73.6453125 132.96609375 73.140625 132.3046875 C56.67827231 111.68050408 30.44262579 104.73149448 5.625 101.25 C5.65118408 101.94037354 5.67736816 102.63074707 5.7043457 103.34204102 C5.80888588 106.49862513 5.87350582 109.65484417 5.9375 112.8125 C5.97939453 113.89853516 6.02128906 114.98457031 6.06445312 116.10351562 C6.17277938 123.23138332 5.56754362 126.9976468 0.625 132.25 C-4.14408638 135.24236793 -8.30405788 135.85004066 -13.78125 135.06640625 C-18.90681309 133.45308895 -22.458305 129.79773098 -26.375 126.25 C-27.95759911 124.89442549 -29.55155082 123.55309548 -31.14697266 122.21264648 C-32.82219837 120.80434694 -34.48955326 119.38712699 -36.15625 117.96875 C-39.01246831 115.54673115 -41.90492904 113.17276348 -44.8125 110.8125 C-49.05892946 107.35725391 -53.22784488 103.82289051 -57.375 100.25 C-64.18683155 94.3844872 -71.0511783 88.58344913 -78.171875 83.09375 C-79.06390625 82.4028125 -79.9559375 81.711875 -80.875 81 C-81.6690625 80.39671875 -82.463125 79.7934375 -83.28125 79.171875 C-86.49381142 76.22303131 -88.15969108 73.69121196 -88.80859375 69.34765625 C-88.82203491 58.90387374 -88.82203491 58.90387374 -84.375 54.25 C-81.8030291 52.00731257 -79.17875174 49.85749972 -76.50390625 47.73828125 C-73.235677 45.13920256 -70.05092997 42.4600326 -66.875 39.75 C-62.90669536 36.37632893 -58.91480362 33.03821225 -54.875 29.75 C-50.88206519 26.49778353 -46.92852561 23.20435816 -43 19.875 C-42.46036621 19.41786621 -41.92073242 18.96073242 -41.36474609 18.48974609 C-38.53948618 16.09359715 -35.72028521 13.69057004 -32.90625 11.28125 C-12.26413112 -6.3591791 -12.26413112 -6.3591791 0 0 Z M-19.75 24.6875 C-24.96782497 29.19998057 -30.24211936 33.62374009 -35.59765625 37.97265625 C-38.71896401 40.53204081 -41.79948883 43.13595083 -44.875 45.75 C-49.86578763 49.99076551 -54.90580089 54.16515876 -59.984375 58.30078125 C-62.79938365 60.59602523 -65.59092616 62.91739759 -68.375 65.25 C-66.81608354 69.40388298 -63.77780165 71.71918555 -60.4375 74.4375 C-59.85484375 74.92089844 -59.2721875 75.40429688 -58.671875 75.90234375 C-56.91228128 77.359088 -55.14501598 78.80594636 -53.375 80.25 C-52.43527344 81.01957031 -51.49554688 81.78914063 -50.52734375 82.58203125 C-48.74889833 84.0356943 -46.96893138 85.48749772 -45.1875 86.9375 C-42.05699687 89.51146924 -38.96351449 92.1259647 -35.875 94.75 C-31.74753666 98.25159003 -27.61007683 101.73960409 -23.4375 105.1875 C-22.60347656 105.87714844 -21.76945312 106.56679687 -20.91015625 107.27734375 C-18.14623634 109.42800562 -15.30955395 111.34061773 -12.375 113.25 C-12.36041748 112.5794458 -12.34583496 111.9088916 -12.33081055 111.21801758 C-12.256117 108.16561178 -12.15952701 105.11427415 -12.0625 102.0625 C-12.03994141 101.00740234 -12.01738281 99.95230469 -11.99414062 98.86523438 C-11.95869141 97.84365234 -11.92324219 96.82207031 -11.88671875 95.76953125 C-11.84744263 94.36344604 -11.84744263 94.36344604 -11.80737305 92.92895508 C-11.25064174 89.4794844 -9.86482221 86.73982221 -7.375 84.25 C21.75670884 81.60020289 53.02615977 90.44214865 75.625 109.25 C83.16363398 115.94308449 90.04581847 123.02770552 95.48828125 131.5546875 C95.86339844 132.11414063 96.23851562 132.67359375 96.625 133.25 C96.955 133.25 97.285 133.25 97.625 133.25 C97.53638287 112.33635644 84.74256203 92.82282354 70.875 78.0625 C53.81407783 61.82379094 31.07646591 51.86381245 7.67578125 49.796875 C6.77633789 49.71590576 5.87689453 49.63493652 4.95019531 49.55151367 C3.13171119 49.39418812 1.31196405 49.25074316 -0.50878906 49.12231445 C-1.77094238 49.01729614 -1.77094238 49.01729614 -3.05859375 48.91015625 C-3.81712646 48.85480713 -4.57565918 48.79945801 -5.35717773 48.74243164 C-7.86630419 48.13010157 -8.79227466 47.26554617 -10.375 45.25 C-11.36955909 42.26632274 -11.57059632 40.0495808 -11.69140625 36.92578125 C-11.73330078 35.89775391 -11.77519531 34.86972656 -11.81835938 33.81054688 C-11.85767578 32.73869141 -11.89699219 31.66683594 -11.9375 30.5625 C-11.98068359 29.47904297 -12.02386719 28.39558594 -12.06835938 27.27929688 C-12.17446838 24.60299209 -12.27652361 21.92659474 -12.375 19.25 C-14.84093194 19.25 -17.86185524 23.04206385 -19.75 24.6875 Z " fill="#000000" transform="translate(361.375,61.75)"/>
<path d="M0 0 C0.73863281 0.04382813 1.47726563 0.08765625 2.23828125 0.1328125 C6.43001243 1.40303407 9.46064482 3.9676341 11.80151367 7.60693359 C12.81315392 9.54517253 13.73013119 11.50526728 14.625 13.5 C15.30683958 14.93307137 15.99307126 16.36406096 16.68359375 17.79296875 C17.01987793 18.4895459 17.35616211 19.18612305 17.70263672 19.90380859 C28.36742125 41.24924 47.43629529 54.96257 69.58203125 62.625 C78.37924932 65.44686875 87.56640769 66.59546453 96.6875 67.875 C96.64822388 66.8394397 96.64822388 66.8394397 96.6081543 65.78295898 C96.50361412 62.62637487 96.43899418 59.47015583 96.375 56.3125 C96.33310547 55.22646484 96.29121094 54.14042969 96.24804688 53.02148438 C96.13972062 45.89361668 96.74495638 42.1273532 101.6875 36.875 C106.45658638 33.88263207 110.61655788 33.27495934 116.09375 34.05859375 C121.21931309 35.67191105 124.770805 39.32726902 128.6875 42.875 C130.27009911 44.23057451 131.86405082 45.57190452 133.45947266 46.91235352 C135.13469837 48.32065306 136.80205326 49.73787301 138.46875 51.15625 C141.32496831 53.57826885 144.21742904 55.95223652 147.125 58.3125 C151.37142946 61.76774609 155.54034488 65.30210949 159.6875 68.875 C166.49933155 74.7405128 173.3636783 80.54155087 180.484375 86.03125 C181.37640625 86.7221875 182.2684375 87.413125 183.1875 88.125 C183.9815625 88.72828125 184.775625 89.3315625 185.59375 89.953125 C188.80631142 92.90196869 190.47219108 95.43378804 191.12109375 99.77734375 C191.13453491 110.22112626 191.13453491 110.22112626 186.6875 114.875 C184.1155291 117.11768743 181.49125174 119.26750028 178.81640625 121.38671875 C175.54817916 123.98579573 172.36339462 126.66492841 169.1875 129.375 C165.2417216 132.730301 161.27105234 136.04724017 157.25 139.3125 C153.0035668 142.76774914 148.83473388 146.302197 144.6875 149.875 C139.56109629 154.28748593 134.41162531 158.66311107 129.13671875 162.8984375 C127.59335375 164.14396013 126.07132634 165.41686701 124.58203125 166.7265625 C120.3114308 170.3237549 116.77750716 171.87164586 111.1484375 172.10546875 C105.69051211 171.59432971 102.18174119 169.46164127 98.4765625 165.52734375 C95.37265713 160.61896458 96.27387147 154.57595674 96.4375 149 C96.45554687 147.8346875 96.47359375 146.669375 96.4921875 145.46875 C96.5391618 142.60331751 96.60483707 139.73958832 96.6875 136.875 C95.38941406 136.90851563 94.09132813 136.94203125 92.75390625 136.9765625 C87.88089779 136.97085083 83.37546642 136.28773292 78.625 135.25 C77.80354492 135.07178711 76.98208984 134.89357422 76.13574219 134.70996094 C45.40965248 127.70142407 18.6437291 109.22557815 1.5625 82.6875 C-9.36891651 64.26523234 -14.47464955 45.31051024 -14.5625 23.875 C-14.583125 22.616875 -14.60375 21.35875 -14.625 20.0625 C-14.63015625 18.845625 -14.6353125 17.62875 -14.640625 16.375 C-14.6499707 15.2715625 -14.65931641 14.168125 -14.66894531 13.03125 C-14.1604064 8.52824242 -12.68763006 5.12121162 -9.3125 2.0625 C-6.09814275 0.15397538 -3.65525023 -0.29039985 0 0 Z M4.6875 35.875 C4.77611713 56.78864356 17.56993797 76.30217646 31.4375 91.0625 C48.49842217 107.30120906 71.23603409 117.26118755 94.63671875 119.328125 C95.53616211 119.40909424 96.43560547 119.49006348 97.36230469 119.57348633 C99.18078881 119.73081188 101.00053595 119.87425684 102.82128906 120.00268555 C103.66272461 120.07269775 104.50416016 120.14270996 105.37109375 120.21484375 C106.12962646 120.27019287 106.88815918 120.32554199 107.66967773 120.38256836 C110.17880419 120.99489843 111.10477466 121.85945383 112.6875 123.875 C113.68205909 126.85867726 113.88309632 129.0754192 114.00390625 132.19921875 C114.04580078 133.22724609 114.08769531 134.25527344 114.13085938 135.31445312 C114.17017578 136.38630859 114.20949219 137.45816406 114.25 138.5625 C114.29318359 139.64595703 114.33636719 140.72941406 114.38085938 141.84570312 C114.48696838 144.52200791 114.58902361 147.19840526 114.6875 149.875 C119.60023241 146.2557942 124.37647776 142.54386637 129 138.5625 C133.02846031 135.12288656 137.07728415 131.71717552 141.1875 128.375 C145.78235803 124.63499927 150.30877494 120.82142212 154.82299805 116.98510742 C160.0553727 112.5461119 165.35973292 108.19913961 170.6875 103.875 C169.12858354 99.72111702 166.09030165 97.40581445 162.75 94.6875 C162.16734375 94.20410156 161.5846875 93.72070312 160.984375 93.22265625 C159.22478128 91.765912 157.45751598 90.31905364 155.6875 88.875 C154.27791016 87.72064453 154.27791016 87.72064453 152.83984375 86.54296875 C151.06139833 85.0893057 149.28143138 83.63750228 147.5 82.1875 C144.36949687 79.61353076 141.27601449 76.9990353 138.1875 74.375 C134.06003666 70.87340997 129.92257683 67.38539591 125.75 63.9375 C124.91597656 63.24785156 124.08195312 62.55820312 123.22265625 61.84765625 C120.45873634 59.69699438 117.62205395 57.78438227 114.6875 55.875 C114.67291748 56.5455542 114.65833496 57.2161084 114.64331055 57.90698242 C114.568617 60.95938822 114.47202701 64.01072585 114.375 67.0625 C114.35244141 68.11759766 114.32988281 69.17269531 114.30664062 70.25976562 C114.2534668 71.79213867 114.2534668 71.79213867 114.19921875 73.35546875 C114.17303467 74.29285889 114.14685059 75.23024902 114.11987305 76.19604492 C113.56314174 79.6455156 112.17732221 82.38517779 109.6875 84.875 C81.14334006 87.657643 50.94256724 78.94066645 28.33789062 61.24853516 C20.08731718 54.38200761 12.60902547 46.63366207 6.82421875 37.5703125 C6.26154297 36.73113281 6.26154297 36.73113281 5.6875 35.875 C5.3575 35.875 5.0275 35.875 4.6875 35.875 Z " fill="#000000" transform="translate(48.3125,281.125)"/>
<path d="M0 0 C2.69990662 1.79993774 4.5418865 3.083773 6 6 C6.07065617 8.04055005 6.08421976 10.08334257 6.0625 12.125 C6.05347656 13.22070312 6.04445312 14.31640625 6.03515625 15.4453125 C6.02355469 16.28835937 6.01195312 17.13140625 6 18 C7.216875 18.061875 8.43375 18.12375 9.6875 18.1875 C23.69447601 19.79775078 34.33542087 27.16995494 43.265625 37.671875 C46.86328655 42.50116843 48.96308855 46.74840142 49.0625 52.8125 C47.74698895 56.75903316 46.64807189 58.01735223 43 60 C39.5 60.5625 39.5 60.5625 36 60 C32.67382471 57.46577121 30.72027555 54.60678104 28.625 51.0625 C23.13277304 42.08904611 17.56194727 40.52064909 7 37 C7 50.53 7 64.06 7 78 C12.28 79.32 17.56 80.64 23 82 C32.68671671 86.19136781 41.84666587 90.80354539 46.2578125 100.89453125 C50.09113447 111.76906041 49.68812578 121.37273913 45 132 C37.83115769 142.52695581 27.25505422 149.76750744 15 153 C11.97429437 153.51743951 9.06942928 153.79872595 6 154 C6.04640625 154.80824219 6.0928125 155.61648437 6.140625 156.44921875 C6.43805613 165.25530459 6.43805613 165.25530459 4.125 169.1875 C1.59057576 171.34921479 0.51034861 171.9432946 -2.8125 172.3125 C-6.7307645 171.92835642 -8.21293267 170.70743683 -11 168 C-12.38226016 165.23547967 -12.09525387 162.9538637 -12.0625 159.875 C-12.05347656 158.77929688 -12.04445312 157.68359375 -12.03515625 156.5546875 C-12.02355469 155.71164063 -12.01195312 154.86859375 -12 154 C-13.216875 153.938125 -14.43375 153.87625 -15.6875 153.8125 C-29.69447601 152.20224922 -40.33542087 144.83004506 -49.265625 134.328125 C-52.86328655 129.49883157 -54.96308855 125.25159858 -55.0625 119.1875 C-53.74698895 115.24096684 -52.64807189 113.98264777 -49 112 C-45.5 111.4375 -45.5 111.4375 -42 112 C-38.67382471 114.53422879 -36.72027555 117.39321896 -34.625 120.9375 C-29.13277304 129.91095389 -23.56194727 131.47935091 -13 135 C-12.67 121.14 -12.34 107.28 -12 93 C-15.3 92.67 -18.6 92.34 -22 92 C-24.8038934 91.2154364 -27.37253109 90.42371754 -30.0625 89.375 C-30.75005371 89.10921143 -31.43760742 88.84342285 -32.14599609 88.56958008 C-41.44569004 84.79768391 -48.57231543 79.18556936 -53 70 C-54.06705116 66.68028527 -54.64509245 63.46457372 -55 60 C-55.07089844 59.32066406 -55.14179687 58.64132813 -55.21484375 57.94140625 C-55.71848768 47.92896493 -51.41515699 39.43282245 -45 32 C-36.46217499 23.90500823 -23.82401002 18 -12 18 C-12.04640625 17.19175781 -12.0928125 16.38351563 -12.140625 15.55078125 C-12.43805613 6.74469541 -12.43805613 6.74469541 -10.125 2.8125 C-6.68162399 -0.12449718 -4.50910348 -0.44206897 0 0 Z M-31.65625 45.5625 C-35.36335493 49.47944106 -37.09794802 52.41696286 -37 58 C-36.12587416 62.71307025 -34.6079077 65.41852307 -31.125 68.75 C-25.86372262 72.08779963 -18.2663029 75 -12 75 C-12 62.13 -12 49.26 -12 36 C-18.73182336 36 -26.98673735 41.15729939 -31.65625 45.5625 Z M6 97 C6 109.87 6 122.74 6 136 C16.05026906 132.98491928 24.32685671 130.09659182 30 121 C31.47106885 116.24065959 31.21066455 112.43840583 29.25 107.921875 C24.02821839 99.89338577 14.78853664 99.02812384 6 97 Z " fill="#000000" transform="translate(131,42)"/>
<path d="M0 0 C9.38195441 7.17980123 21.04587056 19.1061194 23.43359375 31.1953125 C23.44069357 34.70262437 23.28715628 36.62669684 21.125 39.4375 C17.58300058 42.04191134 15.41063875 42.43241556 11 42 C6.86094994 39.82699872 5.27354619 36.82715493 3.1875 32.8125 C-2.94979352 21.14387359 -11.3271252 14.62683855 -23.4375 9.5625 C-35.06566662 7.72647369 -45.38476549 8.84084302 -55.1875 15.6875 C-61.86677322 21.16723027 -66.72384486 27.155215 -70.74609375 34.80859375 C-71.36025146 35.97060303 -71.97440918 37.1326123 -72.60717773 38.32983398 C-73.29662476 39.65156616 -73.29662476 39.65156616 -74 41 C-73.05680908 40.97381592 -72.11361816 40.94763184 -71.1418457 40.9206543 C-67.62866855 40.83523078 -64.11660092 40.77265702 -60.6027832 40.7253418 C-59.08470199 40.70025891 -57.56674082 40.6661834 -56.04907227 40.62280273 C-53.86184035 40.56186707 -51.67620961 40.53373105 -49.48828125 40.51171875 C-48.17384033 40.48553467 -46.85939941 40.45935059 -45.50512695 40.43237305 C-41.14169464 41.13899561 -39.71698346 42.59521312 -37 46 C-36.3359375 48.0625 -36.3359375 48.0625 -36.375 50 C-36.35566406 50.9590625 -36.35566406 50.9590625 -36.3359375 51.9375 C-37.42297741 55.31371806 -39.25308516 56.79722823 -42 59 C-44.87479684 59.67088234 -47.64311883 59.58507839 -50.58203125 59.48828125 C-51.80329964 59.47766914 -51.80329964 59.47766914 -53.04924011 59.46684265 C-55.63794643 59.43895598 -58.22445273 59.37623316 -60.8125 59.3125 C-62.57223428 59.2874095 -64.33200263 59.26459764 -66.09179688 59.24414062 C-70.39605096 59.19340684 -74.69557727 59.09555946 -79 59 C-79 64.28 -79 69.56 -79 75 C-76.45925781 74.96519531 -73.91851562 74.93039062 -71.30078125 74.89453125 C-68.83179853 74.87111477 -66.36282833 74.85291014 -63.89379883 74.83520508 C-62.18182816 74.8201466 -60.46989589 74.79969545 -58.75805664 74.77368164 C-56.29303495 74.7371681 -53.82852465 74.72024438 -51.36328125 74.70703125 C-50.22080681 74.68380547 -50.22080681 74.68380547 -49.05525208 74.66011047 C-44.518017 74.65868328 -41.59613583 75.16742431 -38 78 C-36.42101947 81.15796107 -36.18071829 84.60670636 -37 88 C-39.70724215 91.41566439 -41.14098997 92.86089027 -45.50512695 93.56762695 C-46.81956787 93.54144287 -48.13400879 93.51525879 -49.48828125 93.48828125 C-50.19147995 93.48120651 -50.89467865 93.47413177 -51.6191864 93.46684265 C-53.85140227 93.43899212 -56.08105077 93.3762832 -58.3125 93.3125 C-59.83134381 93.28740451 -61.3502272 93.26459352 -62.86914062 93.24414062 C-66.58025248 93.18920007 -70.28987541 93.10299739 -74 93 C-72.93174577 95.05717516 -71.85442699 97.1096445 -70.7734375 99.16015625 C-70.17450684 100.30363525 -69.57557617 101.44711426 -68.95849609 102.62524414 C-63.06713559 112.77686172 -53.93231119 121.20349134 -42.5078125 124.52734375 C-30.71434988 126.75009917 -20.78050178 124.30253773 -10.8125 117.875 C-3.38823172 112.35982928 1.77781939 105.17321461 5.796875 96.91015625 C7.24265697 94.61474267 8.69996807 93.42215715 11 92 C14.91057032 91.59264892 17.71293745 91.76949327 21 94 C23.53066426 97.7959964 23.8040826 100.61738766 23 105 C16.51093229 121.30902568 3.00486546 133.77673726 -12.76171875 140.80859375 C-19.49730379 143.28670405 -25.63565395 144.36657742 -32.8125 144.3125 C-33.60221191 144.30686035 -34.39192383 144.3012207 -35.20556641 144.29541016 C-41.51855981 144.16483216 -47.09972709 143.35292466 -53 141 C-53.96035156 140.62101563 -54.92070312 140.24203125 -55.91015625 139.8515625 C-72.28941627 132.53901545 -83.66698971 118.05483947 -90.90625 102.0078125 C-92.00231478 98.99363435 -92.58313721 96.1738417 -93 93 C-94.09699219 93.05800781 -95.19398438 93.11601562 -96.32421875 93.17578125 C-97.77860314 93.22269688 -99.23303374 93.26819511 -100.6875 93.3125 C-101.40873047 93.35439453 -102.12996094 93.39628906 -102.87304688 93.43945312 C-107.0173679 93.53407233 -108.56089398 93.33335273 -111.984375 90.734375 C-114.9989598 86.64482198 -114.71053702 84.97375912 -114 80 C-112.12984906 77.56880377 -110.71861655 76.35930827 -108 75 C-104.32984725 74.8622315 -100.67388652 74.95728039 -97 75 C-97 69.72 -97 64.44 -97 59 C-99.5678125 59.0928125 -99.5678125 59.0928125 -102.1875 59.1875 C-106.62546121 59.19321166 -109.52004967 59.01595696 -113 56 C-114.57898053 52.84203893 -114.81928171 49.39329364 -114 46 C-112.02136729 43.29239734 -110.49080703 41.30909298 -107.08886719 40.60375977 C-104.93370507 40.50826187 -102.84089615 40.56241443 -100.6875 40.6875 C-99.94693359 40.71005859 -99.20636719 40.73261719 -98.44335938 40.75585938 C-96.62802643 40.8144185 -94.81374319 40.90409114 -93 41 C-92.814375 39.783125 -92.62875 38.56625 -92.4375 37.3125 C-89.99935821 26.46873649 -83.24812816 17.19227311 -76 9 C-75.47019531 8.37609375 -74.94039063 7.7521875 -74.39453125 7.109375 C-55.02630928 -14.12393502 -23.06352227 -15.52094594 0 0 Z " fill="#000000" transform="translate(421,317)"/>
</svg>
