
<svg version="1.1" viewBox='0 0 512 512' xmlns="http://www.w3.org/2000/svg" width="512" height="512">
<path d="M0 0 C1.25933186 -0.00453111 2.51866373 -0.00906223 3.81615716 -0.01373065 C7.3002872 -0.02593288 10.78432102 -0.02570347 14.26846755 -0.02334189 C18.03072367 -0.02293302 21.79294923 -0.03397971 25.55519104 -0.04345703 C32.92235299 -0.06005332 40.28948293 -0.06556598 47.65666201 -0.06668179 C53.64752979 -0.06763302 59.63838703 -0.07174706 65.62925148 -0.07808304 C82.62640811 -0.09569257 99.62353951 -0.10492249 116.62070533 -0.10342209 C117.53657646 -0.10334218 118.45244759 -0.10326227 119.39607239 -0.10317993 C120.77156298 -0.10305729 120.77156298 -0.10305729 122.17484126 -0.10293217 C137.02964412 -0.1021196 151.8843455 -0.12125069 166.73911902 -0.14945666 C182.0036133 -0.17821111 197.26805815 -0.19199552 212.5325802 -0.19026911 C221.09769337 -0.18960604 229.6627002 -0.1950618 238.22778893 -0.21662521 C245.52163123 -0.23487085 252.81531898 -0.23915675 260.10917427 -0.22560637 C263.82718198 -0.21909338 267.54489349 -0.21889846 271.2628727 -0.23631287 C275.30258651 -0.25503873 279.3416198 -0.24244552 283.38134766 -0.22705078 C284.54392174 -0.23733791 285.70649583 -0.24762503 286.90429944 -0.25822389 C301.13961529 -0.13875564 311.91659625 4.98515189 322.25813293 14.57992554 C332.24354943 25.13055429 334.96899991 36.94289788 334.89581299 51.08209229 C334.90389129 52.96880966 334.90389129 52.96880966 334.9121328 54.89364254 C334.92650914 58.35964194 334.9223674 61.82540196 334.91496599 65.29141402 C334.91021711 69.03930972 334.92275932 72.78715491 334.9329834 76.53503418 C334.9501433 83.86771369 334.95101724 91.2003074 334.94577049 98.53300177 C334.94172223 104.4956746 334.94318014 110.45832217 334.94851875 116.4209938 C334.94926718 117.27098549 334.9500156 118.12097718 334.9507867 118.99672619 C334.95231824 120.72371808 334.95385659 122.45070997 334.95540167 124.17770185 C334.96911661 140.35815198 334.96369615 156.53855372 334.95221645 172.71900274 C334.94228568 187.50572089 334.95522382 202.29231389 334.97915065 217.07901274 C335.0035621 232.28032709 335.01314445 247.4815832 335.00649792 262.68291676 C335.00301017 271.20997261 335.00520832 279.73693225 335.02274895 288.26397324 C335.03749657 295.52298342 335.03807305 302.78182962 335.02067804 310.04083668 C335.01218654 313.74063232 335.00997271 317.44013535 335.02532959 321.13991547 C335.04180776 325.15977614 335.02698206 329.17893578 335.00933838 333.1987915 C335.01894339 334.35542828 335.02854839 335.51206506 335.03844446 336.70375144 C334.91052798 350.91844903 329.77558759 361.6918612 320.19563293 372.01742554 C309.63166518 382.01546645 297.81077468 384.72813102 283.65550232 384.65510559 C281.76265961 384.6631839 281.76265961 384.6631839 279.83157766 384.6714254 C276.35417694 384.68580234 272.8770148 384.68165981 269.39960146 384.67425859 C265.63943578 384.66950986 261.87932045 384.68205179 258.11917114 384.692276 C250.76242824 384.7094362 243.40577086 384.71030978 236.04901315 384.7050631 C230.06679419 384.70101489 224.08460042 384.70247268 218.10238266 384.70781136 C217.24961561 384.70855978 216.39684856 384.7093082 215.51824009 384.7100793 C213.7856112 384.71161084 212.05298231 384.71314919 210.32035343 384.71469427 C194.08696823 384.72840932 177.85363127 384.72298868 161.62024717 384.71150906 C146.78503023 384.70157827 131.94993803 384.71451644 117.11474033 384.73844325 C101.86370547 384.76285448 86.61272866 384.77243711 71.36167467 384.76579052 C62.80667326 384.76230273 54.25176775 384.76450125 45.69678116 384.78204155 C38.41398259 384.79678889 31.13134746 384.79736602 23.848552 384.77997064 C20.13660509 384.77147891 16.42494985 384.76926588 12.71301842 384.78462219 C8.68002131 384.80109949 4.647723 384.78627518 0.61473083 384.76863098 C-0.54579689 384.77823599 -1.70632462 384.78784099 -2.90201986 384.79773706 C-17.02329886 384.67106584 -27.9715593 379.66510723 -38.11686707 369.95492554 C-41.44070525 366.46800184 -44.42098169 362.72210807 -47.39421082 358.93539429 C-49.54031826 356.20580139 -51.72730114 353.51453113 -53.92936707 350.82992554 C-54.6808905 349.9134021 -55.43241394 348.99687866 -56.20671082 348.05258179 C-56.96081238 347.13348022 -57.71491394 346.21437866 -58.49186707 345.26742554 C-59.99215023 343.43432392 -61.49215114 341.60099126 -62.99186707 339.76742554 C-63.73436707 338.85992554 -64.47686707 337.95242554 -65.24186707 337.01742554 C-152.99186707 229.76742554 -152.99186707 229.76742554 -155.24577332 227.00961304 C-156.72877758 225.19905827 -158.21568625 223.39169368 -159.70671082 221.58773804 C-163.88418474 216.52190849 -167.98063741 211.40287969 -171.99186707 206.20492554 C-172.64240051 205.36405396 -172.64240051 205.36405396 -173.30607605 204.50619507 C-177.9800024 198.41368285 -178.17663142 193.89046397 -177.49186707 186.26742554 C-176.05436707 183.20492554 -176.05436707 183.20492554 -173.49186707 180.26742554 C-172.09411769 178.53980731 -170.69852844 176.81044053 -169.30436707 175.07992554 C-167.7015396 173.14131752 -166.0973528 171.20383265 -164.49186707 169.26742554 C-162.99046028 167.43524411 -161.49043744 165.60192763 -159.99186707 163.76742554 C-51.99186707 31.76742554 -51.99186707 31.76742554 -49.74186707 29.02914429 C-48.22651321 27.16915266 -46.72672372 25.29638425 -45.24186707 23.41195679 C-32.64890717 7.56144302 -20.34130554 -0.05367614 0 0 Z M-15.86686707 39.57992554 C-16.61065613 40.4680896 -17.35444519 41.35625366 -18.12077332 42.27133179 C-22.67398238 48.02166601 -22.67398238 48.02166601 -27.18791199 53.80282593 C-31.04651572 58.76733484 -35.10013339 63.53839014 -39.2150116 68.29110718 C-42.76686248 72.40014524 -46.20048775 76.58493764 -49.56999207 80.84555054 C-53.15563443 85.36404294 -56.83310401 89.80811261 -60.49186707 94.26742554 C-61.99215023 96.10052715 -63.49215114 97.93385981 -64.99186707 99.76742554 C-82.99186707 121.76742554 -100.99186707 143.76742554 -118.99186707 165.76742554 C-119.73178894 166.67234741 -120.47171082 167.57726929 -121.23405457 168.50961304 C-122.75783595 170.37084082 -124.28393423 172.23017384 -125.81217957 174.08773804 C-127.32507948 175.9288603 -128.83181091 177.77507226 -130.33171082 179.62680054 C-131.75573804 181.36756437 -133.20601227 183.08722859 -134.68327332 184.78305054 C-135.67133972 185.95094116 -135.67133972 185.95094116 -136.67936707 187.14242554 C-137.5668866 188.15949585 -137.5668866 188.15949585 -138.47233582 189.19711304 C-139.74640488 191.25024506 -139.74640488 191.25024506 -139.00749207 193.62289429 C-137.06770612 197.0075208 -134.64668005 199.81625516 -132.05436707 202.70492554 C-127.88337271 207.45382875 -123.85427988 212.26423059 -119.99186707 217.26742554 C-115.74295913 222.75418609 -111.30966019 228.04603261 -106.76799011 233.29208374 C-103.21625193 237.40068436 -99.78299317 241.58525782 -96.41374207 245.84555054 C-92.8280997 250.36404294 -89.15063012 254.80811261 -85.49186707 259.26742554 C-83.9915839 261.10052715 -82.49158299 262.93385981 -80.99186707 264.76742554 C-80.24936707 265.67492554 -79.50686707 266.58242554 -78.74186707 267.51742554 C-61.49186707 288.60075887 -44.24186707 309.6840922 -26.99186707 330.76742554 C-26.25323425 331.6659021 -25.51460144 332.56437866 -24.75358582 333.49008179 C-23.19754913 335.40086259 -21.65939834 337.32630367 -20.13639832 339.26351929 C-13.01184284 348.37531063 -13.01184284 348.37531063 -2.49186707 352.26742554 C-0.79240949 352.35547825 0.90991697 352.39641831 2.61165237 352.3988533 C3.62275865 352.40269445 4.63386492 352.40653559 5.67561078 352.41049314 C7.33128194 352.40919341 7.33128194 352.40919341 9.020401 352.40786743 C10.787504 352.41232412 10.787504 352.41232412 12.59030604 352.41687083 C15.85669704 352.42404261 19.12305597 352.42672949 22.38945365 352.4274683 C25.91377585 352.4293217 29.43808672 352.43687045 32.96240234 352.44360352 C40.66700872 352.45717547 48.37160989 352.46320971 56.07622623 352.46761417 C60.88837608 352.47037838 65.70052393 352.47461604 70.51267242 352.47911835 C83.84019469 352.49130925 97.16771535 352.5016091 110.49524307 352.50499344 C111.34794306 352.505213 112.20064305 352.50543257 113.07918243 352.50565879 C113.93390277 352.50587707 114.7886231 352.50609535 115.66924405 352.50632024 C117.40118488 352.5067637 119.1331257 352.50721027 120.86506653 352.50765991 C122.15371558 352.50799206 122.15371558 352.50799206 123.46839795 352.50833091 C137.3876889 352.51227862 151.3069275 352.5297326 165.22619823 352.55301943 C179.52218894 352.57674319 193.8181534 352.58919575 208.11416411 352.59036136 C216.13872744 352.59127751 224.16322252 352.59701489 232.18776703 352.61518097 C239.02095516 352.63059574 245.85405397 352.63569429 252.68725619 352.62744287 C256.17193176 352.62354129 259.65642751 352.6244417 263.14108086 352.63850021 C266.92351872 352.65119034 270.70549568 352.64535821 274.4879303 352.63491821 C275.58278818 352.64297462 276.67764607 352.65103102 277.80568147 352.65933156 C284.46825888 352.61635188 291.67269289 352.35135555 297.09374738 347.99249387 C303.24206157 341.28395001 302.7982668 333.07436558 302.76882935 324.5526123 C302.77265489 323.37691834 302.77648044 322.20122438 302.78042191 320.98990333 C302.78893684 317.73939404 302.78852523 314.48902964 302.78424132 311.23851657 C302.78177045 307.72785685 302.79079274 304.2172235 302.79827881 300.70657349 C302.8110179 293.83371455 302.81282048 286.9608947 302.81047855 280.08802594 C302.80869431 274.50045073 302.81044729 268.91288737 302.81470299 263.32531357 C302.81559577 262.13167792 302.81559577 262.13167792 302.81650659 260.91392841 C302.81771836 259.29725473 302.8189325 257.68058105 302.82014897 256.06390737 C302.8310215 240.90793707 302.82886339 225.75198902 302.82276412 210.59601746 C302.81759545 196.73828178 302.82884958 182.88061641 302.84786234 169.02289464 C302.86724577 154.78559668 302.87549584 140.54833197 302.87173909 126.31102073 C302.86982778 118.32114528 302.87230774 110.33132967 302.88645363 102.341465 C302.89837485 95.53942679 302.89976404 88.73748524 302.88766346 81.93544568 C302.88177989 78.46696283 302.88066071 74.99865672 302.89266586 71.5301857 C302.90311334 67.76536205 302.89504789 64.00101264 302.88235474 60.23620605 C302.88972902 59.14660336 302.89710331 58.05700066 302.90470105 56.9343797 C302.85757482 50.28501752 302.58215361 43.09110462 298.23322755 37.68161023 C291.51449313 31.52498112 283.28902899 31.97735496 274.75535583 32.00672913 C272.98568956 32.00099081 272.98568956 32.00099081 271.18027246 31.99513656 C267.91836176 31.9866214 264.65659544 31.98703333 261.39468098 31.99131715 C257.87175125 31.99378796 254.34884779 31.98476581 250.82592773 31.97727966 C243.92900536 31.9645404 237.03212194 31.96273801 230.13518979 31.96507993 C224.52806844 31.96686414 218.9209589 31.96511122 213.31383896 31.96085548 C212.11604026 31.9599627 212.11604026 31.9599627 210.89404362 31.95905188 C209.27173293 31.95784011 207.64942225 31.95662597 206.02711158 31.9554095 C190.81820617 31.9445369 175.60932295 31.94669511 160.4004163 31.95279435 C146.49418177 31.95796303 132.5880173 31.94670888 118.68179663 31.92769613 C104.39477814 31.90831285 90.1077928 31.90006261 75.82076108 31.90381938 C67.80294004 31.90573071 59.78517862 31.90325051 51.76736832 31.88910484 C44.94154165 31.87718382 38.1158113 31.87579421 31.28998329 31.88789501 C27.80934905 31.89377871 24.32889095 31.89489738 20.84826851 31.88289261 C17.07030823 31.87244554 13.29282059 31.88051026 9.51487732 31.89320374 C8.42138367 31.88582945 7.32789003 31.87845517 6.20126021 31.87085742 C-2.25223435 31.93056558 -10.20499529 32.70479552 -15.86686707 39.57992554 Z " fill="#000000" transform="translate(177.4918670654297,63.732574462890625)"/>
<path d="M0 0 C4.67299695 3.90483368 9.10328418 7.96146358 13.39428711 12.28076172 C13.9902771 12.87660568 14.58626709 13.47244965 15.20031738 14.08634949 C17.14504295 16.03176472 19.0862148 17.98068414 21.02734375 19.9296875 C22.38475488 21.28896617 23.74238879 22.6480224 25.10023499 24.00686646 C28.65502433 27.56545447 32.20679893 31.12703645 35.75793457 34.68927002 C39.38952638 38.3311332 43.02398832 41.97012963 46.65820312 45.609375 C53.77493271 52.73679511 60.88847777 59.86738441 68 67 C72.36769886 65.3255737 75.20122277 62.06484147 78.42089844 58.80615234 C79.05546463 58.1718782 79.69003082 57.53760406 80.34382629 56.8841095 C82.43711882 54.78942522 84.5232408 52.68774898 86.609375 50.5859375 C88.06053753 49.1310443 89.51214267 47.67659244 90.96417236 46.2225647 C94.78261418 42.39649074 98.59501149 38.56444838 102.40618896 34.73114014 C106.29711379 30.81974796 110.19371428 26.91401915 114.08984375 23.0078125 C121.73213399 15.34407973 129.36805174 7.67403095 137 0 C138.11829227 0.95248515 139.23572573 1.90597867 140.35279846 2.8598938 C141.28634328 3.65619548 141.28634328 3.65619548 142.2387476 4.46858406 C144.38171525 6.33190292 146.40232519 8.28916492 148.40234375 10.3046875 C149.14677734 11.05234375 149.89121094 11.8 150.65820312 12.5703125 C151.41037109 13.33085937 152.16253906 14.09140625 152.9375 14.875 C153.71673828 15.65875 154.49597656 16.4425 155.29882812 17.25 C157.20154085 19.16438581 159.10186171 21.08108034 161 23 C157.09516632 27.67299695 153.03853642 32.10328418 148.71923828 36.39428711 C148.12339432 36.9902771 147.52755035 37.58626709 146.91365051 38.20031738 C144.96823528 40.14504295 143.01931586 42.0862148 141.0703125 44.02734375 C139.71103383 45.38475488 138.3519776 46.74238879 136.99313354 48.10023499 C133.43454553 51.65502433 129.87296355 55.20679893 126.31072998 58.75793457 C122.6688668 62.38952638 119.02987037 66.02398832 115.390625 69.65820312 C108.26320489 76.77493271 101.13261559 83.88847777 94 91 C95.6744263 95.36769886 98.93515853 98.20122277 102.19384766 101.42089844 C102.8281218 102.05546463 103.46239594 102.69003082 104.1158905 103.34382629 C106.21057478 105.43711882 108.31225102 107.5232408 110.4140625 109.609375 C111.8689557 111.06053753 113.32340756 112.51214267 114.7774353 113.96417236 C118.60350926 117.78261418 122.43555162 121.59501149 126.26885986 125.40618896 C130.18025204 129.29711379 134.08598085 133.19371428 137.9921875 137.08984375 C145.65592027 144.73213399 153.32596905 152.36805174 161 160 C160.04751485 161.11829227 159.09402133 162.23572573 158.1401062 163.35279846 C157.34380452 164.28634328 157.34380452 164.28634328 156.53141594 165.2387476 C154.66809708 167.38171525 152.71083508 169.40232519 150.6953125 171.40234375 C149.94765625 172.14677734 149.2 172.89121094 148.4296875 173.65820312 C147.66914063 174.41037109 146.90859375 175.16253906 146.125 175.9375 C145.34125 176.71673828 144.5575 177.49597656 143.75 178.29882812 C141.83561419 180.20154085 139.91891966 182.10186171 138 184 C133.32700305 180.09516632 128.89671582 176.03853642 124.60571289 171.71923828 C124.0097229 171.12339432 123.41373291 170.52755035 122.79968262 169.91365051 C120.85495705 167.96823528 118.9137852 166.01931586 116.97265625 164.0703125 C115.61524512 162.71103383 114.25761121 161.3519776 112.89976501 159.99313354 C109.34497567 156.43454553 105.79320107 152.87296355 102.24206543 149.31072998 C98.61047362 145.6688668 94.97601168 142.02987037 91.34179688 138.390625 C84.22506729 131.26320489 77.11152223 124.13261559 70 117 C65.63230114 118.6744263 62.79877723 121.93515853 59.57910156 125.19384766 C58.94453537 125.8281218 58.30996918 126.46239594 57.65617371 127.1158905 C55.56288118 129.21057478 53.4767592 131.31225102 51.390625 133.4140625 C49.93946247 134.8689557 48.48785733 136.32340756 47.03582764 137.7774353 C43.21738582 141.60350926 39.40498851 145.43555162 35.59381104 149.26885986 C31.70288621 153.18025204 27.80628572 157.08598085 23.91015625 160.9921875 C16.26786601 168.65592027 8.63194826 176.32596905 1 184 C-0.11829227 183.04751485 -1.23572573 182.09402133 -2.35279846 181.1401062 C-3.28634328 180.34380452 -3.28634328 180.34380452 -4.2387476 179.53141594 C-6.38171525 177.66809708 -8.40232519 175.71083508 -10.40234375 173.6953125 C-11.14677734 172.94765625 -11.89121094 172.2 -12.65820312 171.4296875 C-13.41037109 170.66914063 -14.16253906 169.90859375 -14.9375 169.125 C-15.71673828 168.34125 -16.49597656 167.5575 -17.29882812 166.75 C-19.20154085 164.83561419 -21.10186171 162.91891966 -23 161 C-19.09516632 156.32700305 -15.03853642 151.89671582 -10.71923828 147.60571289 C-10.12339432 147.0097229 -9.52755035 146.41373291 -8.91365051 145.79968262 C-6.96823528 143.85495705 -5.01931586 141.9137852 -3.0703125 139.97265625 C-1.71103383 138.61524512 -0.3519776 137.25761121 1.00686646 135.89976501 C4.56545447 132.34497567 8.12703645 128.79320107 11.68927002 125.24206543 C15.3311332 121.61047362 18.97012963 117.97601168 22.609375 114.34179688 C29.73679511 107.22506729 36.86738441 100.11152223 44 93 C42.3255737 88.63230114 39.06484147 85.79877723 35.80615234 82.57910156 C35.1718782 81.94453537 34.53760406 81.30996918 33.8841095 80.65617371 C31.78942522 78.56288118 29.68774898 76.4767592 27.5859375 74.390625 C26.1310443 72.93946247 24.67659244 71.48785733 23.2225647 70.03582764 C19.39649074 66.21738582 15.56444838 62.40498851 11.73114014 58.59381104 C7.81974796 54.70288621 3.91401915 50.80628572 0.0078125 46.91015625 C-7.65592027 39.26786601 -15.32596905 31.63194826 -23 24 C-22.04751485 22.88170773 -21.09402133 21.76427427 -20.1401062 20.64720154 C-19.60923841 20.02483832 -19.07837063 19.40247511 -18.53141594 18.7612524 C-16.66809708 16.61828475 -14.71083508 14.59767481 -12.6953125 12.59765625 C-11.94765625 11.85322266 -11.2 11.10878906 -10.4296875 10.34179688 C-9.28886719 9.21354492 -9.28886719 9.21354492 -8.125 8.0625 C-7.34125 7.28326172 -6.5575 6.50402344 -5.75 5.70117188 C-3.83561419 3.79845915 -1.91891966 1.89813829 0 0 Z " fill="#000000" transform="translate(219,164)"/>
</svg>
