
<svg version="1.1" viewBox="0 0 512 512" xmlns="http://www.w3.org/2000/svg" width="512" height="512">
<path d="M0 0 C1.18205161 -0.00445784 2.36410321 -0.00891569 3.58197457 -0.01350862 C4.88185136 -0.01332426 6.18172814 -0.01313989 7.52099514 -0.01294994 C8.91491611 -0.01624974 10.30883612 -0.01997555 11.70275491 -0.02409142 C15.53761574 -0.03410651 19.37246092 -0.03782743 23.20733297 -0.04048073 C27.3418061 -0.04438527 31.47626685 -0.05396355 35.61073208 -0.0626936 C45.59807872 -0.08245439 55.58542637 -0.092524 65.57278767 -0.10142139 C70.27690313 -0.10580516 74.98101746 -0.11117176 79.68513203 -0.11641026 C95.32447641 -0.13342261 110.96382009 -0.14791635 126.6031723 -0.155159 C130.66150889 -0.15706887 134.71984547 -0.1589892 138.77818203 -0.16094494 C139.78685302 -0.16142868 140.795524 -0.16191242 141.83476078 -0.16241082 C158.17125596 -0.17070951 174.50767788 -0.19604368 190.84414107 -0.22852562 C207.61935638 -0.26160776 224.39453448 -0.27960883 241.16978258 -0.28280324 C250.58725428 -0.28496733 260.00461917 -0.29370114 269.42205906 -0.31926441 C277.44318938 -0.34098723 285.46418694 -0.34901407 293.48534334 -0.33929763 C297.57585093 -0.33475743 301.66608469 -0.33662267 305.7565546 -0.35605907 C309.50670014 -0.37372398 313.25637275 -0.37266648 317.00652354 -0.35716178 C318.99447531 -0.35367374 320.98243224 -0.36978718 322.97031456 -0.38676625 C335.92220775 -0.29417418 345.48425045 3.63912053 355.24424648 12.13422108 C363.53032274 20.54292425 367.29686463 32.26854034 367.44956875 43.85223866 C367.45946835 44.50645802 367.46936794 45.16067738 367.47956753 45.83472157 C367.51098563 47.98269585 367.53586141 50.13069221 367.56065273 52.27875233 C367.5812393 53.77376833 367.60223621 55.26877873 367.62362576 56.76378345 C367.67867063 60.68787556 367.72815702 64.61201866 367.77647305 68.53619862 C367.82681693 72.54483008 367.88243555 76.55338802 367.93760586 80.56195545 C368.04497217 88.41931505 368.14646441 96.27673639 368.24424648 104.13422108 C368.79568325 103.4919054 368.79568325 103.4919054 369.35826015 102.83661366 C371.04735657 100.87152976 372.73952477 98.90911411 374.43174648 96.94672108 C375.00989101 96.27318592 375.58803555 95.59965076 376.18369961 94.90570545 C385.11185146 84.56519059 385.11185146 84.56519059 390.30674648 81.38422108 C390.95772305 80.97687733 391.60869961 80.56953358 392.27940273 80.14984608 C398.9981594 76.67693011 408.64491037 77.06286237 415.87705898 78.74750233 C422.14189582 81.29610082 427.17117458 85.76303994 432.24424648 90.13422108 C433.07617519 90.84892567 433.07617519 90.84892567 433.92491055 91.57806873 C437.07864224 94.29020939 440.22027361 97.01575182 443.35362148 99.75140858 C446.52430523 102.51661371 449.72244758 105.24741725 452.9312582 107.96820545 C472.40067173 124.51694477 472.40067173 124.51694477 473.55284023 136.28656483 C473.95866325 148.2030044 471.04445017 156.1446517 462.93174648 165.19672108 C462.16217617 166.00238514 461.39260586 166.8080492 460.59971523 167.63812733 C458.1737489 170.20892747 455.95810433 172.87945556 453.74424648 175.63422108 C450.83611268 179.22899758 447.85883317 182.71682736 444.74424648 186.13422108 C441.72142227 189.45411594 438.81912487 192.83186219 435.99424648 196.32172108 C431.31476973 202.09985759 426.45008828 207.70321063 421.56846523 213.31000233 C418.44132616 216.90190053 415.33905882 220.51446459 412.24424648 224.13422108 C407.55456966 229.6162142 402.83711288 235.07343704 398.10630703 240.51996326 C394.91051682 244.20207977 391.73332286 247.89913676 388.57017422 251.60931873 C383.58675824 257.45371849 378.520697 263.19184925 373.30284023 268.82953358 C372.28383633 269.97035389 372.28383633 269.97035389 371.24424648 271.13422108 C370.71445659 271.67703755 370.18466669 272.21985403 369.63882256 272.77911949 C367.64843075 276.1404097 367.83449124 279.3257738 367.87243557 283.12053394 C367.86861101 283.93148976 367.86478644 284.74244557 367.86084598 285.57797581 C367.85154993 288.29929116 367.86355961 291.0200992 367.87535 293.74139881 C367.87288234 295.69131653 367.86904428 297.64123293 367.86393642 299.59114552 C367.85559039 303.79380103 367.85641315 307.99632108 367.86412144 312.19897747 C367.87570053 318.85250968 367.86354307 325.5058676 367.84750271 332.15938282 C367.81129407 348.69368906 367.8050727 365.2279916 367.80760098 381.76233387 C367.80931462 394.59733688 367.80210533 407.43219759 367.76762241 420.26716095 C367.75087783 426.8720198 367.75258187 433.47653116 367.76844513 440.08138835 C367.77426946 444.20655809 367.76345208 448.33156553 367.74819851 452.45670605 C367.74449268 454.35890344 367.74752078 456.26112876 367.75806904 458.16330051 C367.83023964 472.11671036 366.88985897 484.51751575 358.24424648 496.13422108 C357.54299648 497.14484608 356.84174648 498.15547108 356.11924648 499.19672108 C349.79917799 506.47076217 339.76596145 511.53633577 330.20462441 512.41288173 C326.58876227 512.52321901 322.98375682 512.53881649 319.36622524 512.52190113 C317.9679857 512.5260793 316.56974955 512.53155945 315.17151964 512.53822094 C311.34788881 512.55263113 307.52447434 512.54844478 303.70083189 512.54105413 C299.56984135 512.53631374 295.43889702 512.54884002 291.30792141 512.55907154 C283.2221224 512.57624798 275.13640114 512.57710193 267.05058862 512.57185864 C260.47670931 512.56781346 253.90285294 512.56926463 247.32897472 512.5746069 C245.92429658 512.57572953 245.92429658 512.57572953 244.49124109 512.57687484 C242.58869493 512.57840636 240.68614878 512.5799447 238.78360264 512.58148981 C220.9507545 512.59521074 203.11795026 512.58978008 185.28510313 512.5783046 C168.98124986 512.56837325 152.6775101 512.58131192 136.37367435 512.60523879 C119.62089066 512.62963872 102.86815981 512.63923542 86.11535871 512.63258606 C76.71474143 512.62909575 67.31421142 512.63131345 57.9136076 512.64883709 C49.9108824 512.66357026 41.90830595 512.66417996 33.90558363 512.64676618 C29.82517828 512.63826287 25.7450385 512.6360901 21.6646471 512.65141773 C17.92393555 512.66529504 14.18371632 512.66046316 10.44303302 512.6411785 C8.46030372 512.63566049 6.47754916 512.64966462 4.49486792 512.6645326 C-8.89240625 512.55478975 -18.13938473 508.52025613 -27.69325352 499.25531483 C-35.23055083 491.21444809 -38.91308355 482.63999821 -38.88997459 471.70740891 C-38.89232682 470.95307443 -38.89467905 470.19873995 -38.89710256 469.42154685 C-38.90378969 466.87946308 -38.90333443 464.33743046 -38.90292454 461.79533863 C-38.90622334 459.96006427 -38.90994895 458.12479064 -38.91406602 456.28951794 C-38.92409228 451.23468908 -38.92780382 446.17987209 -38.93045533 441.12503469 C-38.93435653 435.67766748 -38.94393501 430.23030969 -38.95266819 424.78294849 C-38.97243797 411.62167592 -38.98249954 398.46040256 -38.99139598 385.29911885 C-38.9957781 379.10269899 -39.00114512 372.90627998 -39.00638485 366.7098608 C-39.02339776 346.11393982 -39.03789217 325.51801937 -39.04513359 304.92209244 C-39.04704352 299.57637945 -39.04896218 294.23066647 -39.05091953 288.8849535 C-39.05115968 288.22082355 -39.05139983 287.55669361 -39.05164726 286.87243851 C-39.05953857 265.34422488 -39.08296673 243.81606637 -39.11547548 222.28787681 C-39.14978789 199.5236535 -39.16948493 176.75946093 -39.17277783 153.99521118 C-39.17494363 141.58756317 -39.18370257 129.17999617 -39.20923901 116.77237225 C-39.2309358 106.20587337 -39.23900141 95.63947518 -39.22927222 85.07295655 C-39.22472459 79.68225297 -39.22664092 74.29175718 -39.24603367 68.90108204 C-39.2636447 63.96300224 -39.26268417 59.02528214 -39.24713638 54.08719862 C-39.24475719 52.303819 -39.24909994 50.52041461 -39.26096503 48.73707288 C-39.35717398 33.31763006 -36.8567634 22.51904624 -25.87684727 11.19672108 C-18.51592755 4.29678826 -10.13383746 0.01772936 0 0 Z M-12.13075352 29.57172108 C-12.59223789 30.12730701 -13.05372227 30.68289295 -13.52919102 31.25531483 C-16.59426507 35.95053974 -17.00708225 39.97819977 -17.01302242 45.53628731 C-17.0165285 46.27579068 -17.02003457 47.01529406 -17.02364689 47.77720663 C-17.03297366 50.26284794 -17.02803431 52.74825561 -17.02317905 55.23390675 C-17.02691467 57.03093539 -17.03151584 58.8279624 -17.0369097 60.62498683 C-17.04916606 65.56934993 -17.04887613 70.5136455 -17.04652095 75.45802033 C-17.04611345 80.78807093 -17.05714553 86.11809968 -17.06663609 91.44814014 C-17.08326145 101.89301952 -17.08874632 112.33787632 -17.08986084 122.78276781 C-17.09081058 131.27133318 -17.09491714 139.75989109 -17.10126209 148.24845409 C-17.1188786 172.30555422 -17.12810031 196.36263648 -17.12660114 220.4197431 C-17.12652123 221.71714437 -17.12644132 223.01454563 -17.12635899 224.35126209 C-17.12627722 225.65024414 -17.12619546 226.94922619 -17.12611122 228.28757133 C-17.12529818 249.34335634 -17.14443943 270.39906983 -17.17263572 291.45483414 C-17.20134702 313.06539332 -17.21517698 334.6759176 -17.21344817 356.28649634 C-17.21278366 368.42295646 -17.21830234 380.55934161 -17.23980427 392.69578457 C-17.25799296 403.02849135 -17.2623824 413.36108918 -17.24878542 423.69380502 C-17.24224415 428.96667595 -17.24218044 434.23933772 -17.25949192 439.51218891 C-17.27517633 444.33905618 -17.27240642 449.16554765 -17.25492366 453.9924055 C-17.25184354 455.73868727 -17.25552408 457.48499677 -17.26664381 459.23124585 C-17.44638064 472.64971796 -17.44638064 472.64971796 -11.00965977 484.15765858 C-10.4514957 484.6036742 -9.89333164 485.04968983 -9.31825352 485.50922108 C-8.76266758 485.97070545 -8.20708164 486.43218983 -7.63465977 486.90765858 C-3.51597475 489.59636356 0.0971838 490.38443936 4.97804737 490.38869667 C6.12972287 490.39452886 7.28139836 490.40036106 8.46797311 490.40636998 C10.35914753 490.400701 10.35914753 490.400701 12.28852749 490.39491749 C13.64491538 490.39793836 15.00130156 490.40182752 16.35768473 490.40651006 C20.08402081 490.41680718 23.81026086 490.41460388 27.53660488 490.41032946 C31.55578561 490.40786533 35.57494303 490.41687252 39.59411526 490.42436695 C47.46788357 490.43712487 55.34161781 490.43890627 63.21539472 490.43656669 C69.61491478 490.43478453 76.01442447 490.43653098 82.41394329 490.44079113 C83.7795363 490.44168391 83.7795363 490.44168391 85.17271704 490.44259473 C87.02212226 490.44380647 88.87152747 490.4450206 90.72093268 490.44623711 C108.07006358 490.45711693 125.41917505 490.45494811 142.76830705 490.44885226 C158.64184043 490.44368315 174.51531244 490.45493762 190.38883369 490.47395048 C206.68494042 490.49331997 222.98101812 490.50158642 239.27713645 490.49782723 C248.42727943 490.49591378 257.57737018 490.49841673 266.72750378 490.51254177 C274.51741831 490.52444524 282.30724847 490.52587212 290.09716414 490.5137516 C294.07169393 490.50785553 298.0460693 490.50678351 302.02058887 490.51875401 C305.66001979 490.52958789 309.2991669 490.5265394 312.9385844 490.51249232 C314.8767396 490.50858259 316.81490729 490.5194129 318.75303304 490.5307892 C327.39088826 490.47698199 333.88230676 489.4961608 340.24424648 483.13422108 C343.25039758 478.54640225 344.80267814 474.71853762 344.24424648 469.13422108 C344.90424648 469.13422108 345.56424648 469.13422108 346.24424648 469.13422108 C346.24424648 413.69422108 346.24424648 358.25422108 346.24424648 301.13422108 C339.72486769 307.65359987 333.60274605 314.40109506 327.80674648 321.57172108 C323.94482973 326.34706509 319.86750425 330.87089793 315.70909023 335.38812733 C313.31717351 338.05297274 311.05169765 340.78253933 308.80674648 343.57172108 C305.14918384 348.10658269 301.29807621 352.3895829 297.33262539 356.65131092 C293.53025842 360.76201384 290.00154056 365.05697692 286.49034023 369.41937733 C284.15594059 372.24095603 281.7243405 374.94012819 279.24424648 377.63422108 C275.95092949 381.21214571 272.79773327 384.84961773 269.74424648 388.63422108 C268.99401211 389.54043201 268.24377773 390.44664295 267.47080898 391.38031483 C266.01359142 393.18266286 264.60907191 395.02923979 263.26768398 396.91937733 C256.08218422 406.20826884 246.70219111 409.44853022 236.0381918 413.6337328 C231.7610057 415.31520034 227.5146439 417.06948782 223.26768398 418.82562733 C218.49277776 420.79796417 213.71788073 422.77010129 208.93492031 424.72284412 C208.1830595 425.03182133 207.43119869 425.34079853 206.65655422 425.65913868 C205.02652727 426.31921367 203.38986745 426.96306697 201.74807644 427.59331226 C196.52723467 429.63308783 191.7271601 431.9551716 186.86338711 434.74701405 C159.03198501 449.94214919 127.14673718 446.70216168 96.4495216 445.92338657 C89.30276002 445.74626543 82.15615968 445.65840254 75.00775242 445.57926846 C68.13361166 445.50286843 61.26010191 445.39177423 54.3865819 445.27279711 C52.19595331 445.2358913 50.00528811 445.2029587 47.81459332 445.17025089 C43.75660974 445.10661987 39.70030446 445.00695007 35.64317226 444.90228748 C34.43926846 444.88532322 33.23536465 444.86835896 31.9949789 444.85088062 C30.34394665 444.79966305 30.34394665 444.79966305 28.6595602 444.74741077 C27.70449644 444.72554014 26.74943268 444.70366951 25.76542759 444.68113613 C22.53020907 443.97932629 21.32520857 442.6528898 19.24424648 440.13422108 C17.64338021 436.93248854 17.74507559 433.60845049 18.24424648 430.13422108 C20.03788559 427.32418647 21.26305584 425.6248164 24.24424648 424.13422108 C25.89111217 424.02959459 27.54213046 423.98767038 29.19227505 423.97600269 C30.76143169 423.96131947 30.76143169 423.96131947 32.36228848 423.94633961 C33.5145895 423.94058414 34.66689053 423.93482868 35.85410976 423.92889881 C37.06384457 423.91899921 38.27357937 423.90909962 39.5199728 423.89890003 C42.84205725 423.87267803 46.16411722 423.85083016 49.48624182 423.83089805 C52.95629291 423.80905372 56.42629998 423.78165745 59.89631557 423.7548418 C66.46942843 423.70489387 73.0425657 423.65996286 79.61572635 423.61681944 C87.09812612 423.56746499 94.58048173 423.51254023 102.06283879 423.45713985 C117.45660056 423.34328756 132.85040291 423.23645561 148.24424648 423.13422108 C150.38938463 416.98871349 152.17424288 410.82531898 153.72471523 404.50531483 C153.94243084 403.63020756 154.16014645 402.75510029 154.3844595 401.85347462 C155.07024593 399.09371002 155.75107977 396.33275233 156.43174648 393.57172108 C156.89951669 391.68557181 157.36761267 389.7995033 157.83604336 387.91351795 C158.97587549 383.32134309 160.11127166 378.72809235 161.24424648 374.13422108 C160.54794785 374.13183272 159.85164923 374.12944437 159.13425064 374.12698364 C142.19163192 374.06784721 125.24917385 373.99230592 108.3067131 373.89850616 C100.11345932 373.85354086 91.92024907 373.81412792 83.7269125 373.78778553 C76.58558299 373.76481136 69.44439117 373.73141992 62.30317086 373.68551952 C58.52194054 373.66157933 54.74084666 373.64285582 50.95954227 373.63660717 C47.39966246 373.63055982 43.84013178 373.61057312 40.2803812 373.57994556 C38.35265698 373.5669737 36.42485122 373.56873624 34.49708462 373.57094288 C33.34588634 373.55840473 32.19468807 373.54586658 31.008605 373.53294849 C29.5111523 373.52603505 29.5111523 373.52603505 27.98344803 373.51898193 C24.76539007 373.0669587 22.87436609 372.00989942 20.24424648 370.13422108 C17.67792131 366.71245419 17.87989598 363.28781687 18.24424648 359.13422108 C20.44424648 354.53422108 20.44424648 354.53422108 23.24424648 353.13422108 C25.13181321 353.02865442 27.02310758 352.98759058 28.91358852 352.97600269 C30.72254856 352.96131947 30.72254856 352.96131947 32.56805325 352.94633961 C33.9114519 352.94043507 35.25485096 352.93462464 36.59825039 352.92889881 C38.00739741 352.91932265 39.41654155 352.90931272 40.82568264 352.89890003 C44.65806817 352.87181651 48.49046605 352.85082565 52.32289457 352.83089805 C56.3254593 352.80905972 60.32798578 352.78166052 64.33051968 352.7548418 C71.91299077 352.70488574 79.49548305 352.65995774 87.07799566 352.61681944 C95.70910012 352.56747194 104.34016623 352.5125446 112.97123361 352.45713985 C130.72886896 352.34327508 148.4865405 352.23644585 166.24424648 352.13422108 C166.73630278 350.85263498 167.22550283 349.56995197 167.71348476 348.28680897 C167.98621212 347.57263309 168.25893948 346.85845722 168.5399313 346.12263966 C169.30690378 343.95732736 169.71181664 341.82921502 170.11924648 339.57172108 C172.31353644 332.06977689 178.28180903 326.7160866 183.45274258 321.09955311 C186.36938794 317.89990809 189.18053194 314.61176129 191.99424648 311.32172108 C192.50721279 310.72907459 193.0201791 310.13642811 193.54868984 309.52582264 C196.17292941 306.52168126 196.17292941 306.52168126 198.24424648 303.13422108 C196.89692251 303.13202124 196.89692251 303.13202124 195.52237988 303.12977695 C173.68149103 303.09274882 151.84075786 303.03378726 129.99999523 302.95031834 C119.43801774 302.91048426 108.87611524 302.87811399 98.3140707 302.86322498 C89.10975054 302.85023108 79.90559505 302.82332444 70.70136762 302.77960801 C65.82634744 302.7569422 60.95153076 302.74131345 56.07645321 302.74233723 C51.48975632 302.74308082 46.90351014 302.72525145 42.31692982 302.69305325 C40.63189593 302.68452048 38.94681169 302.68282711 37.26176548 302.68841839 C34.96362677 302.69502943 32.66693431 302.67720981 30.36894131 302.65320301 C29.0821183 302.64951584 27.7952953 302.64582867 26.46947765 302.64202976 C22.69287732 302.04740868 21.5485406 301.11583279 19.24424648 298.13422108 C17.7120976 295.06992332 18.014861 292.51765688 18.24424648 289.13422108 C19.46110331 286.39629323 20.40000553 284.71701922 22.87177658 283.01070118 C26.21788518 281.77452212 29.4364845 281.88080954 32.95376492 281.92303944 C34.12542941 281.92493432 34.12542941 281.92493432 35.32076389 281.92686749 C37.94080742 281.93328328 40.56055536 281.95382478 43.18052578 281.97406483 C45.05811121 281.98113686 46.93570071 281.98719001 48.8132925 281.99229908 C52.85879605 282.00452849 56.90422987 282.02210372 60.94969654 282.04321766 C67.35004292 282.07467793 73.75027928 282.08255484 80.15069485 282.08490467 C81.77114988 282.08567509 81.77114988 282.08567509 83.42434138 282.08646107 C85.63353569 282.08750255 87.84273001 282.08850682 90.05192435 282.08947468 C104.95273724 282.09737122 119.85317199 282.12257172 134.75376797 282.20599842 C144.80460036 282.26208963 154.85482594 282.28271267 164.90580398 282.26279831 C170.22352437 282.25371933 175.53982348 282.26288624 180.85731983 282.31558704 C185.86233993 282.36496718 190.86523675 282.36768207 195.87037373 282.33511257 C197.70334837 282.3314481 199.53645116 282.34479214 201.36915112 282.37673473 C211.31654699 282.75005655 211.31654699 282.75005655 220.23842716 279.01038074 C222.53796061 276.49541357 224.38475776 273.98401794 226.24424648 271.13422108 C227.64499606 269.39213542 229.06005797 267.66138289 230.49424648 265.94672108 C231.2328793 265.03406483 231.97151211 264.12140858 232.73252773 263.18109608 C235.65703846 259.63347808 238.66118379 256.16253026 241.68174648 252.69672108 C245.84444997 247.9153775 249.98547556 243.11881453 254.05674648 238.25922108 C254.8675668 237.2924242 255.67838711 236.32562733 256.51377773 235.32953358 C258.34742233 233.46921962 258.34742233 233.46921962 258.24424648 232.13422108 C257.04803582 232.13183272 255.85182516 232.12944437 254.61936569 232.12698364 C226.22989247 232.06963576 197.84048713 231.99691374 169.45110415 231.9052348 C165.95759141 231.8939665 162.46407826 231.88282807 158.97056484 231.87176991 C158.27506315 231.86956622 157.57956146 231.86736254 156.86298396 231.86509208 C145.59845108 231.82971039 134.33391826 231.80485118 123.0693504 231.78387406 C111.51264245 231.76211893 99.95601576 231.72884833 88.39936751 231.68551952 C81.90741504 231.66154548 75.41554255 231.64284409 68.92354679 231.63660717 C62.81604477 231.63057526 56.70874755 231.61064397 50.60132122 231.57994556 C48.35714354 231.57113493 46.11293913 231.56744898 43.86874485 231.56921291 C40.8092914 231.57085871 37.75046742 231.55422529 34.69110012 231.53294849 C33.35306 231.54021986 33.35306 231.54021986 31.98798877 231.54763812 C27.2465331 231.49306349 24.10240051 231.20364302 20.24424648 228.13422108 C17.67792131 224.71245419 17.87989598 221.28781687 18.24424648 217.13422108 C20.44424648 212.53422108 20.44424648 212.53422108 23.24424648 211.13422108 C24.63959847 211.04272361 26.03925397 211.01303723 27.43760109 211.01510906 C28.76427261 211.01337273 28.76427261 211.01337273 30.11774558 211.01160133 C31.09544592 211.01539806 32.07314627 211.01919479 33.0804739 211.02310658 C34.11446609 211.02310756 35.14845828 211.02310854 36.21378356 211.02310956 C39.70141484 211.0241481 43.18899732 211.03217738 46.67661953 211.0399828 C49.1679878 211.04186077 51.65935653 211.04320635 54.15072536 211.04405689 C58.82994132 211.04604824 63.50915019 211.04943748 68.18836299 211.05487449 C77.38603125 211.06532136 86.58364317 211.06109096 95.78131008 211.05124378 C97.2287309 211.04975617 98.67615171 211.04827032 100.12357253 211.04678619 C103.05434775 211.04373529 105.98512288 211.04060371 108.91589797 211.03742719 C116.45430178 211.02930462 123.99270573 211.02186775 131.53111172 211.01605701 C132.66608518 211.0151736 132.66608518 211.0151736 133.8239874 211.01427235 C146.07970679 211.0054109 158.33531965 211.01830498 170.59102156 211.03834973 C183.17162236 211.0583339 195.75201684 211.05169727 208.33259708 211.02120316 C216.09320323 211.0032972 223.853211 211.0066202 231.61378018 211.03718741 C237.56371476 211.05847602 243.51319936 211.04310504 249.46311283 211.01408291 C251.90319872 211.00798145 254.34334825 211.01386405 256.78337002 211.03257656 C260.1142853 211.05635806 263.44229773 211.03715977 266.77310085 211.00723743 C268.22292096 211.03300903 268.22292096 211.03300903 269.70203036 211.05930126 C274.79796156 210.96388788 277.55899718 210.39235693 281.25489426 206.74860287 C282.27825432 205.56658058 283.27770219 204.36313712 284.24424648 203.13422108 C285.0035043 202.24218983 285.76276211 201.35015858 286.54502773 200.43109608 C287.20889492 199.59062733 287.87276211 198.75015858 288.55674648 197.88422108 C291.67137029 194.01341526 294.87758008 190.28796756 298.24424648 186.63422108 C302.35803557 182.16436988 306.21511945 177.54377215 310.02940273 172.81781483 C312.90905535 169.32871192 315.95118524 166.00425187 318.99815273 162.66156483 C321.30612246 160.06459715 323.49980511 157.40018095 325.68174648 154.69672108 C329.57913381 149.87788491 333.6748983 145.28673603 337.88487148 140.73968983 C338.66346523 139.87988514 339.44205898 139.02008045 340.24424648 138.13422108 C341.10554668 137.27009098 341.96684689 136.40596088 342.85424709 135.51564503 C346.0060158 131.68995205 345.93305292 128.22837864 345.84361172 123.42596912 C345.84952579 122.14423817 345.84952579 122.14423817 345.85555935 120.83661366 C345.86225113 118.02245182 345.83313833 115.20992719 345.80284023 112.39593983 C345.79858649 110.43067711 345.79626115 108.46540936 345.79577541 106.5001421 C345.78961498 102.38355149 345.76694488 98.26750603 345.73130703 94.15106678 C345.68612491 88.89227426 345.67128503 83.63397633 345.66757011 78.37500763 C345.66312484 74.31618401 345.6477902 70.25746271 345.62869358 66.19868374 C345.6198547 64.26074338 345.61310388 62.32279227 345.60853291 60.38483715 C345.59941547 57.66659403 345.57695818 54.94878119 345.55064297 52.23065662 C345.54997829 51.44022465 345.54931362 50.64979267 345.54862881 49.83540821 C345.43531102 41.28629322 344.32047068 33.52587768 338.24424648 27.13422108 C333.33350387 23.40205669 329.8539081 22.01096154 323.74371719 22 C322.01787705 21.99331323 322.01787705 21.99331323 320.25717145 21.98649138 C318.35244527 21.98676793 318.35244527 21.98676793 316.40923977 21.98705006 C315.05116695 21.98375121 313.69309512 21.9800256 312.33502454 21.97590858 C308.59472665 21.9658828 304.85444481 21.96217086 301.11413538 21.95951927 C297.08331566 21.95561793 293.05250866 21.94603947 289.02169704 21.9373064 C279.28311679 21.91753718 269.54453549 21.9074752 259.80594018 21.89857861 C255.22097966 21.89419646 250.63602029 21.88882946 246.05106068 21.88358974 C230.81150235 21.86657701 215.57194475 21.85208253 200.33237839 21.844841 C196.37697569 21.84293108 192.42157299 21.84101075 188.46617031 21.83905506 C187.48306242 21.83857132 186.49995454 21.83808758 185.4870555 21.83758918 C169.55909361 21.82928776 153.63120679 21.80394915 137.70327768 21.77147438 C121.35412315 21.73841229 105.00500678 21.72039301 88.65581864 21.71719676 C79.47484698 21.71503088 70.29398479 21.70627076 61.11304569 21.68073559 C53.29455627 21.6590402 45.47620292 21.65097243 37.65768681 21.66070237 C33.66881862 21.66525046 29.68023124 21.66333149 25.69140148 21.64394093 C22.03759055 21.62633244 18.38426575 21.62728775 14.73044982 21.64283822 C12.7869575 21.64634264 10.84346022 21.63017065 8.90003854 21.61323375 C0.58518247 21.67455117 -6.59662726 22.64606596 -12.13075352 29.57172108 Z M391.68174648 110.94672108 C391.22606289 111.53775623 390.7703793 112.12879139 390.30088711 112.7377367 C387.18527648 116.80176934 384.20324998 120.95523061 381.24424648 125.13422108 C386.95131797 130.46281313 392.65694988 135.7377241 398.74424648 140.63422108 C402.72059484 143.83358183 406.51045881 147.16052511 410.24424648 150.63422108 C419.93011954 160.05933055 419.93011954 160.05933055 431.24424648 167.13422108 C436.6613655 161.3828543 441.94199593 155.51159173 446.93174648 149.38422108 C447.37760098 148.86642078 447.82345547 148.34862049 448.2828207 147.81512928 C450.57920855 144.92333069 451.24098259 143.27658895 451.32627773 139.55609608 C450.03313052 135.46657638 448.48073784 133.90311736 445.24424648 131.13422108 C444.41666836 130.35562733 443.58909023 129.57703358 442.73643398 128.77484608 C437.27711895 123.78812846 431.70927039 119.01019885 425.95127773 114.37250233 C422.35868844 111.40200642 418.94092824 108.25921844 415.53330898 105.07953358 C412.52091728 102.51951469 409.74015633 100.40271772 405.80674648 99.69672108 C399.26500872 100.81360313 395.43145726 105.94532368 391.68174648 110.94672108 Z M365.24424648 142.13422108 C363.53934299 143.87870269 361.88398134 145.64232665 360.24424648 147.44672108 C359.74803799 147.98998035 359.25182949 148.53323963 358.74058437 149.09296131 C354.82970432 153.40990615 351.14265973 157.88164704 347.49034023 162.41937733 C345.15594059 165.24095603 342.7243405 167.94012819 340.24424648 170.63422108 C336.1304574 175.10407228 332.27337352 179.72467001 328.45909023 184.45062733 C325.57943762 187.93973023 322.53730773 191.26419028 319.49034023 194.60687733 C317.1823705 197.203845 314.98868786 199.8682612 312.80674648 202.57172108 C308.94716045 207.34418311 304.87224658 211.86531216 300.71690273 216.38031483 C297.4971513 219.96629391 294.48519472 223.701236 291.45909023 227.45062733 C289.28791822 230.08130665 287.04183291 232.61364532 284.74424648 235.13422108 C281.6296598 238.5516148 278.65238028 242.03944457 275.74424648 245.63422108 C272.13275514 250.09842565 268.35763954 254.36424221 264.49034023 258.60687733 C262.1823705 261.203845 259.98868786 263.8682612 257.80674648 266.57172108 C253.94716045 271.34418311 249.87224658 275.86531216 245.71690273 280.38031483 C242.4971513 283.96629391 239.48519472 287.701236 236.45909023 291.45062733 C234.28791822 294.08130665 232.04183291 296.61364532 229.74424648 299.13422108 C226.6296598 302.5516148 223.65238028 306.03944457 220.74424648 309.63422108 C217.83611268 313.22899758 214.85883317 316.71682736 211.74424648 320.13422108 C208.50171291 323.71416114 205.30473685 327.32419019 202.18174648 331.00922108 C201.42764492 331.89351795 200.67354336 332.77781483 199.89659023 333.68890858 C197.87099184 336.19473002 197.87099184 336.19473002 198.24424648 340.13422108 C200.2999366 342.20791724 202.29582558 343.99893377 204.55674648 345.82172108 C205.19322109 346.35063953 205.8296957 346.87955799 206.48545742 347.42450428 C208.39517791 349.00693292 210.31734887 350.57277833 212.24424648 352.13422108 C213.24326992 352.94890858 214.24229336 353.76359608 215.27159023 354.60297108 C217.06823412 356.06709408 218.86638141 357.52937442 220.66612148 358.98968983 C224.09929867 361.84546903 227.38405135 364.85109943 230.68565273 367.85687733 C235.96210226 372.55332019 241.36230716 377.21292819 247.24424648 381.13422108 C252.97025956 374.95395227 258.47928974 368.6931156 263.77549648 362.13812733 C268.26847484 356.67119638 272.95170711 351.36746317 277.59776211 346.03070545 C280.18062057 343.05566919 282.74481563 340.06478048 285.30674648 337.07172108 C286.04308315 336.21163441 286.04308315 336.21163441 286.79429531 335.33417225 C287.78309852 334.1789159 288.77178697 333.02356132 289.76035976 331.8681078 C291.75320119 329.53951947 293.74789066 327.21251846 295.74278164 324.88568592 C296.74136831 323.72083051 297.73974177 322.55579229 298.73789883 321.39056873 C301.27136926 318.43333585 303.80782273 315.4787505 306.34971523 312.52875233 C310.94031201 307.19586786 315.50186047 301.85236163 319.93174648 296.38422108 C323.4816997 292.0091436 327.19988469 287.82872916 330.99424648 283.66547108 C333.32286701 281.04577298 335.53987595 278.35906798 337.74424648 275.63422108 C340.65238028 272.03944457 343.6296598 268.5516148 346.74424648 265.13422108 C349.76707069 261.81432621 352.6693681 258.43657996 355.49424648 254.94672108 C360.70811086 248.50873202 366.15465902 242.28258542 371.59336758 236.03509998 C378.49070082 228.09327262 385.30286942 220.07813902 392.08921719 212.04144764 C396.96338108 206.27364309 401.88137066 200.5435863 406.80137539 194.81488514 C409.28417323 191.92290877 411.7641348 189.02850107 414.24424648 186.13422108 C412.49900289 182.36926231 410.42235305 180.22260584 407.30674648 177.44672108 C406.81803066 177.00956776 406.32931484 176.57241444 405.82578945 176.12201405 C402.57938956 173.24199209 399.24816145 170.48319218 395.86924648 167.75922108 C391.66608038 164.37034357 387.6823932 160.82166349 383.74424648 157.13422108 C375.11568542 147.76058359 375.11568542 147.76058359 365.24424648 142.13422108 Z M187.24424648 360.13422108 C185.22216661 367.64296901 183.21112789 375.15460969 181.20786953 382.66840076 C180.52456078 385.2260532 179.8386935 387.78302348 179.15025234 390.3392992 C178.16318202 394.00616951 177.18523156 397.67536601 176.20909023 401.34515858 C175.89769604 402.49414631 175.58630184 403.64313404 175.26547146 404.82693958 C174.9851054 405.88788837 174.70473934 406.94883717 174.41587734 408.04193592 C174.16494823 408.979034 173.91401913 409.91613209 173.65548611 410.88162708 C173.00664215 413.15949268 173.00664215 413.15949268 174.24424648 415.13422108 C178.91798001 413.26976778 183.59120806 411.40405439 188.26402187 409.53729725 C189.84527222 408.90578709 191.42664738 408.27458934 193.0081625 407.64374256 C204.11693955 403.21225652 215.1942359 398.71031034 226.24424648 394.13422108 C222.074102 388.83701051 217.5121552 384.79203674 212.24815273 380.59515858 C209.08005089 377.99970453 206.0596628 375.29158691 203.05674648 372.50922108 C202.55530117 372.04572254 202.05385586 371.58222401 201.53721523 371.10468006 C200.10619757 369.78122409 198.67522123 368.45772345 197.24424648 367.13422108 C195.70948337 365.73080061 194.16881997 364.33377148 192.61924648 362.94672108 C192.00823086 362.39629139 191.39721523 361.8458617 190.76768398 361.27875233 C189.29532214 359.93400248 189.29532214 359.93400248 187.24424648 360.13422108 Z " fill="currentColor" transform="translate(38.75575351715088,-0.13422107696533203)"/>
<path d="M0 0 C0.98321616 -0.00445784 1.96643231 -0.00891569 2.97944289 -0.01350862 C4.06745403 -0.01332426 5.15546517 -0.01313989 6.27644634 -0.01294994 C7.42618913 -0.01662663 8.57593192 -0.02030332 9.76051539 -0.02409142 C12.96159387 -0.03322943 16.16264221 -0.03783039 19.3637315 -0.04048073 C22.81236675 -0.04437972 26.2609871 -0.0539583 29.70961285 -0.0626936 C38.04257489 -0.08246893 46.37553817 -0.09252532 54.70851782 -0.10142139 C58.63039942 -0.10580232 62.55227967 -0.11116961 66.47416019 -0.11641026 C79.50732963 -0.13342319 92.54049822 -0.14791826 105.57367706 -0.155159 C108.95691523 -0.15706896 112.34015339 -0.15898928 115.72339153 -0.16094494 C116.98475775 -0.16167055 116.98475775 -0.16167055 118.27160611 -0.16241082 C131.8995809 -0.17071448 145.527468 -0.19605675 159.15540449 -0.22852562 C173.13939718 -0.26157183 187.12334527 -0.27960552 201.10737723 -0.28280324 C208.96197424 -0.28497054 216.81644337 -0.29375134 224.67100239 -0.31926441 C231.35910187 -0.34093814 238.04704241 -0.34903831 244.73517302 -0.33929763 C248.14850475 -0.33474324 251.56150832 -0.3367045 254.97479534 -0.35605907 C258.67352624 -0.37364433 262.37141737 -0.36673691 266.07014751 -0.35352612 C267.15146649 -0.36449536 268.23278546 -0.37546461 269.34687167 -0.38676625 C276.60804766 -0.32389552 276.60804766 -0.32389552 280.50712395 2.03970528 C283.81188421 5.76785996 283.7511419 8.80679599 283.72314739 13.64984608 C283.36377239 16.13422108 283.36377239 16.13422108 280.98877239 19.19672108 C277.54672729 21.73727818 275.96048869 22.25967556 271.76157284 22.27123547 C270.29812384 22.27884728 270.29812384 22.27884728 268.80511022 22.28661287 C267.72556309 22.28711063 266.64601597 22.28760838 265.5337553 22.28812122 C264.39288519 22.29250348 263.25201507 22.29688573 262.07657313 22.30140078 C258.90023055 22.31248149 255.7239158 22.31901822 252.54755831 22.32358193 C249.12548701 22.3295323 245.70343395 22.34114355 242.28137493 22.35187244 C234.01218681 22.37640935 225.74299265 22.39102544 217.47377932 22.40393251 C215.13889058 22.40764349 212.80400244 22.4116168 210.4691143 22.41568518 C195.9754098 22.44092061 181.48170438 22.46297768 166.98798275 22.47541332 C163.62984749 22.47834311 160.27171226 22.48130476 156.91357708 22.48431873 C155.66157617 22.48543781 155.66157617 22.48543781 154.38428232 22.48657949 C140.86042524 22.49923556 127.33669955 22.53246119 113.81290391 22.57412057 C99.93399842 22.616524 86.05516024 22.64010651 72.17619014 22.64533389 C64.38133062 22.64874981 56.58667644 22.66052616 48.79188061 22.69343662 C42.15392697 22.72141653 35.51622075 22.73244565 28.87821272 22.72124116 C25.49089553 22.7160489 22.104517 22.72169312 18.71720409 22.7437067 C15.0449413 22.76627669 11.37399204 22.75815797 7.70172405 22.74222279 C6.0957877 22.76304592 6.0957877 22.76304592 4.45740819 22.78428972 C-3.58564178 22.6980573 -3.58564178 22.6980573 -7.28234959 19.72122097 C-10.52988395 16.15205937 -10.97340141 14.09340458 -10.92919636 9.23968983 C-10.45868501 5.85828161 -8.77363233 3.71167971 -6.63622761 1.13422108 C-4.21967487 -0.07405529 -2.70033347 0.00566087 0 0 Z " fill="currentColor" transform="translate(66.63622760772705,66.86577892303467)"/>
<path d="M0 0 C1.13526629 -0.00467997 2.27053257 -0.00935994 3.44020087 -0.01418173 C7.25261546 -0.02616857 11.06467305 -0.01665974 14.87709045 -0.00723267 C17.60698185 -0.0096461 20.33685798 -0.016529 23.06674194 -0.02316284 C29.71697242 -0.03650754 36.36710136 -0.03361906 43.01733582 -0.02492492 C48.42239906 -0.0181511 53.82743382 -0.01723034 59.23250008 -0.02049637 C60.00164071 -0.02095607 60.77078135 -0.02141577 61.56322928 -0.0218894 C63.12571323 -0.02284857 64.68819718 -0.02382121 66.25068111 -0.02480717 C80.90487507 -0.03336337 95.55901275 -0.02352363 110.21319748 -0.00740607 C122.78641136 0.00599466 135.35954214 0.0036715 147.93275452 -0.01016235 C162.53278569 -0.02621872 177.1327675 -0.03253656 191.73280627 -0.02332556 C193.28986362 -0.02236992 194.84692098 -0.0214268 196.40397835 -0.02049637 C197.55313351 -0.01980213 197.55313351 -0.01980213 198.72550393 -0.01909386 C204.12339018 -0.01650394 209.52124511 -0.02087507 214.91912651 -0.02793503 C221.49842649 -0.03635097 228.07761909 -0.03406806 234.65690678 -0.0180928 C238.01365333 -0.01021078 241.37007273 -0.00873303 244.72684097 -0.01704025 C248.36584368 -0.02521666 252.00434024 -0.01498055 255.64331055 0 C257.23450452 -0.01003825 257.23450452 -0.01003825 258.85784382 -0.02027929 C264.25395571 0.02291869 268.28406012 0.22093123 272.88514709 3.38095093 C275.7088328 7.61647949 275.55168466 11.40572407 274.88514709 16.38095093 C273.08867855 19.31518288 271.94103999 20.85300448 268.88514709 22.38095093 C267.34215775 22.47872291 265.79499764 22.51374187 264.24891949 22.51796532 C263.26570333 22.52303986 262.28248718 22.5281144 261.26947659 22.53334272 C259.63745989 22.53408935 259.63745989 22.53408935 257.97247314 22.53485107 C256.82273036 22.53923333 255.67298757 22.54361558 254.4884041 22.54813063 C251.28732778 22.55921148 248.08627909 22.5657481 244.88518798 22.57031178 C241.43655078 22.57626201 237.98793166 22.58787323 234.53930664 22.59860229 C226.20634865 22.62313847 217.87338467 22.63775464 209.54040167 22.65066236 C207.18775731 22.65437322 204.83511356 22.65834653 202.4824698 22.66241503 C187.88006664 22.68764898 173.27766257 22.70970708 158.67524242 22.72214317 C155.29200423 22.72507298 151.90876607 22.72803463 148.52552795 22.73104858 C147.68461714 22.73179463 146.84370633 22.73254069 145.97731338 22.73330934 C132.34931683 22.74596808 118.7214506 22.77919746 105.093515 22.82085042 C91.10952319 22.86324215 77.12559816 22.88683495 63.14154226 22.89206374 C55.28691159 22.89548086 47.43248462 22.90727136 39.5779171 22.94016647 C32.88979638 22.96813024 26.20192111 22.97918259 19.51374646 22.96797101 C16.10034283 22.9627749 12.68745348 22.96573151 9.27412415 22.99043655 C5.57523931 23.0129772 1.87766148 23.00490167 -1.82122803 22.98895264 C-3.44320649 23.00977577 -3.44320649 23.00977577 -5.09795219 23.03101957 C-12.3690673 22.95345474 -12.3690673 22.95345474 -16.25820446 19.96795082 C-19.21531232 15.84760281 -19.46112231 13.48842463 -19.11485291 8.38095093 C-15.33865725 -0.36392321 -8.39326551 -0.05283886 0 0 Z " fill="currentColor" transform="translate(75.11485290527344,137.61904907226563)"/>
</svg>
