<?xml version="1.0" encoding="UTF-8"?>
<svg viewBox='0 0 512 512' version="1.1" xmlns="http://www.w3.org/2000/svg" width="512" height="512">
<path d="M0 0 C0.90054108 -0.00701431 1.80108215 -0.01402863 2.72891235 -0.02125549 C5.61750351 -0.03865402 8.50588962 -0.0451074 11.39453125 -0.046875 C12.38190277 -0.04754974 13.36927429 -0.04822449 14.38656616 -0.04891968 C28.87791389 -0.03317157 42.94723376 0.41971425 57.20703125 3.203125 C58.5525708 3.44458252 58.5525708 3.44458252 59.92529297 3.69091797 C108.61296249 12.50090649 153.63709033 35.94419047 189.20703125 70.203125 C190.19606445 71.15131104 190.19606445 71.15131104 191.20507812 72.11865234 C200.69585125 81.26552553 209.42023901 90.56758194 217.20703125 101.203125 C218.02947879 102.29592614 218.85239507 103.38837466 219.67578125 104.48046875 C241.92078149 134.38387227 256.57589064 168.80664405 264.20703125 205.203125 C264.41730957 206.1612207 264.62758789 207.11931641 264.84423828 208.10644531 C271.51557063 239.66190016 270.94182142 275.72578618 264.20703125 307.203125 C264.03042969 308.09741211 263.85382813 308.99169922 263.671875 309.91308594 C256.11574837 347.98756843 238.96120347 385.24584652 214.20703125 415.203125 C213.77712891 415.72777344 213.34722656 416.25242187 212.90429688 416.79296875 C195.54070978 437.93345289 195.54070978 437.93345289 185.421875 446.35546875 C183.67557848 447.8122558 181.96705148 449.31431859 180.2734375 450.83203125 C144.88668513 482.40426511 99.01920374 503.19688941 52.20703125 510.203125 C51.06580811 510.38496338 49.92458496 510.56680176 48.7487793 510.75415039 C37.89213857 512.32078025 27.14176973 512.54260912 16.18286133 512.51879883 C13.17296522 512.5156547 10.16407134 512.53913612 7.15429688 512.56445312 C-11.0698489 512.62476105 -29.04787486 510.7825067 -46.79296875 506.515625 C-47.86562988 506.26143799 -48.93829102 506.00725098 -50.04345703 505.74536133 C-93.19804161 495.14237066 -132.83125469 472.9868216 -164.79296875 442.203125 C-165.45232422 441.57100098 -166.11167969 440.93887695 -166.79101562 440.28759766 C-176.2792718 431.14315021 -185.01917315 421.84578491 -192.79296875 411.203125 C-193.65103027 410.05207483 -194.50910326 408.90103323 -195.3671875 407.75 C-201.40474271 399.56036519 -206.78754177 391.05774224 -211.79296875 382.203125 C-212.19515625 381.49591309 -212.59734375 380.78870117 -213.01171875 380.06005859 C-227.73300926 353.91251644 -237.43218208 324.89146058 -241.79296875 295.203125 C-241.97029541 293.99849609 -242.14762207 292.79386719 -242.33032227 291.55273438 C-243.92929369 279.8954519 -244.15137847 268.33126434 -244.10546875 256.578125 C-244.10273453 255.12379059 -244.10273453 255.12379059 -244.09994507 253.64007568 C-244.05459612 239.30833241 -243.63592297 225.29416988 -240.79296875 211.203125 C-240.61604492 210.30126465 -240.43912109 209.3994043 -240.25683594 208.47021484 C-238.95795588 201.99712605 -237.44639749 195.59424012 -235.79296875 189.203125 C-235.58333496 188.38312012 -235.37370117 187.56311523 -235.15771484 186.71826172 C-227.781093 158.51219499 -214.6683913 131.91042253 -197.79296875 108.203125 C-197.33841309 107.55923828 -196.88385742 106.91535156 -196.41552734 106.25195312 C-189.48257265 96.50062748 -181.92282615 87.59869207 -173.57519531 79.03222656 C-171.80098042 77.21134738 -170.04315361 75.37558571 -168.28515625 73.5390625 C-161.18089865 66.19644032 -153.764328 59.6270617 -145.56835938 53.52978516 C-143.7795399 52.1930903 -142.01232443 50.83120058 -140.24609375 49.46484375 C-125.9318549 38.52412281 -110.10647707 29.79324859 -93.79296875 22.203125 C-93.09864746 21.87747559 -92.40432617 21.55182617 -91.68896484 21.21630859 C-63.38521729 8.12702196 -31.25429321 0.16397826 0 0 Z M-138.79296875 150.203125 C-135.06635073 154.02762793 -131.17166115 157.55654353 -127.10546875 161.015625 C-126.1774646 161.80827759 -126.1774646 161.80827759 -125.23071289 162.61694336 C-121.00242747 166.21369957 -116.70328058 169.70678024 -112.34765625 173.1484375 C-108.73444828 176.05447327 -105.21075138 179.06208082 -101.67944336 182.06665039 C-98.24705911 184.98329561 -94.78695135 187.86013188 -91.29296875 190.703125 C-86.68843295 194.45100298 -82.15277684 198.27295944 -77.62890625 202.1171875 C-73.33283831 205.76171907 -68.97928534 209.3309984 -64.609375 212.88671875 C-61.45511683 215.48099766 -58.34093895 218.11918765 -55.23046875 220.765625 C-51.46207936 223.97051691 -47.67050847 227.13000194 -43.79296875 230.203125 C-39.34043174 233.73195903 -35.00610896 237.38541829 -30.6796875 241.06640625 C-26.37170183 244.7271828 -22.00664999 248.31216622 -17.6171875 251.875 C-15.55668065 253.57356443 -13.52139461 255.28739375 -11.5 257.03125 C-0.6088689 267.26195077 -0.6088689 267.26195077 13.20703125 271.203125 C21.7233541 270.19527614 27.50642406 264.07998993 33.61230469 258.61230469 C35.92096382 256.57225868 38.31043739 254.63856669 40.70703125 252.703125 C44.74686577 249.4148876 48.73786402 246.07581039 52.70703125 242.703125 C59.35736776 237.05454556 66.10824131 231.53488992 72.87890625 226.03125 C78.42747408 221.50900685 83.9161792 216.92429221 89.37060547 212.28955078 C93.6681475 208.64357568 98.02360926 205.0733522 102.39453125 201.515625 C105.52502791 198.94166108 108.61875586 196.32743414 111.70703125 193.703125 C116.5552325 189.58329201 121.4554897 185.53516536 126.390625 181.51953125 C129.54488507 178.92525078 132.6589932 176.28698483 135.76953125 173.640625 C140.35334981 169.74404366 144.99208377 165.93314915 149.70703125 162.1953125 C154.24552825 158.5786977 158.7224752 154.88625849 163.20703125 151.203125 C160.98411511 148.64677144 159.51416003 147.81993415 156.20703125 147.203125 C154.5521088 147.11266883 152.8939814 147.07407307 151.23659039 147.07169724 C150.22972516 147.06785609 149.22285993 147.06401495 148.18548363 147.0600574 C147.08131673 147.06092388 145.97714982 147.06179037 144.83952332 147.06268311 C143.6649815 147.05971198 142.49043968 147.05674086 141.28030568 147.0536797 C138.01919568 147.04650011 134.75811776 147.04382044 131.49700105 147.04308224 C127.98019787 147.04123075 124.46340608 147.03368296 120.9466095 147.02694702 C113.25654054 147.01336748 105.5664768 147.00733968 97.87639785 147.00293636 C93.0748221 147.00017352 88.27324836 146.99593611 83.47167397 146.99143219 C70.17764379 146.97924044 56.88361523 146.96894067 43.58957958 146.9655571 C42.73880896 146.96533753 41.88803834 146.96511797 41.01148679 146.96489175 C40.15868238 146.96467347 39.30587798 146.96445519 38.42723101 146.9642303 C36.69912732 146.96378683 34.97102362 146.96334027 33.24291992 146.96289062 C31.95712161 146.96255848 31.95712161 146.96255848 30.64534757 146.96221963 C16.75374124 146.95827108 2.86218735 146.94081492 -11.02939872 146.9175311 C-25.29144775 146.89381925 -39.55347047 146.88135534 -53.81553954 146.88018918 C-61.82328662 146.87927237 -69.83096536 146.87351851 -77.83869362 146.85536957 C-84.65695813 146.83997088 -91.47513318 146.83484676 -98.29341177 146.84310767 C-101.77175689 146.84701491 -105.24992182 146.84608114 -108.72824478 146.83205032 C-112.50048906 146.81939077 -116.27226916 146.82517555 -120.04450989 146.83563232 C-121.14198463 146.82757592 -122.23945937 146.81951952 -123.37019092 146.81121898 C-129.29826361 146.84971855 -133.53865873 147.39706409 -138.79296875 150.203125 Z M-146.79296875 160.203125 C-146.88640887 185.11588345 -146.95694646 210.02861563 -147.00021744 234.94151402 C-147.0208429 246.50900187 -147.04896334 258.07638085 -147.09472656 269.64379883 C-147.13459464 279.72592601 -147.16040167 289.80797433 -147.16932273 299.89017814 C-147.17453749 305.22868386 -147.186794 310.56696399 -147.21588898 315.90539742 C-147.24305746 320.93111359 -147.25141077 325.95651144 -147.24539948 330.98229408 C-147.24649906 332.82574951 -147.25444436 334.66921569 -147.26979065 336.51260757 C-147.28974124 339.03288788 -147.28488986 341.55197194 -147.27398682 344.07228088 C-147.28563818 344.79895307 -147.29728955 345.52562525 -147.30929399 346.2743178 C-147.24532081 351.75856929 -145.79060635 354.77314845 -142.79296875 359.203125 C-138.25228755 363.51095076 -133.92503993 365.45032098 -127.67103863 365.46039391 C-126.14822907 365.47006724 -126.14822907 365.47006724 -124.59465569 365.479936 C-123.48630185 365.4768388 -122.37794801 365.4737416 -121.23600769 365.47055054 C-119.46172102 365.47734721 -119.46172102 365.47734721 -117.65159017 365.48428118 C-114.37183329 365.49475197 -111.09221428 365.49625092 -107.812446 365.49389243 C-104.27381785 365.49348422 -100.7352224 365.5045238 -97.1966095 365.51400757 C-90.26499467 365.53061778 -83.33341387 365.53611713 -76.40178081 365.53723232 C-70.76695186 365.53818281 -65.13213413 365.54229311 -59.49730873 365.54863358 C-43.51948585 365.5662462 -27.54168982 365.57547244 -11.56385716 365.57397263 C-10.27190729 365.57385276 -10.27190729 365.57385276 -8.95385742 365.57373047 C-8.09150513 365.57364871 -7.22915284 365.57356695 -6.34066866 365.57348271 C7.63428547 365.57266984 21.6091318 365.59180751 35.58405475 365.6200072 C49.93541685 365.64873784 64.28672638 365.66254739 78.63811797 365.66081965 C86.69452477 365.6601558 94.75081858 365.66564581 102.80719948 365.68717575 C109.66679171 365.70538996 116.52621973 365.709733 123.38582567 365.6961569 C126.88460186 365.68962832 130.38306304 365.68950561 133.88180923 365.7068634 C137.67786142 365.72226933 141.47308527 365.71303696 145.26911926 365.69760132 C146.37078094 365.70788844 147.47244261 365.71817557 148.60748798 365.72877443 C155.6887485 365.66511005 161.29627994 364.65517792 166.72631675 359.86203897 C171.86005131 354.29018092 172.50779367 347.66971048 172.46099854 340.40290833 C172.46411852 339.64837598 172.4672385 338.89384364 172.47045302 338.11644667 C172.4783888 335.60464971 172.47212684 333.09309731 172.46582031 330.58129883 C172.46853207 328.77397013 172.47209404 326.96664253 172.47644043 325.15931702 C172.48554273 320.26289723 172.48202959 315.36656192 172.47568226 310.4701407 C172.47061344 305.34440527 172.47531595 300.218677 172.47845459 295.09294128 C172.48209067 286.48911237 172.47730349 277.88531783 172.46777344 269.28149414 C172.45687921 259.33109152 172.46042294 249.3807708 172.47142625 239.43037015 C172.48049695 230.88585642 172.48178578 222.34136737 172.47654891 213.79685038 C172.47342935 208.69393266 172.47301971 203.59105346 172.47962189 198.4881382 C172.48539191 193.69384224 172.48140476 188.89965216 172.46983337 184.10536766 C172.4671854 182.34451854 172.46795423 180.58366054 172.4723587 178.82281494 C172.47780989 176.4225526 172.47098544 174.02263126 172.46099854 171.62239075 C172.46545998 170.92288246 172.46992142 170.22337418 172.47451806 169.50266868 C172.44536686 165.8998215 172.17174188 163.27018518 170.20703125 160.203125 C164.38015754 164.93235116 158.60121163 169.70521003 152.89453125 174.578125 C148.45854174 178.36108409 143.94102434 182.00845273 139.33203125 185.578125 C133.5867597 190.03364171 128.07607684 194.71455905 122.60644531 199.50292969 C118.1294274 203.41944457 113.57160188 207.21639567 108.94921875 210.9609375 C105.83702977 213.50566183 102.76976628 216.09930725 99.70703125 218.703125 C94.85893659 222.82308107 89.95856959 226.87108725 85.0234375 230.88671875 C81.86917933 233.48099766 78.75500145 236.11918765 75.64453125 238.765625 C71.09418809 242.63554302 66.4787029 246.40272397 61.796875 250.11328125 C58.74620202 252.57498569 55.75581296 255.10152207 52.76953125 257.640625 C24.3065825 281.80311652 24.3065825 281.80311652 8.671875 281.5078125 C-0.6944329 280.68416874 -6.87153152 275.13010286 -13.79296875 269.203125 C-15.33320464 267.89313055 -16.87346782 266.58316777 -18.41455078 265.27416992 C-19.51027552 264.34321458 -20.60498505 263.41106317 -21.69873047 262.4777832 C-25.61051848 259.15543491 -29.61021004 255.96970763 -33.66796875 252.828125 C-39.41332399 248.37272369 -44.92393053 243.6916845 -50.39355469 238.90332031 C-54.8705726 234.98680543 -59.42839812 231.18985433 -64.05078125 227.4453125 C-67.16297023 224.90058817 -70.23023372 222.30694275 -73.29296875 219.703125 C-78.14106341 215.58316893 -83.04143041 211.53516275 -87.9765625 207.51953125 C-91.13082067 204.92525234 -94.24499855 202.28706235 -97.35546875 199.640625 C-101.12385814 196.43573309 -104.91542903 193.27624806 -108.79296875 190.203125 C-113.2410156 186.67784962 -117.57129957 183.02845692 -121.89306641 179.35083008 C-126.32905262 175.58083117 -130.82364052 171.88762718 -135.34375 168.21875 C-137.55406147 166.39973769 -139.70940351 164.53447226 -141.85546875 162.640625 C-144.41330467 159.99026751 -144.41330467 159.99026751 -146.79296875 160.203125 Z " fill="#4BAF4F" transform="translate(243.79296875,-0.203125)"/>
</svg>
