<svg width="26" height="19" viewBox="0 0 26 19" fill="none" xmlns="http://www.w3.org/2000/svg">
<path d="M2.10158 0.894577C1.18166 1.14067 0.466816 1.92583 0.291035 2.87505C0.203144 3.3438 0.203144 15.9415 0.285175 16.3926C0.484394 17.4473 1.34572 18.2793 2.39455 18.4434C2.64064 18.4786 6.51369 18.4961 13.2637 18.4844L23.752 18.4668L24.0801 18.3321C24.7949 18.045 25.3164 17.5235 25.6153 16.7969L25.7442 16.4747L25.7617 9.88286C25.7735 5.34184 25.7617 3.17387 25.7149 2.92192C25.627 2.39458 25.3867 1.93755 25.0117 1.55669C24.6426 1.18755 24.3555 1.01762 23.8574 0.888718C23.3535 0.759811 2.59377 0.765671 2.10158 0.894577ZM23.6582 1.82622C23.6992 1.86723 21.9824 3.41411 18.4082 6.57231C15.4844 9.15044 13.0645 11.2657 13.0235 11.2774C12.9531 11.295 2.38283 2.00786 2.3301 1.88481C2.31838 1.85551 2.38869 1.80864 2.48244 1.79106C2.78713 1.72661 23.5938 1.76176 23.6582 1.82622ZM5.07814 5.62895C6.82424 7.17583 8.24807 8.47075 8.24221 8.50591C8.23049 8.54106 6.67189 10.3457 4.7676 12.5079C2.4883 15.1094 1.29885 16.4161 1.26955 16.3692C1.24611 16.334 1.22268 13.293 1.22268 9.61919C1.22268 3.08598 1.22853 2.93364 1.33986 2.68169L1.45705 2.42973L1.67971 2.62309C1.79689 2.73442 3.32619 4.08794 5.07814 5.62895ZM24.7188 2.85161C24.7949 3.12114 24.8008 16.3106 24.7246 16.3516C24.666 16.3926 17.7754 8.57622 17.7754 8.47661C17.7754 8.44145 19.293 7.07622 21.1446 5.43559C24.8067 2.19536 24.584 2.35942 24.7188 2.85161ZM11.084 10.9317C11.9805 11.7227 12.7774 12.3965 12.8594 12.4258C12.9473 12.461 13.0528 12.461 13.1465 12.4258C13.2285 12.3965 14.1133 11.6465 15.1153 10.7618C16.1231 9.877 16.9668 9.15044 16.9903 9.15044C17.0196 9.15044 18.6367 10.9668 20.5821 13.1875C24.4434 17.5879 24.209 17.2715 23.7285 17.4297C23.4473 17.5293 2.55861 17.5293 2.2715 17.4356C1.82033 17.2832 1.63869 17.5293 5.47072 13.17L9.0215 9.11528L9.2383 9.30278C9.35549 9.40825 10.1875 10.1407 11.084 10.9317Z" fill="white"/>
</svg>
