<svg width="47" height="46" viewBox="0 0 47 46" fill="none" xmlns="http://www.w3.org/2000/svg">
<path d="M20.619 0.124164C11.023 1.28341 3.01872 8.22967 0.681829 17.4208C0.139008 19.5737 0.00100319 20.6961 0.00100319 23.033C-0.00819716 24.2199 0.0470049 25.4159 0.120608 25.9311C1.11425 33.135 5.05199 39.0968 11.2714 42.869C13.1667 44.0098 15.6784 45.0679 16.5156 45.0679C16.9296 45.0679 17.0216 45.0311 17.2977 44.7551C17.5001 44.5527 17.6105 44.3502 17.6197 44.1754C17.6381 43.8074 17.5921 40.0537 17.5829 40.0445C17.5737 40.0353 17.1965 40.0905 16.7364 40.1641C15.7428 40.3205 14.2247 40.2745 13.4243 40.0537C12.3663 39.7777 11.5658 39.3269 10.8574 38.6C10.2686 38.0204 10.1122 37.772 9.53256 36.6035C8.76894 35.0487 8.26292 34.3587 7.41648 33.7698C6.11003 32.8498 5.89843 32.445 6.61605 32.1966C6.90127 32.1046 7.11287 32.0954 7.56369 32.169C8.81494 32.3714 9.94658 33.1718 10.8298 34.4783C11.9339 36.1159 12.8447 36.7508 14.4088 36.9716C15.1264 37.0728 16.1108 36.9624 17.0308 36.6864C17.6841 36.4839 17.6841 36.4839 17.9325 35.4811C18.0981 34.8371 18.5489 33.9815 18.9537 33.5582L19.1837 33.319L18.6041 33.2546C17.6565 33.1442 15.9084 32.7486 15.0528 32.445C13.5071 31.9022 12.5135 31.3133 11.4186 30.2645C9.37616 28.314 8.41932 25.4803 8.52973 21.699C8.56653 20.4017 8.61253 20.0613 8.81494 19.3529C9.14615 18.2397 9.62457 17.3012 10.3238 16.3812C10.7654 15.7924 10.8758 15.59 10.8114 15.4611C10.6182 15.0931 10.4342 13.9155 10.4342 13.0599C10.4342 12.0754 10.5998 11.045 10.8942 10.1433C11.1242 9.47172 11.2438 9.42572 12.2283 9.56372C13.4795 9.73853 15.2644 10.4746 16.8836 11.4866C17.5369 11.9006 17.6197 11.9282 17.9049 11.8454C18.6777 11.6246 20.7478 11.3026 22.045 11.2106C24.1427 11.0542 26.9948 11.3026 28.8257 11.7994L29.3225 11.9374L30.1597 11.4222C31.7698 10.4286 33.4535 9.73853 34.7139 9.55452C35.7076 9.41652 35.7904 9.46252 36.048 10.2813C36.1676 10.6678 36.3148 11.3026 36.3792 11.6982C36.5356 12.6458 36.4528 14.3939 36.2228 15.1207L36.048 15.6728L36.4712 16.188C37.8512 17.9084 38.4217 19.6473 38.4125 22.1222C38.4033 28.2956 35.6156 31.8194 29.8561 32.9694C29.2673 33.0798 28.5497 33.2086 28.2553 33.2454L27.7217 33.3098L28.0437 33.6594C28.4393 34.1011 28.8533 34.9015 29.0741 35.6467C29.2121 36.1159 29.2397 36.7692 29.2857 40.2837C29.3317 43.3566 29.3685 44.433 29.4605 44.5803C29.6169 44.8655 30.0401 45.0679 30.4542 45.0679C31.3098 45.0679 34.6219 43.5682 36.5172 42.3354C38.0352 41.3325 39.2681 40.3205 40.5193 39.0324C44.0615 35.3983 46.1776 31.0373 46.8768 25.9311C47.0608 24.6063 47.0332 21.2666 46.8308 19.9049C45.2483 9.41652 36.8852 1.36621 26.2772 0.124164C24.8603 -0.0414423 22.0082 -0.0414423 20.619 0.124164Z" fill="white"/>
</svg>
