<svg width="37" height="37" viewBox="0 0 37 37" fill="none" xmlns="http://www.w3.org/2000/svg">
<path d="M8.72331 0.0217287C6.48637 0.260624 4.43766 1.25964 2.82331 2.89571C1.3827 4.3508 0.557423 5.89277 0.130307 7.93424C0.00723926 8.50614 0 9.20835 0 18.5036C0 27.7988 0.00723926 28.501 0.130307 29.0729C0.564662 31.1216 1.38994 32.6635 2.82331 34.1114C4.2784 35.581 5.8638 36.4352 7.92699 36.8695C8.49889 36.9926 9.2011 36.9999 18.4963 36.9999C29.6158 36.9999 28.8774 37.0288 30.4556 36.4859C31.8817 35.9936 32.9603 35.3131 34.1041 34.1765C35.5665 32.7359 36.4279 31.1361 36.8623 29.0729C36.9854 28.501 36.9926 27.7988 36.9926 18.5036C36.9926 7.46368 37.0216 8.19485 36.5148 6.66013C36.037 5.19056 35.3131 4.04676 34.1331 2.86676C32.6997 1.43338 31.2664 0.644305 29.2466 0.166514C28.6023 0.0144895 28.501 0.0144895 18.7859 1.09732e-05C13.3926 1.09732e-05 8.86085 0.00725023 8.72331 0.0217287ZM25.627 6.68908C27.958 7.34062 29.6954 9.09252 30.3108 11.4091L30.4773 12.0244V18.5036V24.9827L30.3108 25.598C29.6954 27.9363 27.9291 29.7027 25.5908 30.318L24.9754 30.4845H18.4963C12.5529 30.4845 11.9737 30.4773 11.5249 30.3542C9.11423 29.7389 7.31165 27.9653 6.68183 25.598L6.51533 24.9827V18.5036V12.0244L6.68183 11.4091C7.34061 8.91878 9.33864 7.05105 11.8217 6.59497C12.2778 6.51534 13.5374 6.50086 18.7135 6.5081C25.0406 6.52258 25.0478 6.52258 25.627 6.68908Z" fill="white"/>
<path d="M11.923 8.80288C11.1339 9.01282 10.5693 9.33859 9.95395 9.96116C9.32413 10.5837 9.0056 11.1412 8.79566 11.9592C8.65812 12.4949 8.65088 12.7772 8.65088 18.5035C8.65088 24.2297 8.65812 24.5121 8.79566 25.0478C9.0056 25.8658 9.32413 26.4232 9.95395 27.0458C10.5765 27.6756 11.1339 27.9942 11.952 28.2041C12.4877 28.3416 12.77 28.3489 18.4963 28.3489C24.2225 28.3489 24.5049 28.3416 25.0406 28.2041C25.8586 27.9942 26.416 27.6756 27.0386 27.0458C27.6684 26.4232 27.9869 25.8658 28.1969 25.0478C28.3344 24.5121 28.3417 24.2297 28.3417 18.5035C28.3417 12.7772 28.3344 12.4949 28.1969 11.9592C27.9869 11.1412 27.6684 10.5837 27.0386 9.96116C26.416 9.33135 25.8586 9.01282 25.0406 8.80288C24.5049 8.66534 24.2298 8.6581 18.4673 8.66534C12.7845 8.66534 12.4225 8.67258 11.923 8.80288ZM25.2288 11.3366C25.5545 11.5031 25.8079 11.9158 25.8079 12.2777C25.8079 12.6397 25.5545 13.0523 25.2288 13.2188C25.0768 13.2985 24.8451 13.3636 24.722 13.3636C24.3601 13.3636 23.9474 13.1102 23.7809 12.7845C23.5058 12.2488 23.6651 11.6769 24.1863 11.3656C24.5338 11.1556 24.8523 11.1484 25.2288 11.3366ZM19.5604 13.1899C20.6463 13.4143 21.5512 13.9066 22.3258 14.6884C23.0353 15.4123 23.4986 16.2014 23.7592 17.157C23.9257 17.7651 23.9257 19.2419 23.7592 19.85C23.2018 21.877 21.5874 23.3972 19.5677 23.8171C15.8105 24.5917 12.4081 21.1965 13.1827 17.4321C13.7835 14.5074 16.6647 12.589 19.5604 13.1899Z" fill="white"/>
<path d="M17.7362 15.3472C17.1353 15.492 16.6792 15.7526 16.2087 16.2159C14.9273 17.5045 14.9273 19.5098 16.2087 20.7839C17.5045 22.0725 19.5026 22.0725 20.7767 20.7911C22.0653 19.4953 22.0653 17.5045 20.7839 16.2159C19.9586 15.3906 18.851 15.0721 17.7362 15.3472Z" fill="white"/>
</svg>
