
<svg version="1.0" xmlns="http://www.w3.org/2000/svg"
 width="512.000000pt" height="512.000000pt" viewBox="0 0 512.000000 512.000000"
 preserveAspectRatio="xMidYMid meet">

<g transform="translate(0.000000,512.000000) scale(0.100000,-0.100000)"
fill="#000000" stroke="none">
<path d="M1222 4857 l-22 -23 0 -2275 0 -2276 23 -21 23 -22 835 0 836 0 21
23 22 23 0 2275 0 2276 -23 21 -23 22 -835 0 -836 0 -21 -23z m1573 -217 l0
-75 -135 -3 c-121 -2 -137 -5 -157 -24 -16 -15 -23 -33 -23 -58 0 -25 7 -43
23 -58 20 -19 36 -22 157 -24 l135 -3 0 -75 0 -75 -295 -3 c-286 -2 -295 -3
-317 -24 -31 -29 -31 -87 0 -116 22 -21 31 -22 317 -24 l295 -3 0 -75 0 -75
-135 -3 c-121 -2 -137 -5 -157 -24 -31 -29 -31 -87 0 -116 20 -19 36 -22 157
-24 l135 -3 0 -75 0 -75 -295 -3 c-286 -2 -295 -3 -317 -24 -31 -29 -31 -87 0
-116 22 -21 31 -22 317 -24 l295 -3 0 -75 0 -75 -135 -3 c-121 -2 -137 -5
-157 -24 -31 -29 -31 -87 0 -116 20 -19 36 -22 157 -24 l135 -3 0 -75 0 -75
-295 -3 c-286 -2 -295 -3 -317 -24 -16 -15 -23 -33 -23 -58 0 -25 7 -43 23
-58 22 -21 31 -22 317 -24 l295 -3 0 -75 0 -75 -135 -3 c-121 -2 -137 -5 -157
-24 -31 -29 -31 -87 0 -116 20 -19 36 -22 157 -24 l135 -3 0 -75 0 -75 -295
-3 c-286 -2 -295 -3 -317 -24 -31 -29 -31 -87 0 -116 22 -21 31 -22 317 -24
l295 -3 0 -75 0 -75 -135 -3 c-121 -2 -137 -5 -157 -24 -31 -29 -31 -87 0
-116 20 -19 36 -22 157 -24 l135 -3 0 -75 0 -75 -295 -3 c-286 -2 -295 -3
-317 -24 -31 -29 -31 -87 0 -116 22 -21 31 -22 317 -24 l295 -3 0 -75 0 -75
-135 -3 c-121 -2 -137 -5 -157 -24 -31 -29 -31 -87 0 -116 20 -19 36 -22 157
-24 l135 -3 0 -75 0 -75 -295 -3 c-286 -2 -295 -3 -317 -24 -31 -29 -31 -87 0
-116 22 -21 31 -22 317 -24 l295 -3 0 -75 0 -75 -135 -3 c-121 -2 -137 -5
-157 -24 -31 -29 -31 -87 0 -116 20 -19 36 -22 157 -24 l135 -3 0 -75 0 -75
-715 0 -715 0 -3 2145 c-1 1180 0 2151 3 2158 3 10 152 12 717 10 l713 -3 0
-75z"/>
<path d="M3302 4697 c-168 -168 -182 -185 -182 -218 0 -46 33 -79 81 -79 30 0
46 12 129 95 52 52 98 95 102 95 5 0 8 -913 8 -2030 0 -1117 -3 -2030 -8
-2030 -4 0 -50 43 -102 95 -84 85 -98 95 -131 95 -46 0 -79 -33 -79 -81 0 -31
16 -51 183 -217 167 -167 185 -182 217 -182 32 0 51 15 218 183 168 168 182
185 182 218 0 46 -33 79 -81 79 -30 0 -46 -12 -129 -95 -52 -52 -98 -95 -102
-95 -5 0 -8 913 -8 2030 0 1117 3 2030 8 2030 4 0 50 -43 102 -95 84 -85 98
-95 131 -95 46 0 79 33 79 81 0 31 -16 51 -183 217 -167 167 -185 182 -217
182 -32 0 -51 -15 -218 -183z"/>
</g>
</svg>
