<svg width="41" height="41" viewBox="0 0 41 41" fill="none" xmlns="http://www.w3.org/2000/svg">
<path d="M3.83042 0.115363C2.49264 0.403747 1.12281 1.47718 0.513999 2.71082C-0.41524 4.60935 -0.0627699 6.83632 1.39517 8.35835C3.31774 10.361 6.514 10.361 8.42855 8.35835C9.8945 6.82831 10.239 4.61736 9.30171 2.71883C8.87715 1.85368 7.9399 0.916431 7.09878 0.515897C6.04137 0.0112241 4.93589 -0.124957 3.83042 0.115363Z" fill="white"/>
<path d="M28.9519 13.0846C26.4766 13.5573 24.3698 14.903 23.0721 16.8496L22.6956 17.4104L22.6715 15.5038L22.6555 13.6053H18.5701H14.4846V27.3036V41.0018H18.7303H22.9759V33.8082C22.9759 29.3383 23.008 26.2782 23.0641 25.7095C23.3364 22.7856 24.4259 21.1594 26.4766 20.6147C27.2056 20.4144 28.4392 20.3743 29.1281 20.5265C30.4499 20.8069 31.1869 21.3757 31.7476 22.5292C32.4686 24.0352 32.5086 24.5639 32.5086 33.5599V41.0018H36.7543H41V32.7669C41 28.0566 40.9679 24.0593 40.9199 23.4184C40.6475 19.6454 39.8224 17.2422 38.2042 15.5119C37.1148 14.3503 35.6648 13.5973 33.7183 13.1888C32.6689 12.9725 29.8811 12.9164 28.9519 13.0846Z" fill="white"/>
<path d="M0.682295 13.6614C0.650253 13.6854 0.626221 19.8536 0.626221 27.3596V41.0018H4.91193H9.19765L9.18162 27.3196L9.15759 13.6454L4.94398 13.6213C2.62889 13.6133 0.706327 13.6293 0.682295 13.6614Z" fill="white"/>
</svg>
