<svg width="133" height="41" viewBox="0 0 133 41" fill="none" xmlns="http://www.w3.org/2000/svg">
<g filter="url(#filter0_d_10_198)">
<path d="M15.25 16.8887C15.2617 16.9121 15.3496 16.9941 15.5137 17.1348C15.6777 17.2637 15.9062 17.4102 16.1992 17.5742C16.5039 17.7383 16.873 17.8848 17.3066 18.0137C17.7402 18.1426 18.2324 18.207 18.7832 18.207C19.709 18.207 20.582 18.0312 21.4023 17.6797C22.2227 17.3281 22.9785 16.8652 23.6699 16.291C24.373 15.7168 25 15.0605 25.5508 14.3223C26.1133 13.584 26.5879 12.8281 26.9746 12.0547C27.3613 11.2812 27.6602 10.5195 27.8711 9.76953C28.082 9.01953 28.1875 8.3457 28.1875 7.74805C28.1875 7.0332 28.082 6.41211 27.8711 5.88477C27.6602 5.35742 27.373 4.92383 27.0098 4.58398C26.6582 4.24414 26.2363 3.99219 25.7441 3.82812C25.2637 3.66406 24.7422 3.58203 24.1797 3.58203C23.0664 3.58203 21.959 3.78125 20.8574 4.17969C19.7676 4.56641 18.707 5.09961 17.6758 5.7793C16.6445 6.45898 15.6543 7.26172 14.7051 8.1875C13.7559 9.10156 12.8711 10.0859 12.0508 11.1406C11.2305 12.1953 10.4863 13.2969 9.81836 14.4453C9.15039 15.582 8.57617 16.7129 8.0957 17.8379C7.62695 18.9629 7.26367 20.0586 7.00586 21.125C6.74805 22.1797 6.61914 23.1523 6.61914 24.043C6.61914 25.0742 6.76562 26.0469 7.05859 26.9609C7.36328 27.875 7.81445 28.6719 8.41211 29.3516C9.00977 30.0312 9.75391 30.5645 10.6445 30.9512C11.5469 31.3496 12.5957 31.5488 13.791 31.5488C14.8574 31.5488 15.9648 31.3848 17.1133 31.0566C18.2617 30.7285 19.4043 30.2012 20.541 29.4746C21.6895 28.748 22.8203 27.8105 23.9336 26.6621C25.0469 25.502 26.1133 24.0957 27.1328 22.4434L27.7656 22.9355C26.6641 24.7285 25.5156 26.2344 24.3203 27.4531C23.125 28.6719 21.9297 29.6504 20.7344 30.3887C19.5391 31.1387 18.3613 31.6719 17.2012 31.9883C16.041 32.3164 14.9395 32.4805 13.8965 32.4805C12.3965 32.4805 11.0723 32.2109 9.92383 31.6719C8.77539 31.1445 7.81445 30.4473 7.04102 29.5801C6.26758 28.7129 5.68164 27.7285 5.2832 26.627C4.89648 25.5137 4.70312 24.3828 4.70312 23.2344C4.70312 22.25 4.83789 21.2012 5.10742 20.0879C5.38867 18.9746 5.78125 17.8438 6.28516 16.6953C6.78906 15.5469 7.39258 14.3984 8.0957 13.25C8.81055 12.1016 9.60156 11.0059 10.4688 9.96289C11.3477 8.9082 12.2969 7.92969 13.3164 7.02734C14.3359 6.125 15.4023 5.3457 16.5156 4.68945C17.6406 4.02148 18.7949 3.5 19.9785 3.125C21.1738 2.73828 22.3867 2.54492 23.6172 2.54492C24.3906 2.54492 25.1289 2.65625 25.832 2.87891C26.5469 3.08984 27.1738 3.42969 27.7129 3.89844C28.252 4.36719 28.6797 4.9707 28.9961 5.70898C29.3125 6.43555 29.4707 7.31445 29.4707 8.3457C29.4707 9.03711 29.3652 9.78711 29.1543 10.5957C28.9434 11.4043 28.6328 12.2188 28.2227 13.0391C27.8242 13.8477 27.332 14.6328 26.7461 15.3945C26.1719 16.1562 25.5156 16.8301 24.7773 17.416C24.0508 17.9902 23.2422 18.4531 22.3516 18.8047C21.4727 19.1562 20.5352 19.332 19.5391 19.332C18.4727 19.332 17.541 19.1562 16.7441 18.8047C15.959 18.4414 15.2852 17.9961 14.7227 17.4688L15.25 16.8887ZM36.6869 24.2188C36.7337 24.2305 36.7806 24.2363 36.8275 24.2363C36.8744 24.2363 36.9271 24.2363 36.9857 24.2363C37.3138 24.2363 37.6127 24.207 37.8822 24.1484C38.1517 24.0781 38.3978 23.9727 38.6205 23.832C38.8548 23.6914 39.0775 23.5098 39.2884 23.2871C39.4994 23.0527 39.7045 22.7715 39.9037 22.4434L40.5365 22.9355C39.974 23.7324 39.3939 24.2891 38.7962 24.6055C38.1986 24.9219 37.5658 25.0801 36.8978 25.0801C36.6517 25.0801 36.4349 25.0566 36.2474 25.0098C35.7435 25.8535 35.2045 26.5742 34.6302 27.1719C34.056 27.7578 33.4701 28.2383 32.8724 28.6133C32.2748 28.9883 31.683 29.2578 31.097 29.4219C30.5111 29.5977 29.9662 29.6855 29.4623 29.6855C28.9466 29.6855 28.4662 29.5918 28.0209 29.4043C27.5873 29.2285 27.2123 28.9707 26.8959 28.6309C26.5795 28.291 26.3334 27.8867 26.1576 27.418C25.9818 26.9492 25.8939 26.4219 25.8939 25.8359C25.8939 25.25 25.9877 24.6523 26.1752 24.043C26.3627 23.4336 26.6146 22.8301 26.931 22.2324C27.2591 21.6348 27.64 21.0605 28.0736 20.5098C28.5072 19.9473 28.9759 19.4258 29.4798 18.9453C29.9837 18.4648 30.5052 18.0312 31.0443 17.6445C31.5834 17.2578 32.1224 16.9414 32.6615 16.6953L33.224 17.4336C32.6029 17.8789 31.9701 18.4414 31.3255 19.1211C30.6927 19.8008 30.1127 20.5449 29.5853 21.3535C29.0697 22.1621 28.642 23.0059 28.3021 23.8848C27.974 24.752 27.8099 25.5957 27.8099 26.416C27.8099 27.1543 27.974 27.7285 28.3021 28.1387C28.6302 28.5371 29.1283 28.7363 29.7962 28.7363C30.3119 28.7363 30.8216 28.6309 31.3255 28.4199C31.8295 28.209 32.3216 27.9219 32.8021 27.5586C33.2826 27.1953 33.7455 26.7676 34.1908 26.2754C34.6361 25.7715 35.058 25.2383 35.4564 24.6758C35.1166 24.4766 34.8177 24.2129 34.5599 23.8848C34.3021 23.5449 34.0853 23.1641 33.9095 22.7422C33.7337 22.3086 33.599 21.8457 33.5052 21.3535C33.4232 20.8613 33.3822 20.3574 33.3822 19.8418C33.3822 19.3262 33.4466 18.8398 33.5755 18.3828C33.7045 17.9258 33.8802 17.5273 34.1029 17.1875C34.3373 16.8359 34.6068 16.5605 34.9115 16.3613C35.2162 16.1621 35.5502 16.0625 35.9134 16.0625C36.2416 16.0625 36.5345 16.1504 36.7923 16.3262C37.0502 16.4902 37.267 16.7246 37.4427 17.0293C37.6185 17.3223 37.7533 17.6738 37.847 18.084C37.9408 18.4941 37.9877 18.9336 37.9877 19.4023C37.9877 19.7539 37.9584 20.1406 37.8998 20.5625C37.8412 20.9844 37.7533 21.4121 37.6361 21.8457C37.5306 22.2676 37.3959 22.6895 37.2318 23.1113C37.0795 23.5215 36.8978 23.8906 36.6869 24.2188ZM34.2962 19.8418C34.2962 20.1816 34.3255 20.5508 34.3841 20.9492C34.4427 21.3477 34.5365 21.7344 34.6654 22.1094C34.7943 22.4844 34.9584 22.8359 35.1576 23.1641C35.3568 23.4805 35.6029 23.7324 35.8959 23.9199C36.1068 23.5098 36.2826 23.0938 36.4232 22.6719C36.5755 22.2383 36.6986 21.8223 36.7923 21.4238C36.8978 21.0254 36.9681 20.6562 37.0033 20.3164C37.0502 19.9648 37.0736 19.6602 37.0736 19.4023C37.0736 19.0508 37.0443 18.7285 36.9857 18.4355C36.9271 18.1426 36.8451 17.8906 36.7396 17.6797C36.6459 17.457 36.5228 17.2871 36.3705 17.1699C36.2298 17.041 36.0716 16.9766 35.8959 16.9766C35.6615 16.9766 35.4447 17.0586 35.2455 17.2227C35.0462 17.375 34.8763 17.5859 34.7357 17.8555C34.5951 18.1133 34.4837 18.418 34.4017 18.7695C34.3314 19.1094 34.2962 19.4668 34.2962 19.8418ZM54.239 19.877C54.239 20.3809 54.1511 20.8965 53.9753 21.4238C53.7995 21.9395 53.5769 22.4609 53.3073 22.9883C53.0378 23.5039 52.7507 24.0137 52.446 24.5176C52.1413 25.0215 51.8542 25.5078 51.5847 25.9766C51.3152 26.4453 51.0925 26.8965 50.9167 27.3301C50.7409 27.752 50.653 28.1387 50.653 28.4902C50.653 28.7598 50.7116 28.9414 50.8288 29.0352C50.946 29.1289 51.0749 29.1758 51.2155 29.1758C51.6609 29.1758 52.1589 28.959 52.7097 28.5254C53.2605 28.0801 53.8171 27.5234 54.3796 26.8555C54.9538 26.1875 55.5222 25.4609 56.0847 24.6758C56.6472 23.8906 57.157 23.1465 57.614 22.4434L58.2468 22.9355C58.153 23.0762 57.9831 23.3574 57.737 23.7793C57.4909 24.1895 57.1862 24.6641 56.823 25.2031C56.4597 25.7305 56.0495 26.2871 55.5925 26.873C55.1472 27.4473 54.6667 27.9805 54.1511 28.4727C53.6355 28.9531 53.1023 29.3516 52.5515 29.668C52.0124 29.9844 51.4675 30.1426 50.9167 30.1426C50.6003 30.1426 50.3132 30.0898 50.0554 29.9844C49.7976 29.8789 49.5749 29.7324 49.3874 29.5449C49.2116 29.3574 49.071 29.1406 48.9655 28.8945C48.8601 28.6367 48.8073 28.3672 48.8073 28.0859C48.8073 27.6289 48.907 27.1367 49.1062 26.6094C49.3171 26.0703 49.5749 25.5195 49.8796 24.957C50.1843 24.3945 50.5183 23.832 50.8816 23.2695C51.2448 22.6953 51.5788 22.1504 51.8835 21.6348C52.1882 21.1191 52.4402 20.6445 52.6394 20.2109C52.8503 19.7656 52.9558 19.3848 52.9558 19.0684C52.9558 18.7051 52.8562 18.4004 52.657 18.1543C52.4695 17.9082 52.1999 17.7852 51.8484 17.7852C51.4734 17.7852 51.0398 17.9434 50.5476 18.2598C50.0554 18.5645 49.5046 19.0156 48.8952 19.6133C48.2859 20.2109 47.6179 20.9492 46.8913 21.8281C46.1765 22.6953 45.3972 23.6855 44.5534 24.7988C44.073 25.4434 43.6042 26.0645 43.1472 26.6621C42.948 26.9199 42.7487 27.1836 42.5495 27.4531C42.3503 27.7227 42.1511 27.9922 41.9519 28.2617C41.7527 28.5195 41.5652 28.7656 41.3894 29C41.2136 29.2461 41.0554 29.457 40.9148 29.6328L39.3679 29L41.4245 26.1699C41.7175 25.7715 42.0163 25.3438 42.321 24.8867C42.6257 24.4297 42.9245 23.9609 43.2175 23.4805C43.5222 22.9883 43.8093 22.4961 44.0788 22.0039C44.3484 21.5117 44.6003 21.0312 44.8347 20.5625C45.1745 19.8594 45.4089 19.2793 45.5378 18.8223C45.6667 18.3535 45.7312 17.9785 45.7312 17.6973C45.7312 17.3809 45.6726 17.1758 45.5554 17.082C45.4382 16.9766 45.2741 16.9238 45.0632 16.9238C44.8405 16.9238 44.5827 17.041 44.2898 17.2754C44.0085 17.498 43.7155 17.791 43.4109 18.1543C43.1062 18.5059 42.7956 18.9102 42.4792 19.3672C42.1745 19.8125 41.8816 20.2578 41.6003 20.7031C41.3191 21.1484 41.0554 21.5703 40.8093 21.9688C40.5632 22.3672 40.3581 22.6895 40.1941 22.9355L39.5612 22.4434C40.1589 21.5059 40.698 20.6504 41.1784 19.877C41.6706 19.0918 42.1394 18.418 42.5847 17.8555C43.0417 17.293 43.4812 16.8594 43.903 16.5547C44.3366 16.2383 44.7937 16.0801 45.2741 16.0801C45.532 16.0801 45.778 16.1328 46.0124 16.2383C46.2585 16.3438 46.4695 16.502 46.6452 16.7129C46.8327 16.9121 46.9792 17.1582 47.0847 17.4512C47.1902 17.7441 47.2429 18.084 47.2429 18.4707C47.2429 18.7754 47.2077 19.0918 47.1374 19.4199C47.653 18.916 48.1335 18.5 48.5788 18.1719C49.0241 17.8438 49.4343 17.5859 49.8093 17.3984C50.1843 17.1992 50.53 17.0586 50.8464 16.9766C51.1628 16.8945 51.4499 16.8535 51.7077 16.8535C51.9304 16.8535 52.1882 16.8945 52.4812 16.9766C52.7741 17.0586 53.0495 17.2109 53.3073 17.4336C53.5652 17.6562 53.782 17.9668 53.9577 18.3652C54.1452 18.752 54.239 19.2559 54.239 19.877ZM107.774 6.27148C107.797 6.13086 107.815 5.99609 107.826 5.86719C107.85 5.72656 107.861 5.5918 107.861 5.46289C107.861 4.9707 107.762 4.50195 107.563 4.05664C107.375 3.59961 107.094 3.20117 106.719 2.86133C106.356 2.50977 105.91 2.23437 105.383 2.03516C104.856 1.82422 104.264 1.71875 103.607 1.71875C102.916 1.71875 102.184 1.87109 101.41 2.17578C100.637 2.46875 99.8634 2.99023 99.0899 3.74023C98.3399 4.4668 97.5665 5.4043 96.7696 6.55273C95.9845 7.68945 95.1993 8.94922 94.4141 10.332C93.6407 11.7031 92.879 13.1504 92.129 14.6738C91.3907 16.1973 90.6876 17.6973 90.0196 19.1738C89.3516 20.6504 88.7364 22.0625 88.1739 23.4102C87.6114 24.7578 87.1251 25.9473 86.7149 26.9785C86.3048 27.998 85.9825 28.8184 85.7481 29.4395C85.5255 30.0605 85.4083 30.3828 85.3966 30.4062L84.5001 30.1777C84.3595 29.2754 84.2305 28.4609 84.1134 27.7344C84.0079 27.0078 83.9141 26.3105 83.8321 25.6426C83.7618 24.9746 83.7091 24.3125 83.6739 23.6562C83.6387 23 83.6212 22.2969 83.6212 21.5469C83.6212 20.9375 83.6446 20.2402 83.6915 19.4551C83.7501 18.6699 83.8262 17.8379 83.92 16.959C84.0255 16.0801 84.1427 15.1777 84.2716 14.252C84.4122 13.3262 84.5587 12.418 84.711 11.5273C84.8751 10.6367 85.045 9.79297 85.2208 8.99609C85.3966 8.1875 85.5782 7.46094 85.7657 6.81641C84.7696 8.30469 83.8555 9.80469 83.0235 11.3164C82.2032 12.8281 81.4239 14.3105 80.6856 15.7637C79.9473 17.2168 79.2325 18.6289 78.5411 20C77.8497 21.3594 77.1407 22.6367 76.4141 23.832C75.6876 25.0273 74.92 26.123 74.1114 27.1191C73.3028 28.1152 72.4122 28.9648 71.4395 29.668C70.4786 30.3828 69.4122 30.9336 68.2403 31.3203C67.0684 31.7188 65.7559 31.918 64.3028 31.918C63.2012 31.918 62.1583 31.7656 61.1739 31.4609C60.2012 31.1562 59.3458 30.7285 58.6075 30.1777C57.8692 29.627 57.2891 28.959 56.8673 28.1738C56.4337 27.3887 56.2169 26.5215 56.2169 25.5723C56.2169 24.4941 56.4512 23.5332 56.92 22.6895C57.377 21.834 57.9864 21.1191 58.7481 20.5449C59.5098 19.959 60.3887 19.5137 61.3848 19.209C62.3809 18.9043 63.4122 18.752 64.4786 18.752C65.088 18.752 65.7032 18.793 66.3243 18.875C66.9571 18.957 67.5723 19.0918 68.17 19.2793C68.7794 19.4668 69.3653 19.7188 69.9278 20.0352C70.4903 20.3398 71.0118 20.7207 71.4923 21.1777L70.8067 21.793C70.8067 21.793 70.6778 21.6875 70.42 21.4766C70.1739 21.2539 69.7989 21.0137 69.295 20.7559C68.8028 20.498 68.1759 20.2637 67.4141 20.0527C66.6524 19.8301 65.7618 19.7188 64.7423 19.7188C63.922 19.7188 63.1251 19.8359 62.3516 20.0703C61.5782 20.3047 60.8868 20.6504 60.2774 21.1074C59.6798 21.5645 59.1993 22.127 58.836 22.7949C58.4727 23.4629 58.2911 24.2363 58.2911 25.1152C58.2911 26.0176 58.4845 26.8262 58.8712 27.541C59.2579 28.2441 59.7735 28.8359 60.418 29.3164C61.0626 29.8086 61.795 30.1777 62.6153 30.4238C63.4356 30.6816 64.2794 30.8105 65.1466 30.8105C66.4356 30.8105 67.6016 30.5938 68.6446 30.1602C69.6993 29.7383 70.672 29.1406 71.5626 28.3672C72.4649 27.5938 73.3028 26.668 74.0762 25.5898C74.8614 24.5117 75.6231 23.3223 76.3614 22.0215C77.0997 20.7207 77.8438 19.332 78.5938 17.8555C79.3438 16.3672 80.1348 14.832 80.9669 13.25C81.7989 11.668 82.6954 10.0566 83.6563 8.41602C84.6173 6.77539 85.6778 5.14648 86.838 3.5293L87.6466 3.95117C87.2598 5.08789 86.9493 6.28906 86.7149 7.55469C86.4805 8.80859 86.2989 10.1035 86.17 11.4395C86.0528 12.7637 85.9708 14.1055 85.9239 15.4648C85.8887 16.8242 85.8653 18.166 85.8536 19.4902C85.8419 20.8145 85.8302 22.1094 85.8184 23.375C85.8184 24.6289 85.7891 25.8184 85.7305 26.9434C86.129 25.9238 86.6095 24.7344 87.172 23.375C87.7345 22.0156 88.3555 20.5801 89.0352 19.0684C89.7149 17.5566 90.4356 16.0215 91.1973 14.4629C91.9708 12.8926 92.7559 11.3926 93.5528 9.96289C94.3614 8.5332 95.1759 7.22656 95.9962 6.04297C96.8282 4.84766 97.6427 3.86328 98.4395 3.08984C99.3184 2.24609 100.197 1.6543 101.076 1.31445C101.967 0.962891 102.816 0.787109 103.625 0.787109C104.422 0.787109 105.137 0.921875 105.77 1.19141C106.414 1.44922 106.959 1.79492 107.404 2.22852C107.85 2.65039 108.19 3.14258 108.424 3.70508C108.658 4.26758 108.775 4.84766 108.775 5.44531C108.775 5.77344 108.74 6.11328 108.67 6.46484L107.774 6.27148ZM103.037 24.2188C103.083 24.2305 103.13 24.2363 103.177 24.2363C103.224 24.2363 103.277 24.2363 103.335 24.2363C103.664 24.2363 103.962 24.207 104.232 24.1484C104.501 24.0781 104.747 23.9727 104.97 23.832C105.205 23.6914 105.427 23.5098 105.638 23.2871C105.849 23.0527 106.054 22.7715 106.253 22.4434L106.886 22.9355C106.324 23.7324 105.744 24.2891 105.146 24.6055C104.548 24.9219 103.915 25.0801 103.247 25.0801C103.001 25.0801 102.785 25.0566 102.597 25.0098C102.093 25.8535 101.554 26.5742 100.98 27.1719C100.406 27.7578 99.8198 28.2383 99.2221 28.6133C98.6245 28.9883 98.0327 29.2578 97.4467 29.4219C96.8608 29.5977 96.3159 29.6855 95.812 29.6855C95.2963 29.6855 94.8159 29.5918 94.3705 29.4043C93.937 29.2285 93.562 28.9707 93.2455 28.6309C92.9291 28.291 92.683 27.8867 92.5073 27.418C92.3315 26.9492 92.2436 26.4219 92.2436 25.8359C92.2436 25.25 92.3373 24.6523 92.5248 24.043C92.7123 23.4336 92.9643 22.8301 93.2807 22.2324C93.6088 21.6348 93.9897 21.0605 94.4233 20.5098C94.8569 19.9473 95.3256 19.4258 95.8295 18.9453C96.3334 18.4648 96.8549 18.0312 97.394 17.6445C97.933 17.2578 98.4721 16.9414 99.0112 16.6953L99.5737 17.4336C98.9526 17.8789 98.3198 18.4414 97.6752 19.1211C97.0424 19.8008 96.4623 20.5449 95.935 21.3535C95.4194 22.1621 94.9916 23.0059 94.6518 23.8848C94.3237 24.752 94.1596 25.5957 94.1596 26.416C94.1596 27.1543 94.3237 27.7285 94.6518 28.1387C94.9799 28.5371 95.478 28.7363 96.1459 28.7363C96.6616 28.7363 97.1713 28.6309 97.6752 28.4199C98.1791 28.209 98.6713 27.9219 99.1518 27.5586C99.6323 27.1953 100.095 26.7676 100.54 26.2754C100.986 25.7715 101.408 25.2383 101.806 24.6758C101.466 24.4766 101.167 24.2129 100.91 23.8848C100.652 23.5449 100.435 23.1641 100.259 22.7422C100.083 22.3086 99.9487 21.8457 99.8549 21.3535C99.7729 20.8613 99.7319 20.3574 99.7319 19.8418C99.7319 19.3262 99.7963 18.8398 99.9252 18.3828C100.054 17.9258 100.23 17.5273 100.453 17.1875C100.687 16.8359 100.956 16.5605 101.261 16.3613C101.566 16.1621 101.9 16.0625 102.263 16.0625C102.591 16.0625 102.884 16.1504 103.142 16.3262C103.4 16.4902 103.617 16.7246 103.792 17.0293C103.968 17.3223 104.103 17.6738 104.197 18.084C104.29 18.4941 104.337 18.9336 104.337 19.4023C104.337 19.7539 104.308 20.1406 104.249 20.5625C104.191 20.9844 104.103 21.4121 103.986 21.8457C103.88 22.2676 103.746 22.6895 103.581 23.1113C103.429 23.5215 103.247 23.8906 103.037 24.2188ZM100.646 19.8418C100.646 20.1816 100.675 20.5508 100.734 20.9492C100.792 21.3477 100.886 21.7344 101.015 22.1094C101.144 22.4844 101.308 22.8359 101.507 23.1641C101.706 23.4805 101.953 23.7324 102.246 23.9199C102.456 23.5098 102.632 23.0938 102.773 22.6719C102.925 22.2383 103.048 21.8223 103.142 21.4238C103.247 21.0254 103.318 20.6562 103.353 20.3164C103.4 19.9648 103.423 19.6602 103.423 19.4023C103.423 19.0508 103.394 18.7285 103.335 18.4355C103.277 18.1426 103.195 17.8906 103.089 17.6797C102.996 17.457 102.872 17.2871 102.72 17.1699C102.58 17.041 102.421 16.9766 102.246 16.9766C102.011 16.9766 101.794 17.0586 101.595 17.2227C101.396 17.375 101.226 17.5859 101.085 17.8555C100.945 18.1133 100.833 18.418 100.751 18.7695C100.681 19.1094 100.646 19.4668 100.646 19.8418ZM109.479 14.498C109.596 14.2988 109.802 13.9531 110.095 13.4609C110.399 12.9688 110.751 12.4238 111.149 11.8262C111.559 11.2285 111.999 10.6309 112.468 10.0332C112.948 9.42383 113.417 8.9082 113.874 8.48633L114.665 8.96094C114.161 9.79297 113.645 10.6777 113.118 11.6152C112.591 12.541 112.069 13.502 111.554 14.498H117.284L116.932 15.4121H111.079C110.552 16.4668 110.054 17.5156 109.585 18.5586C109.128 19.6016 108.723 20.5977 108.372 21.5469C108.02 22.4961 107.745 23.3867 107.546 24.2188C107.346 25.0391 107.247 25.7539 107.247 26.3633C107.247 27.125 107.423 27.6758 107.774 28.0156C108.126 28.3438 108.559 28.5078 109.075 28.5078C109.532 28.5078 110.001 28.373 110.481 28.1035C110.962 27.8223 111.43 27.4707 111.887 27.0488C112.356 26.627 112.796 26.1641 113.206 25.6602C113.628 25.1562 113.997 24.6816 114.313 24.2363C114.641 23.791 114.911 23.4043 115.122 23.0762C115.333 22.7363 115.462 22.5254 115.509 22.4434L116.159 22.9355C115.749 23.6152 115.286 24.3359 114.77 25.0977C114.255 25.8594 113.68 26.5684 113.048 27.2246C112.427 27.8691 111.747 28.4082 111.009 28.8418C110.27 29.2637 109.473 29.4746 108.618 29.4746C108.091 29.4746 107.628 29.3809 107.229 29.1934C106.843 29.0059 106.514 28.748 106.245 28.4199C105.975 28.0801 105.776 27.6816 105.647 27.2246C105.507 26.7676 105.436 26.2695 105.436 25.7305C105.436 25.3789 105.495 24.8809 105.612 24.2363C105.718 23.5918 105.905 22.8301 106.175 21.9512C106.444 21.0605 106.802 20.0645 107.247 18.9629C107.704 17.8613 108.278 16.6777 108.97 15.4121H106.052L106.403 14.498H109.479ZM116.485 24.9922C116.461 25.1328 116.444 25.2734 116.432 25.4141C116.42 25.5547 116.414 25.6953 116.414 25.8359C116.414 26.2578 116.473 26.6621 116.59 27.0488C116.719 27.4238 116.901 27.7578 117.135 28.0508C117.381 28.332 117.68 28.5547 118.031 28.7188C118.395 28.8828 118.805 28.9648 119.262 28.9648C120.797 28.9648 122.279 28.4434 123.709 27.4004C125.139 26.3574 126.563 24.7051 127.981 22.4434L128.578 22.9707C127.805 24.2598 127.02 25.3496 126.223 26.2402C125.426 27.1191 124.629 27.834 123.832 28.3848C123.047 28.9355 122.274 29.334 121.512 29.5801C120.75 29.8262 120.024 29.9492 119.332 29.9492C118.828 29.9492 118.295 29.8789 117.733 29.7383C117.17 29.5977 116.649 29.3633 116.168 29.0352C115.699 28.707 115.313 28.2676 115.008 27.7168C114.692 27.166 114.533 26.4805 114.533 25.6602C114.533 24.7812 114.686 23.9375 114.99 23.1289C115.283 22.3086 115.67 21.5469 116.151 20.8438C116.631 20.1406 117.182 19.502 117.803 18.9277C118.424 18.3418 119.051 17.8438 119.684 17.4336C120.328 17.0234 120.955 16.707 121.565 16.4844C122.174 16.25 122.713 16.1328 123.182 16.1328C123.486 16.1328 123.797 16.1797 124.113 16.2734C124.43 16.3672 124.711 16.5137 124.957 16.7129C125.215 16.9121 125.42 17.1758 125.572 17.5039C125.736 17.832 125.819 18.2246 125.819 18.6816C125.819 19.3027 125.672 19.8887 125.379 20.4395C125.098 20.9785 124.717 21.4824 124.236 21.9512C123.756 22.4082 123.199 22.8242 122.567 23.1992C121.934 23.5625 121.272 23.873 120.58 24.1309C119.889 24.3887 119.192 24.5938 118.488 24.7461C117.785 24.8984 117.117 24.9805 116.485 24.9922ZM116.625 24.2363C117.41 24.1543 118.149 23.9902 118.84 23.7441C119.531 23.498 120.164 23.1992 120.738 22.8477C121.313 22.4844 121.822 22.0918 122.268 21.6699C122.725 21.248 123.106 20.8203 123.41 20.3867C123.715 19.9531 123.949 19.5371 124.113 19.1387C124.277 18.7402 124.36 18.3828 124.36 18.0664C124.36 17.75 124.272 17.498 124.096 17.3105C123.932 17.123 123.733 17.0293 123.498 17.0293C122.983 17.0293 122.402 17.2168 121.758 17.5918C121.113 17.9551 120.469 18.4648 119.824 19.1211C119.18 19.7656 118.57 20.5273 117.996 21.4062C117.434 22.2852 116.977 23.2285 116.625 24.2363Z" fill="#006A10"/>
</g>
<defs>
<filter id="filter0_d_10_198" x="0.703125" y="0.787109" width="131.875" height="39.6934" filterUnits="userSpaceOnUse" color-interpolation-filters="sRGB">
<feFlood flood-opacity="0" result="BackgroundImageFix"/>
<feColorMatrix in="SourceAlpha" type="matrix" values="0 0 0 0 0 0 0 0 0 0 0 0 0 0 0 0 0 0 127 0" result="hardAlpha"/>
<feOffset dy="4"/>
<feGaussianBlur stdDeviation="2"/>
<feComposite in2="hardAlpha" operator="out"/>
<feColorMatrix type="matrix" values="0 0 0 0 0 0 0 0 0 0 0 0 0 0 0 0 0 0 0.3 0"/>
<feBlend mode="normal" in2="BackgroundImageFix" result="effect1_dropShadow_10_198"/>
<feBlend mode="normal" in="SourceGraphic" in2="effect1_dropShadow_10_198" result="shape"/>
</filter>
</defs>
</svg>
