<svg width="125" height="33" viewBox="0 0 125 33" fill="none" xmlns="http://www.w3.org/2000/svg">
<path d="M11.25 16.8887C11.2617 16.9121 11.3496 16.9941 11.5137 17.1348C11.6777 17.2637 11.9062 17.4102 12.1992 17.5742C12.5039 17.7383 12.873 17.8848 13.3066 18.0137C13.7402 18.1426 14.2324 18.207 14.7832 18.207C15.709 18.207 16.582 18.0312 17.4023 17.6797C18.2227 17.3281 18.9785 16.8652 19.6699 16.291C20.373 15.7168 21 15.0605 21.5508 14.3223C22.1133 13.584 22.5879 12.8281 22.9746 12.0547C23.3613 11.2812 23.6602 10.5195 23.8711 9.76953C24.082 9.01953 24.1875 8.3457 24.1875 7.74805C24.1875 7.0332 24.082 6.41211 23.8711 5.88477C23.6602 5.35742 23.373 4.92383 23.0098 4.58398C22.6582 4.24414 22.2363 3.99219 21.7441 3.82812C21.2637 3.66406 20.7422 3.58203 20.1797 3.58203C19.0664 3.58203 17.959 3.78125 16.8574 4.17969C15.7676 4.56641 14.707 5.09961 13.6758 5.7793C12.6445 6.45898 11.6543 7.26172 10.7051 8.1875C9.75586 9.10156 8.87109 10.0859 8.05078 11.1406C7.23047 12.1953 6.48633 13.2969 5.81836 14.4453C5.15039 15.582 4.57617 16.7129 4.0957 17.8379C3.62695 18.9629 3.26367 20.0586 3.00586 21.125C2.74805 22.1797 2.61914 23.1523 2.61914 24.043C2.61914 25.0742 2.76562 26.0469 3.05859 26.9609C3.36328 27.875 3.81445 28.6719 4.41211 29.3516C5.00977 30.0312 5.75391 30.5645 6.64453 30.9512C7.54688 31.3496 8.5957 31.5488 9.79102 31.5488C10.8574 31.5488 11.9648 31.3848 13.1133 31.0566C14.2617 30.7285 15.4043 30.2012 16.541 29.4746C17.6895 28.748 18.8203 27.8105 19.9336 26.6621C21.0469 25.502 22.1133 24.0957 23.1328 22.4434L23.7656 22.9355C22.6641 24.7285 21.5156 26.2344 20.3203 27.4531C19.125 28.6719 17.9297 29.6504 16.7344 30.3887C15.5391 31.1387 14.3613 31.6719 13.2012 31.9883C12.041 32.3164 10.9395 32.4805 9.89648 32.4805C8.39648 32.4805 7.07227 32.2109 5.92383 31.6719C4.77539 31.1445 3.81445 30.4473 3.04102 29.5801C2.26758 28.7129 1.68164 27.7285 1.2832 26.627C0.896484 25.5137 0.703125 24.3828 0.703125 23.2344C0.703125 22.25 0.837891 21.2012 1.10742 20.0879C1.38867 18.9746 1.78125 17.8438 2.28516 16.6953C2.78906 15.5469 3.39258 14.3984 4.0957 13.25C4.81055 12.1016 5.60156 11.0059 6.46875 9.96289C7.34766 8.9082 8.29688 7.92969 9.31641 7.02734C10.3359 6.125 11.4023 5.3457 12.5156 4.68945C13.6406 4.02148 14.7949 3.5 15.9785 3.125C17.1738 2.73828 18.3867 2.54492 19.6172 2.54492C20.3906 2.54492 21.1289 2.65625 21.832 2.87891C22.5469 3.08984 23.1738 3.42969 23.7129 3.89844C24.252 4.36719 24.6797 4.9707 24.9961 5.70898C25.3125 6.43555 25.4707 7.31445 25.4707 8.3457C25.4707 9.03711 25.3652 9.78711 25.1543 10.5957C24.9434 11.4043 24.6328 12.2188 24.2227 13.0391C23.8242 13.8477 23.332 14.6328 22.7461 15.3945C22.1719 16.1562 21.5156 16.8301 20.7773 17.416C20.0508 17.9902 19.2422 18.4531 18.3516 18.8047C17.4727 19.1562 16.5352 19.332 15.5391 19.332C14.4727 19.332 13.541 19.1562 12.7441 18.8047C11.959 18.4414 11.2852 17.9961 10.7227 17.4688L11.25 16.8887ZM32.6869 24.2188C32.7337 24.2305 32.7806 24.2363 32.8275 24.2363C32.8744 24.2363 32.9271 24.2363 32.9857 24.2363C33.3138 24.2363 33.6127 24.207 33.8822 24.1484C34.1517 24.0781 34.3978 23.9727 34.6205 23.832C34.8548 23.6914 35.0775 23.5098 35.2884 23.2871C35.4994 23.0527 35.7045 22.7715 35.9037 22.4434L36.5365 22.9355C35.974 23.7324 35.3939 24.2891 34.7962 24.6055C34.1986 24.9219 33.5658 25.0801 32.8978 25.0801C32.6517 25.0801 32.4349 25.0566 32.2474 25.0098C31.7435 25.8535 31.2045 26.5742 30.6302 27.1719C30.056 27.7578 29.4701 28.2383 28.8724 28.6133C28.2748 28.9883 27.683 29.2578 27.097 29.4219C26.5111 29.5977 25.9662 29.6855 25.4623 29.6855C24.9466 29.6855 24.4662 29.5918 24.0209 29.4043C23.5873 29.2285 23.2123 28.9707 22.8959 28.6309C22.5795 28.291 22.3334 27.8867 22.1576 27.418C21.9818 26.9492 21.8939 26.4219 21.8939 25.8359C21.8939 25.25 21.9877 24.6523 22.1752 24.043C22.3627 23.4336 22.6146 22.8301 22.931 22.2324C23.2591 21.6348 23.64 21.0605 24.0736 20.5098C24.5072 19.9473 24.9759 19.4258 25.4798 18.9453C25.9837 18.4648 26.5052 18.0312 27.0443 17.6445C27.5834 17.2578 28.1224 16.9414 28.6615 16.6953L29.224 17.4336C28.6029 17.8789 27.9701 18.4414 27.3255 19.1211C26.6927 19.8008 26.1127 20.5449 25.5853 21.3535C25.0697 22.1621 24.642 23.0059 24.3021 23.8848C23.974 24.752 23.8099 25.5957 23.8099 26.416C23.8099 27.1543 23.974 27.7285 24.3021 28.1387C24.6302 28.5371 25.1283 28.7363 25.7962 28.7363C26.3119 28.7363 26.8216 28.6309 27.3255 28.4199C27.8295 28.209 28.3216 27.9219 28.8021 27.5586C29.2826 27.1953 29.7455 26.7676 30.1908 26.2754C30.6361 25.7715 31.058 25.2383 31.4564 24.6758C31.1166 24.4766 30.8177 24.2129 30.5599 23.8848C30.3021 23.5449 30.0853 23.1641 29.9095 22.7422C29.7337 22.3086 29.599 21.8457 29.5052 21.3535C29.4232 20.8613 29.3822 20.3574 29.3822 19.8418C29.3822 19.3262 29.4466 18.8398 29.5755 18.3828C29.7045 17.9258 29.8802 17.5273 30.1029 17.1875C30.3373 16.8359 30.6068 16.5605 30.9115 16.3613C31.2162 16.1621 31.5502 16.0625 31.9134 16.0625C32.2416 16.0625 32.5345 16.1504 32.7923 16.3262C33.0502 16.4902 33.267 16.7246 33.4427 17.0293C33.6185 17.3223 33.7533 17.6738 33.847 18.084C33.9408 18.4941 33.9877 18.9336 33.9877 19.4023C33.9877 19.7539 33.9584 20.1406 33.8998 20.5625C33.8412 20.9844 33.7533 21.4121 33.6361 21.8457C33.5306 22.2676 33.3959 22.6895 33.2318 23.1113C33.0795 23.5215 32.8978 23.8906 32.6869 24.2188ZM30.2962 19.8418C30.2962 20.1816 30.3255 20.5508 30.3841 20.9492C30.4427 21.3477 30.5365 21.7344 30.6654 22.1094C30.7943 22.4844 30.9584 22.8359 31.1576 23.1641C31.3568 23.4805 31.6029 23.7324 31.8959 23.9199C32.1068 23.5098 32.2826 23.0938 32.4232 22.6719C32.5755 22.2383 32.6986 21.8223 32.7923 21.4238C32.8978 21.0254 32.9681 20.6562 33.0033 20.3164C33.0502 19.9648 33.0736 19.6602 33.0736 19.4023C33.0736 19.0508 33.0443 18.7285 32.9857 18.4355C32.9271 18.1426 32.8451 17.8906 32.7396 17.6797C32.6459 17.457 32.5228 17.2871 32.3705 17.1699C32.2298 17.041 32.0716 16.9766 31.8959 16.9766C31.6615 16.9766 31.4447 17.0586 31.2455 17.2227C31.0462 17.375 30.8763 17.5859 30.7357 17.8555C30.5951 18.1133 30.4837 18.418 30.4017 18.7695C30.3314 19.1094 30.2962 19.4668 30.2962 19.8418ZM50.239 19.877C50.239 20.3809 50.1511 20.8965 49.9753 21.4238C49.7995 21.9395 49.5769 22.4609 49.3073 22.9883C49.0378 23.5039 48.7507 24.0137 48.446 24.5176C48.1413 25.0215 47.8542 25.5078 47.5847 25.9766C47.3152 26.4453 47.0925 26.8965 46.9167 27.3301C46.7409 27.752 46.653 28.1387 46.653 28.4902C46.653 28.7598 46.7116 28.9414 46.8288 29.0352C46.946 29.1289 47.0749 29.1758 47.2155 29.1758C47.6609 29.1758 48.1589 28.959 48.7097 28.5254C49.2605 28.0801 49.8171 27.5234 50.3796 26.8555C50.9538 26.1875 51.5222 25.4609 52.0847 24.6758C52.6472 23.8906 53.157 23.1465 53.614 22.4434L54.2468 22.9355C54.153 23.0762 53.9831 23.3574 53.737 23.7793C53.4909 24.1895 53.1862 24.6641 52.823 25.2031C52.4597 25.7305 52.0495 26.2871 51.5925 26.873C51.1472 27.4473 50.6667 27.9805 50.1511 28.4727C49.6355 28.9531 49.1023 29.3516 48.5515 29.668C48.0124 29.9844 47.4675 30.1426 46.9167 30.1426C46.6003 30.1426 46.3132 30.0898 46.0554 29.9844C45.7976 29.8789 45.5749 29.7324 45.3874 29.5449C45.2116 29.3574 45.071 29.1406 44.9655 28.8945C44.8601 28.6367 44.8073 28.3672 44.8073 28.0859C44.8073 27.6289 44.907 27.1367 45.1062 26.6094C45.3171 26.0703 45.5749 25.5195 45.8796 24.957C46.1843 24.3945 46.5183 23.832 46.8816 23.2695C47.2448 22.6953 47.5788 22.1504 47.8835 21.6348C48.1882 21.1191 48.4402 20.6445 48.6394 20.2109C48.8503 19.7656 48.9558 19.3848 48.9558 19.0684C48.9558 18.7051 48.8562 18.4004 48.657 18.1543C48.4695 17.9082 48.1999 17.7852 47.8484 17.7852C47.4734 17.7852 47.0398 17.9434 46.5476 18.2598C46.0554 18.5645 45.5046 19.0156 44.8952 19.6133C44.2859 20.2109 43.6179 20.9492 42.8913 21.8281C42.1765 22.6953 41.3972 23.6855 40.5534 24.7988C40.073 25.4434 39.6042 26.0645 39.1472 26.6621C38.948 26.9199 38.7487 27.1836 38.5495 27.4531C38.3503 27.7227 38.1511 27.9922 37.9519 28.2617C37.7527 28.5195 37.5652 28.7656 37.3894 29C37.2136 29.2461 37.0554 29.457 36.9148 29.6328L35.3679 29L37.4245 26.1699C37.7175 25.7715 38.0163 25.3438 38.321 24.8867C38.6257 24.4297 38.9245 23.9609 39.2175 23.4805C39.5222 22.9883 39.8093 22.4961 40.0788 22.0039C40.3484 21.5117 40.6003 21.0312 40.8347 20.5625C41.1745 19.8594 41.4089 19.2793 41.5378 18.8223C41.6667 18.3535 41.7312 17.9785 41.7312 17.6973C41.7312 17.3809 41.6726 17.1758 41.5554 17.082C41.4382 16.9766 41.2741 16.9238 41.0632 16.9238C40.8405 16.9238 40.5827 17.041 40.2898 17.2754C40.0085 17.498 39.7155 17.791 39.4109 18.1543C39.1062 18.5059 38.7956 18.9102 38.4792 19.3672C38.1745 19.8125 37.8816 20.2578 37.6003 20.7031C37.3191 21.1484 37.0554 21.5703 36.8093 21.9688C36.5632 22.3672 36.3581 22.6895 36.1941 22.9355L35.5612 22.4434C36.1589 21.5059 36.698 20.6504 37.1784 19.877C37.6706 19.0918 38.1394 18.418 38.5847 17.8555C39.0417 17.293 39.4812 16.8594 39.903 16.5547C40.3366 16.2383 40.7937 16.0801 41.2741 16.0801C41.532 16.0801 41.778 16.1328 42.0124 16.2383C42.2585 16.3438 42.4695 16.502 42.6452 16.7129C42.8327 16.9121 42.9792 17.1582 43.0847 17.4512C43.1902 17.7441 43.2429 18.084 43.2429 18.4707C43.2429 18.7754 43.2077 19.0918 43.1374 19.4199C43.653 18.916 44.1335 18.5 44.5788 18.1719C45.0241 17.8438 45.4343 17.5859 45.8093 17.3984C46.1843 17.1992 46.53 17.0586 46.8464 16.9766C47.1628 16.8945 47.4499 16.8535 47.7077 16.8535C47.9304 16.8535 48.1882 16.8945 48.4812 16.9766C48.7741 17.0586 49.0495 17.2109 49.3073 17.4336C49.5652 17.6562 49.782 17.9668 49.9577 18.3652C50.1452 18.752 50.239 19.2559 50.239 19.877ZM103.774 6.27148C103.797 6.13086 103.815 5.99609 103.826 5.86719C103.85 5.72656 103.861 5.5918 103.861 5.46289C103.861 4.9707 103.762 4.50195 103.563 4.05664C103.375 3.59961 103.094 3.20117 102.719 2.86133C102.356 2.50977 101.91 2.23437 101.383 2.03516C100.856 1.82422 100.264 1.71875 99.6075 1.71875C98.9161 1.71875 98.1837 1.87109 97.4102 2.17578C96.6368 2.46875 95.8634 2.99023 95.0899 3.74023C94.3399 4.4668 93.5665 5.4043 92.7696 6.55273C91.9845 7.68945 91.1993 8.94922 90.4141 10.332C89.6407 11.7031 88.879 13.1504 88.129 14.6738C87.3907 16.1973 86.6876 17.6973 86.0196 19.1738C85.3516 20.6504 84.7364 22.0625 84.1739 23.4102C83.6114 24.7578 83.1251 25.9473 82.7149 26.9785C82.3048 27.998 81.9825 28.8184 81.7481 29.4395C81.5255 30.0605 81.4083 30.3828 81.3966 30.4062L80.5001 30.1777C80.3595 29.2754 80.2305 28.4609 80.1134 27.7344C80.0079 27.0078 79.9141 26.3105 79.8321 25.6426C79.7618 24.9746 79.7091 24.3125 79.6739 23.6562C79.6387 23 79.6212 22.2969 79.6212 21.5469C79.6212 20.9375 79.6446 20.2402 79.6915 19.4551C79.7501 18.6699 79.8262 17.8379 79.92 16.959C80.0255 16.0801 80.1427 15.1777 80.2716 14.252C80.4122 13.3262 80.5587 12.418 80.711 11.5273C80.8751 10.6367 81.045 9.79297 81.2208 8.99609C81.3966 8.1875 81.5782 7.46094 81.7657 6.81641C80.7696 8.30469 79.8555 9.80469 79.0235 11.3164C78.2032 12.8281 77.4239 14.3105 76.6856 15.7637C75.9473 17.2168 75.2325 18.6289 74.5411 20C73.8497 21.3594 73.1407 22.6367 72.4141 23.832C71.6876 25.0273 70.92 26.123 70.1114 27.1191C69.3028 28.1152 68.4122 28.9648 67.4395 29.668C66.4786 30.3828 65.4122 30.9336 64.2403 31.3203C63.0684 31.7188 61.7559 31.918 60.3028 31.918C59.2012 31.918 58.1583 31.7656 57.1739 31.4609C56.2012 31.1562 55.3458 30.7285 54.6075 30.1777C53.8692 29.627 53.2891 28.959 52.8673 28.1738C52.4337 27.3887 52.2169 26.5215 52.2169 25.5723C52.2169 24.4941 52.4512 23.5332 52.92 22.6895C53.377 21.834 53.9864 21.1191 54.7481 20.5449C55.5098 19.959 56.3887 19.5137 57.3848 19.209C58.3809 18.9043 59.4122 18.752 60.4786 18.752C61.088 18.752 61.7032 18.793 62.3243 18.875C62.9571 18.957 63.5723 19.0918 64.17 19.2793C64.7794 19.4668 65.3653 19.7188 65.9278 20.0352C66.4903 20.3398 67.0118 20.7207 67.4923 21.1777L66.8067 21.793C66.8067 21.793 66.6778 21.6875 66.42 21.4766C66.1739 21.2539 65.7989 21.0137 65.295 20.7559C64.8028 20.498 64.1759 20.2637 63.4141 20.0527C62.6524 19.8301 61.7618 19.7188 60.7423 19.7188C59.922 19.7188 59.1251 19.8359 58.3516 20.0703C57.5782 20.3047 56.8868 20.6504 56.2774 21.1074C55.6798 21.5645 55.1993 22.127 54.836 22.7949C54.4727 23.4629 54.2911 24.2363 54.2911 25.1152C54.2911 26.0176 54.4845 26.8262 54.8712 27.541C55.2579 28.2441 55.7735 28.8359 56.418 29.3164C57.0626 29.8086 57.795 30.1777 58.6153 30.4238C59.4356 30.6816 60.2794 30.8105 61.1466 30.8105C62.4356 30.8105 63.6016 30.5938 64.6446 30.1602C65.6993 29.7383 66.672 29.1406 67.5626 28.3672C68.4649 27.5938 69.3028 26.668 70.0762 25.5898C70.8614 24.5117 71.6231 23.3223 72.3614 22.0215C73.0997 20.7207 73.8438 19.332 74.5938 17.8555C75.3438 16.3672 76.1348 14.832 76.9669 13.25C77.7989 11.668 78.6954 10.0566 79.6563 8.41602C80.6173 6.77539 81.6778 5.14648 82.838 3.5293L83.6466 3.95117C83.2598 5.08789 82.9493 6.28906 82.7149 7.55469C82.4805 8.80859 82.2989 10.1035 82.17 11.4395C82.0528 12.7637 81.9708 14.1055 81.9239 15.4648C81.8887 16.8242 81.8653 18.166 81.8536 19.4902C81.8419 20.8145 81.8302 22.1094 81.8184 23.375C81.8184 24.6289 81.7891 25.8184 81.7305 26.9434C82.129 25.9238 82.6095 24.7344 83.172 23.375C83.7345 22.0156 84.3555 20.5801 85.0352 19.0684C85.7149 17.5566 86.4356 16.0215 87.1973 14.4629C87.9708 12.8926 88.7559 11.3926 89.5528 9.96289C90.3614 8.5332 91.1759 7.22656 91.9962 6.04297C92.8282 4.84766 93.6427 3.86328 94.4395 3.08984C95.3184 2.24609 96.1973 1.6543 97.0762 1.31445C97.9669 0.962891 98.8165 0.787109 99.6251 0.787109C100.422 0.787109 101.137 0.921875 101.77 1.19141C102.414 1.44922 102.959 1.79492 103.404 2.22852C103.85 2.65039 104.19 3.14258 104.424 3.70508C104.658 4.26758 104.775 4.84766 104.775 5.44531C104.775 5.77344 104.74 6.11328 104.67 6.46484L103.774 6.27148ZM99.0366 24.2188C99.0834 24.2305 99.1303 24.2363 99.1772 24.2363C99.2241 24.2363 99.2768 24.2363 99.3354 24.2363C99.6635 24.2363 99.9623 24.207 100.232 24.1484C100.501 24.0781 100.747 23.9727 100.97 23.832C101.205 23.6914 101.427 23.5098 101.638 23.2871C101.849 23.0527 102.054 22.7715 102.253 22.4434L102.886 22.9355C102.324 23.7324 101.744 24.2891 101.146 24.6055C100.548 24.9219 99.9155 25.0801 99.2475 25.0801C99.0014 25.0801 98.7846 25.0566 98.5971 25.0098C98.0932 25.8535 97.5541 26.5742 96.9799 27.1719C96.4057 27.7578 95.8198 28.2383 95.2221 28.6133C94.6245 28.9883 94.0327 29.2578 93.4467 29.4219C92.8608 29.5977 92.3159 29.6855 91.812 29.6855C91.2963 29.6855 90.8159 29.5918 90.3705 29.4043C89.937 29.2285 89.562 28.9707 89.2455 28.6309C88.9291 28.291 88.683 27.8867 88.5073 27.418C88.3315 26.9492 88.2436 26.4219 88.2436 25.8359C88.2436 25.25 88.3373 24.6523 88.5248 24.043C88.7123 23.4336 88.9643 22.8301 89.2807 22.2324C89.6088 21.6348 89.9897 21.0605 90.4233 20.5098C90.8569 19.9473 91.3256 19.4258 91.8295 18.9453C92.3334 18.4648 92.8549 18.0312 93.394 17.6445C93.933 17.2578 94.4721 16.9414 95.0112 16.6953L95.5737 17.4336C94.9526 17.8789 94.3198 18.4414 93.6752 19.1211C93.0424 19.8008 92.4623 20.5449 91.935 21.3535C91.4194 22.1621 90.9916 23.0059 90.6518 23.8848C90.3237 24.752 90.1596 25.5957 90.1596 26.416C90.1596 27.1543 90.3237 27.7285 90.6518 28.1387C90.9799 28.5371 91.478 28.7363 92.1459 28.7363C92.6616 28.7363 93.1713 28.6309 93.6752 28.4199C94.1791 28.209 94.6713 27.9219 95.1518 27.5586C95.6323 27.1953 96.0952 26.7676 96.5405 26.2754C96.9858 25.7715 97.4077 25.2383 97.8061 24.6758C97.4662 24.4766 97.1674 24.2129 96.9096 23.8848C96.6518 23.5449 96.435 23.1641 96.2592 22.7422C96.0834 22.3086 95.9487 21.8457 95.8549 21.3535C95.7729 20.8613 95.7319 20.3574 95.7319 19.8418C95.7319 19.3262 95.7963 18.8398 95.9252 18.3828C96.0541 17.9258 96.2299 17.5273 96.4526 17.1875C96.687 16.8359 96.9565 16.5605 97.2612 16.3613C97.5659 16.1621 97.8998 16.0625 98.2631 16.0625C98.5912 16.0625 98.8842 16.1504 99.142 16.3262C99.3998 16.4902 99.6166 16.7246 99.7924 17.0293C99.9682 17.3223 100.103 17.6738 100.197 18.084C100.29 18.4941 100.337 18.9336 100.337 19.4023C100.337 19.7539 100.308 20.1406 100.249 20.5625C100.191 20.9844 100.103 21.4121 99.9858 21.8457C99.8803 22.2676 99.7455 22.6895 99.5815 23.1113C99.4291 23.5215 99.2475 23.8906 99.0366 24.2188ZM96.6459 19.8418C96.6459 20.1816 96.6752 20.5508 96.7338 20.9492C96.7924 21.3477 96.8862 21.7344 97.0151 22.1094C97.144 22.4844 97.308 22.8359 97.5073 23.1641C97.7065 23.4805 97.9526 23.7324 98.2455 23.9199C98.4565 23.5098 98.6323 23.0938 98.7729 22.6719C98.9252 22.2383 99.0483 21.8223 99.142 21.4238C99.2475 21.0254 99.3178 20.6562 99.353 20.3164C99.3998 19.9648 99.4233 19.6602 99.4233 19.4023C99.4233 19.0508 99.394 18.7285 99.3354 18.4355C99.2768 18.1426 99.1948 17.8906 99.0893 17.6797C98.9955 17.457 98.8725 17.2871 98.7202 17.1699C98.5795 17.041 98.4213 16.9766 98.2455 16.9766C98.0112 16.9766 97.7944 17.0586 97.5952 17.2227C97.3959 17.375 97.226 17.5859 97.0854 17.8555C96.9448 18.1133 96.8334 18.418 96.7514 18.7695C96.6811 19.1094 96.6459 19.4668 96.6459 19.8418ZM105.479 14.498C105.596 14.2988 105.802 13.9531 106.095 13.4609C106.399 12.9688 106.751 12.4238 107.149 11.8262C107.559 11.2285 107.999 10.6309 108.468 10.0332C108.948 9.42383 109.417 8.9082 109.874 8.48633L110.665 8.96094C110.161 9.79297 109.645 10.6777 109.118 11.6152C108.591 12.541 108.069 13.502 107.554 14.498H113.284L112.932 15.4121H107.079C106.552 16.4668 106.054 17.5156 105.585 18.5586C105.128 19.6016 104.723 20.5977 104.372 21.5469C104.02 22.4961 103.745 23.3867 103.546 24.2188C103.346 25.0391 103.247 25.7539 103.247 26.3633C103.247 27.125 103.423 27.6758 103.774 28.0156C104.126 28.3438 104.559 28.5078 105.075 28.5078C105.532 28.5078 106.001 28.373 106.481 28.1035C106.962 27.8223 107.43 27.4707 107.887 27.0488C108.356 26.627 108.796 26.1641 109.206 25.6602C109.628 25.1562 109.997 24.6816 110.313 24.2363C110.641 23.791 110.911 23.4043 111.122 23.0762C111.333 22.7363 111.462 22.5254 111.509 22.4434L112.159 22.9355C111.749 23.6152 111.286 24.3359 110.77 25.0977C110.255 25.8594 109.68 26.5684 109.048 27.2246C108.427 27.8691 107.747 28.4082 107.009 28.8418C106.27 29.2637 105.473 29.4746 104.618 29.4746C104.091 29.4746 103.628 29.3809 103.229 29.1934C102.843 29.0059 102.514 28.748 102.245 28.4199C101.975 28.0801 101.776 27.6816 101.647 27.2246C101.507 26.7676 101.436 26.2695 101.436 25.7305C101.436 25.3789 101.495 24.8809 101.612 24.2363C101.718 23.5918 101.905 22.8301 102.175 21.9512C102.444 21.0605 102.802 20.0645 103.247 18.9629C103.704 17.8613 104.278 16.6777 104.97 15.4121H102.052L102.403 14.498H105.479ZM112.485 24.9922C112.461 25.1328 112.444 25.2734 112.432 25.4141C112.42 25.5547 112.414 25.6953 112.414 25.8359C112.414 26.2578 112.473 26.6621 112.59 27.0488C112.719 27.4238 112.901 27.7578 113.135 28.0508C113.381 28.332 113.68 28.5547 114.031 28.7188C114.395 28.8828 114.805 28.9648 115.262 28.9648C116.797 28.9648 118.279 28.4434 119.709 27.4004C121.139 26.3574 122.563 24.7051 123.981 22.4434L124.578 22.9707C123.805 24.2598 123.02 25.3496 122.223 26.2402C121.426 27.1191 120.629 27.834 119.832 28.3848C119.047 28.9355 118.274 29.334 117.512 29.5801C116.75 29.8262 116.024 29.9492 115.332 29.9492C114.828 29.9492 114.295 29.8789 113.733 29.7383C113.17 29.5977 112.649 29.3633 112.168 29.0352C111.699 28.707 111.313 28.2676 111.008 27.7168C110.692 27.166 110.533 26.4805 110.533 25.6602C110.533 24.7812 110.686 23.9375 110.99 23.1289C111.283 22.3086 111.67 21.5469 112.151 20.8438C112.631 20.1406 113.182 19.502 113.803 18.9277C114.424 18.3418 115.051 17.8438 115.684 17.4336C116.328 17.0234 116.955 16.707 117.565 16.4844C118.174 16.25 118.713 16.1328 119.182 16.1328C119.486 16.1328 119.797 16.1797 120.113 16.2734C120.43 16.3672 120.711 16.5137 120.957 16.7129C121.215 16.9121 121.42 17.1758 121.572 17.5039C121.736 17.832 121.819 18.2246 121.819 18.6816C121.819 19.3027 121.672 19.8887 121.379 20.4395C121.098 20.9785 120.717 21.4824 120.236 21.9512C119.756 22.4082 119.199 22.8242 118.567 23.1992C117.934 23.5625 117.272 23.873 116.58 24.1309C115.889 24.3887 115.192 24.5938 114.488 24.7461C113.785 24.8984 113.117 24.9805 112.485 24.9922ZM112.625 24.2363C113.41 24.1543 114.149 23.9902 114.84 23.7441C115.531 23.498 116.164 23.1992 116.738 22.8477C117.313 22.4844 117.822 22.0918 118.268 21.6699C118.725 21.248 119.106 20.8203 119.41 20.3867C119.715 19.9531 119.949 19.5371 120.113 19.1387C120.277 18.7402 120.36 18.3828 120.36 18.0664C120.36 17.75 120.272 17.498 120.096 17.3105C119.932 17.123 119.733 17.0293 119.498 17.0293C118.983 17.0293 118.402 17.2168 117.758 17.5918C117.113 17.9551 116.469 18.4648 115.824 19.1211C115.18 19.7656 114.57 20.5273 113.996 21.4062C113.434 22.2852 112.977 23.2285 112.625 24.2363Z" fill="#006A10"/>
</svg>
