<svg width="24" height="24" viewBox="0 0 24 24" fill="none" xmlns="http://www.w3.org/2000/svg">
<g clip-path="url(#clip0_142_32)">
<path d="M11.1099 0.0515455C8.55985 0.337483 6.24423 1.95467 5.0911 4.25155C4.17235 6.09373 4.01767 8.21717 4.66923 10.1672C5.04423 11.2922 5.56923 12.1359 6.58173 13.2375C7.52392 14.2594 7.85204 14.7797 8.18485 15.7734C8.44735 16.5656 8.48485 16.9453 8.48485 18.9984C8.48485 20.4797 8.49892 20.8828 8.55985 21.1781C8.94892 23.0719 10.8192 24.314 12.6895 23.925C13.1536 23.8312 13.4489 23.714 13.852 23.4609C14.4192 23.1094 14.9349 22.5187 15.2161 21.8953C15.4739 21.3187 15.4786 21.2719 15.5161 18.9375C15.5536 16.6031 15.5583 16.5375 15.8255 15.7265C16.1208 14.8312 16.5099 14.2265 17.4005 13.2609C17.7614 12.8625 18.1645 12.389 18.2911 12.2109C21.0474 8.29686 19.7067 2.93905 15.4364 0.801546C14.9395 0.553108 14.4849 0.389046 13.8755 0.239046C12.9474 0.0140455 12.0239 -0.0515795 11.1099 0.0515455ZM12.9145 1.47655C13.6083 1.57967 14.1614 1.75311 14.7895 2.06248C16.5567 2.9203 17.7802 4.49061 18.1974 6.43592C18.3333 7.07342 18.3427 8.30623 18.2208 8.91561C17.9583 10.214 17.4286 11.1797 16.3692 12.2953C16.0411 12.6422 15.6427 13.1062 15.4833 13.3312C14.8786 14.1844 14.3864 15.3562 14.2177 16.3687L14.138 16.875H12.0005H9.86298L9.78329 16.3687C9.62392 15.4312 9.19735 14.3531 8.66298 13.5469C8.34423 13.0687 8.17548 12.8672 7.56142 12.225C6.57704 11.189 6.03798 10.1859 5.78017 8.91561C5.65829 8.30623 5.66767 7.07342 5.8036 6.43592C6.36142 3.82967 8.41454 1.88905 11.0395 1.48123C11.6067 1.39217 12.3427 1.39217 12.9145 1.47655ZM14.1099 19.4765C14.1099 20.1797 14.0864 20.7703 14.0583 20.9156C13.8802 21.75 13.1911 22.4109 12.3333 22.5562C11.2458 22.7437 10.177 22.0078 9.94267 20.9156C9.91454 20.7656 9.8911 20.1844 9.8911 19.4765V18.2812H12.0005H14.1099V19.4765Z" fill="currentColor"/>
<path d="M11.5078 4.28437C11.1141 4.38281 10.8187 4.55156 10.5187 4.85156C10.0594 5.30625 9.89062 5.775 9.89062 6.58594V7.03125H10.5937H11.2969V6.60937C11.2969 6.09375 11.3812 5.8875 11.6625 5.72812C11.8922 5.60156 12.0891 5.59687 12.3281 5.71875C12.6469 5.88281 12.7922 6.31875 12.6328 6.62344C12.5953 6.69375 12.3984 6.90937 12.1922 7.10156C11.5547 7.70625 11.3016 8.34375 11.2969 9.3375V9.84375H11.9953H12.6937L12.7125 9.29062C12.7359 8.60625 12.7969 8.475 13.3547 7.92187C13.8187 7.46719 13.9828 7.17656 14.0719 6.66094C14.1844 6 13.9687 5.34375 13.4766 4.84687C12.9516 4.31719 12.2156 4.10625 11.5078 4.28437Z" fill="currentColor"/>
<path d="M11.2969 11.9531V12.6562H12H12.7031V11.9531V11.25H12H11.2969V11.9531Z" fill="currentColor"/>
<path d="M1.21875 2.60156L0.726562 3.09375L1.77188 4.13906L2.8125 5.17969L3.31406 4.67344L3.82031 4.17187L2.78906 3.14062C2.22188 2.57344 1.74844 2.10937 1.73438 2.10937C1.72031 2.10937 1.49063 2.32969 1.21875 2.60156Z" fill="currentColor"/>
<path d="M21.2109 3.14062L20.1797 4.17187L20.6859 4.67344L21.1875 5.17969L22.2281 4.13906L23.2734 3.09375L22.7813 2.60156C22.5094 2.32969 22.2797 2.10937 22.2656 2.10937C22.2516 2.10937 21.7781 2.57344 21.2109 3.14062Z" fill="currentColor"/>
<path d="M0 7.73437V8.4375H1.42969H2.85938V7.73437V7.03125H1.42969H0V7.73437Z" fill="currentColor"/>
<path d="M21.1406 7.73437V8.4375H22.5703H24V7.73437V7.03125H22.5703H21.1406V7.73437Z" fill="currentColor"/>
<path d="M1.76719 11.3344L0.75 12.3516L1.25625 12.8578L1.75781 13.3594L2.78906 12.3281L3.82031 11.2969L3.32813 10.8047C3.05625 10.5328 2.82656 10.3125 2.8125 10.3125C2.79844 10.3125 2.32969 10.7719 1.76719 11.3344Z" fill="currentColor"/>
<path d="M20.6719 10.8047L20.1797 11.2969L21.2109 12.3281L22.2422 13.3594L22.7438 12.8578L23.25 12.3516L22.2328 11.3344C21.6703 10.7719 21.2016 10.3125 21.1875 10.3125C21.1734 10.3125 20.9438 10.5328 20.6719 10.8047Z" fill="currentColor"/>
</g>
<defs>
<clipPath id="clip0_142_32">
<rect width="24" height="24" fill="white"/>
</clipPath>
</defs>
</svg>
