
<svg version="1.0" xmlns="http://www.w3.org/2000/svg"
 width="512.000000pt" height="512.000000pt" viewBox="0 0 512.000000 512.000000"
 preserveAspectRatio="xMidYMid meet">

<g transform="translate(0.000000,512.000000) scale(0.100000,-0.100000)"
fill="#000000" stroke="none">
<path d="M2350 4983 c-580 -60 -1074 -286 -1479 -678 -217 -210 -399 -465
-522 -732 -122 -265 -231 -717 -200 -830 46 -167 245 -235 383 -130 58 44 84
102 103 227 98 642 500 1190 1080 1470 673 325 1472 236 2058 -231 l68 -54
-188 -5 c-167 -5 -192 -8 -228 -27 -87 -47 -129 -117 -130 -218 0 -59 4 -78
28 -118 36 -60 94 -103 160 -117 35 -8 178 -11 447 -8 382 3 396 4 435 24 55
30 94 70 119 124 20 43 21 59 21 465 l0 420 -30 53 c-80 146 -275 173 -387 55
-31 -33 -67 -108 -68 -140 0 -13 -2 -23 -4 -23 -2 0 -55 34 -117 76 -314 210
-718 355 -1098 393 -96 10 -370 13 -451 4z"/>
<path d="M4670 2551 c-73 -24 -129 -73 -156 -137 -7 -17 -20 -78 -29 -135 -67
-434 -259 -806 -571 -1110 -119 -115 -227 -199 -359 -279 -686 -414 -1593
-351 -2210 155 l-66 53 188 4 c170 3 192 5 228 25 88 47 129 117 130 218 0 59
-4 78 -28 118 -36 60 -94 103 -160 117 -35 8 -178 11 -447 8 -382 -3 -396 -4
-435 -24 -51 -28 -91 -68 -119 -119 -21 -39 -21 -49 -21 -465 l0 -425 30 -54
c34 -62 73 -95 140 -117 83 -29 185 -3 247 63 31 33 67 108 68 141 0 12 2 22
4 22 2 0 46 -29 97 -64 298 -202 627 -331 1004 -393 156 -25 543 -25 705 0
768 120 1405 564 1783 1242 188 336 332 895 264 1021 -27 52 -67 94 -110 116
-44 22 -137 32 -177 19z"/>
</g>
</svg>
