
<svg version="1.0" xmlns="http://www.w3.org/2000/svg"
 width="512.000000pt" height="512.000000pt" viewBox="0 0 512.000000 512.000000"
 preserveAspectRatio="xMidYMid meet">

<g transform="translate(0.000000,512.000000) scale(0.100000,-0.100000)"
fill="currentColor" stroke="none">
<path d="M2390 3950 c-905 -58 -1725 -608 -2125 -1425 -146 -299 -224 -576
-255 -910 -13 -146 -13 -228 2 -243 18 -18 631 -17 645 0 6 7 13 69 16 138 13
293 116 623 275 877 234 377 597 666 1011 803 591 197 1239 92 1735 -279 444
-333 729 -863 753 -1401 3 -69 10 -131 16 -137 7 -10 84 -13 322 -13 269 0
314 2 325 15 14 17 9 199 -11 343 -149 1124 -1001 2012 -2112 2202 -107 18
-393 42 -457 38 -14 0 -77 -4 -140 -8z m130 -324 l0 -253 -37 -7 c-21 -3 -56
-6 -78 -6 -63 0 -231 -28 -338 -55 -125 -33 -227 -70 -355 -130 -56 -27 -104
-46 -106 -44 -10 10 -246 423 -246 430 0 23 305 156 475 208 173 53 403 95
570 104 33 2 72 4 88 5 l27 2 0 -254z m335 233 c211 -25 423 -78 625 -159 121
-48 280 -127 280 -139 0 -7 -236 -420 -246 -430 -2 -2 -53 19 -113 48 -207 98
-437 160 -674 181 -62 5 -115 10 -119 10 -5 0 -8 115 -8 255 l0 255 83 -5 c45
-4 123 -11 172 -16z m-1445 -551 c68 -117 124 -216 126 -220 2 -3 -15 -17 -39
-31 -64 -38 -218 -159 -299 -235 -87 -83 -201 -217 -269 -319 -29 -43 -53 -80
-55 -82 -3 -4 -7 -2 -266 148 l-177 103 32 51 c111 182 352 452 531 597 81 65
274 200 287 200 4 0 62 -96 129 -212z m2555 132 c132 -90 297 -232 403 -346
88 -94 236 -283 289 -371 l32 -52 -57 -34 c-228 -133 -383 -219 -386 -216 -1
2 -30 45 -64 94 -141 208 -368 425 -586 560 -14 9 2 40 110 228 91 157 131
217 141 213 8 -3 61 -37 118 -76z m-3340 -972 c105 -60 193 -113 197 -117 4
-3 -12 -47 -36 -96 -59 -122 -109 -259 -140 -385 -27 -111 -56 -311 -56 -386
l0 -44 -255 0 -255 0 0 44 c0 24 5 90 10 147 30 303 116 602 250 869 48 96 51
100 73 89 12 -7 108 -61 212 -121z m4155 32 c101 -202 167 -397 214 -630 25
-124 46 -304 46 -387 l0 -43 -254 0 -253 0 -7 95 c-17 249 -92 524 -201 739
-19 39 -32 73 -28 77 8 7 426 249 430 249 2 0 25 -45 53 -100z"/>
<path d="M3345 1954 c-698 -342 -701 -344 -740 -333 -90 25 -203 -31 -249
-123 -77 -154 32 -330 203 -330 102 0 166 42 212 138 l30 64 342 229 c839 560
942 632 945 652 4 22 -14 49 -32 48 -6 0 -326 -155 -711 -345z m152 -21 c-4
-3 -181 -124 -394 -267 -386 -260 -388 -261 -396 -302 -15 -81 -104 -136 -185
-115 -38 11 -80 47 -101 88 -32 63 5 160 74 193 48 23 60 24 117 9 l43 -12
420 207 c231 113 422 206 424 206 2 0 1 -3 -2 -7z"/>
</g>
</svg>
