<svg width="27" height="27" viewBox="0 0 27 27" fill="none" xmlns="http://www.w3.org/2000/svg">
<path d="M0.0896484 0.142399C0.142383 0.226774 2.45215 3.58595 5.2207 7.62013C7.98925 11.6543 10.2568 14.9766 10.2568 15.0029C10.2568 15.0346 7.98398 17.7029 5.19961 20.9408C2.42051 24.1734 0.110742 26.8629 0.0685547 26.9104C0 26.9947 0.0738281 27 1.15488 27H2.31504L6.79218 21.7951C9.25488 18.9369 11.2957 16.585 11.3221 16.5797C11.3537 16.5691 12.9885 18.9106 14.9555 21.7793L18.5361 27H22.4596C26.1773 27 26.3777 26.9947 26.3303 26.9051C26.3039 26.8576 23.9045 23.3613 21.0041 19.1426C18.1037 14.9238 15.7254 11.4592 15.7254 11.4434C15.7254 11.4223 17.9297 8.84884 20.6244 5.72169L25.5182 0.0263834L24.3844 0.0105631C23.451 1.62125e-05 23.2348 0.0105631 23.1662 0.0738443C23.1187 0.116032 21.1939 2.34669 18.8894 5.0256C16.585 7.70978 14.6812 9.89298 14.6601 9.88243C14.6391 9.86661 13.0992 7.64122 11.2377 4.93068L7.85214 1.62125e-05H3.92344H0L0.0896484 0.142399ZM14.9344 13.4789C19.4432 19.9336 23.1451 25.2334 23.1504 25.265C23.1662 25.2967 22.5281 25.3072 21.3891 25.302L19.6066 25.2861L11.3906 13.5369C6.87129 7.07169 3.17461 1.77189 3.17461 1.76134C3.17461 1.7508 3.97617 1.74025 4.95703 1.74025L6.73418 1.74552L14.9344 13.4789Z" fill="white"/>
</svg>
