
<svg version="1.0" xmlns="http://www.w3.org/2000/svg"
 width="512.000000pt" height="512.000000pt" viewBox="0 0 512.000000 512.000000"
 preserveAspectRatio="xMidYMid meet">

<g transform="translate(0.000000,512.000000) scale(0.100000,-0.100000)"
fill="#000000" stroke="none">
<path d="M4161 5109 c-83 -14 -185 -53 -264 -100 -92 -54 -222 -183 -275 -274
-132 -226 -144 -511 -31 -738 84 -166 199 -281 367 -366 l62 -31 0 -1133 0
-1134 23 -21 c32 -30 77 -29 108 4 l24 26 3 1106 2 1107 120 0 120 0 0 -1111
0 -1111 23 -21 c32 -30 77 -29 108 4 l24 26 3 1133 2 1134 33 10 c59 20 182
108 249 180 316 334 284 839 -72 1144 -64 54 -208 129 -295 152 -74 19 -261
27 -334 14z m264 -164 c333 -70 551 -405 480 -739 -74 -348 -440 -569 -777
-470 -139 42 -275 141 -354 261 -85 128 -120 305 -90 453 71 348 398 567 741
495z"/>
<path d="M4545 4686 c-16 -8 -63 -48 -104 -89 -70 -71 -75 -74 -105 -66 -51
15 -132 -8 -180 -50 -63 -55 -75 -182 -24 -259 64 -97 234 -111 309 -26 42 48
65 129 50 180 -8 30 -5 35 66 105 90 89 110 126 89 167 -11 22 -55 54 -69 52
-1 -1 -15 -7 -32 -14z m-215 -336 c13 -25 -10 -53 -41 -48 -30 4 -39 46 -14
64 20 15 42 8 55 -16z"/>
<path d="M860 3251 c-77 -24 -151 -93 -169 -158 -6 -21 -11 -117 -11 -214 0
-169 1 -177 26 -228 29 -58 84 -104 146 -123 l38 -11 0 -589 0 -589 25 -24
c35 -35 76 -33 109 6 l26 31 0 584 0 584 273 0 c273 0 274 0 295 23 30 32 29
81 -3 112 l-24 25 -351 0 -351 0 -24 25 c-24 24 -25 28 -25 183 0 145 2 160
20 180 11 12 31 24 43 27 12 3 575 4 1250 3 l1229 -3 19 -24 c17 -21 19 -41
19 -186 l0 -164 -26 -20 c-26 -20 -38 -21 -371 -21 -205 0 -352 -4 -363 -10
-25 -13 -41 -65 -30 -94 20 -54 32 -56 322 -56 l268 0 0 -574 c0 -374 4 -584
10 -602 22 -57 83 -72 125 -29 l25 24 0 590 0 590 40 12 c53 16 118 73 141
123 16 35 19 68 19 235 0 220 -8 253 -78 311 -77 63 -2 60 -1371 59 -685 0
-1257 -4 -1271 -8z"/>
<path d="M1819 2931 c-24 -19 -24 -20 -27 -268 -4 -287 4 -337 69 -427 153
-214 476 -185 588 53 26 56 26 58 29 331 3 269 3 276 -18 303 -26 33 -76 37
-111 8 -24 -19 -24 -20 -29 -288 l-5 -270 -28 -42 c-61 -92 -190 -108 -271
-33 -61 57 -66 81 -66 358 0 249 0 251 -23 272 -29 27 -77 28 -108 3z"/>
<path d="M225 1131 c-77 -19 -155 -90 -174 -158 -16 -56 -13 -379 3 -426 21
-57 61 -103 113 -128 41 -20 66 -24 176 -27 l127 -4 0 -127 c0 -145 15 -192
71 -232 33 -23 39 -24 269 -27 228 -2 236 -2 275 20 68 39 85 87 85 240 l0
128 1344 0 1344 0 4 -137 c4 -161 18 -196 92 -232 39 -19 60 -21 267 -21 213
0 226 1 264 23 68 38 85 86 85 238 l0 127 128 4 c150 4 204 23 253 91 45 62
51 101 47 306 -3 183 -3 187 -31 234 -33 55 -83 92 -147 106 -52 12 -4546 14
-4595 2z m4596 -180 c17 -21 19 -41 19 -186 0 -145 -2 -165 -19 -186 l-19 -24
-2277 -3 -2276 -2 -24 24 c-25 25 -25 28 -25 188 1 169 4 182 45 206 15 9 593
11 2288 9 l2269 -2 19 -24z m-3811 -676 l0 -115 -190 0 -190 0 0 115 0 115
190 0 190 0 0 -115z m3400 0 l0 -115 -195 0 -195 0 0 115 0 115 195 0 195 0 0
-115z"/>
</g>
</svg>
